<svg width="198" height="142" viewBox="0 0 198 142" fill="none" xmlns="http://www.w3.org/2000/svg">
<path d="M37.48 89H34.96V84.08L30.36 75.52H33.3L34.2 77.48C34.72 78.6133 35.1467 79.5667 35.48 80.34C35.8133 81.1 36.0133 81.5733 36.08 81.76L36.2 82.06C36.32 81.5667 37.0067 80.04 38.26 77.48L39.18 75.52H42.12L37.48 84V89ZM51.5205 88.44C50.8138 88.88 49.7938 89.1 48.4605 89.1C46.8471 89.1 45.5738 88.62 44.6405 87.66C43.7071 86.7 43.2405 85.46 43.2405 83.94C43.2405 82.3267 43.6805 81.06 44.5605 80.14C45.4405 79.22 46.5405 78.76 47.8605 78.76C49.1805 78.76 50.2271 79.16 51.0005 79.96C51.7738 80.76 52.1605 81.9267 52.1605 83.46C52.1605 83.8333 52.1138 84.3133 52.0205 84.9H45.6605C45.8338 85.6333 46.1938 86.1933 46.7405 86.58C47.3005 86.9667 47.9938 87.16 48.8205 87.16C49.8871 87.16 50.7871 86.8933 51.5205 86.36V88.44ZM47.9205 80.64C47.3471 80.64 46.8471 80.8533 46.4205 81.28C46.0071 81.6933 45.7405 82.3 45.6205 83.1H49.8805V82.8C49.8538 82.1467 49.6738 81.6267 49.3405 81.24C49.0205 80.84 48.5471 80.64 47.9205 80.64ZM59.9664 88.76C59.4997 88.9867 58.8997 89.1 58.1664 89.1C55.9797 89.1 54.8864 87.9933 54.8864 85.78V80.66H53.3664V78.86H54.8864V76.42H57.2864V78.86H59.8064V80.66H57.2864V85.82C57.2864 86.2467 57.3997 86.5733 57.6264 86.8C57.8531 87.0133 58.1664 87.12 58.5664 87.12C59.0731 87.12 59.5397 86.98 59.9664 86.7V88.76ZM64.3445 89H61.9445V75.1H64.3445V83.62L67.9245 78.86H70.7245L67.0045 83.7L70.8045 89H67.9845L64.3445 83.76V89ZM75.8738 87.3C76.4071 87.3 76.8204 87.1467 77.1138 86.84C77.4204 86.52 77.5738 86.1067 77.5738 85.6V84.64H76.3338C75.7071 84.64 75.2271 84.7733 74.8938 85.04C74.5604 85.2933 74.3938 85.62 74.3938 86.02C74.3938 86.8733 74.8871 87.3 75.8738 87.3ZM77.6738 87.78C77.2071 88.6467 76.3271 89.08 75.0338 89.08C74.0738 89.08 73.3071 88.8 72.7338 88.24C72.1738 87.68 71.8938 86.9733 71.8938 86.12C71.8938 85.16 72.2538 84.4067 72.9738 83.86C73.6938 83.3133 74.7338 83.04 76.0938 83.04H77.5738V82.42C77.5738 81.86 77.4271 81.4333 77.1338 81.14C76.8404 80.8467 76.3404 80.7 75.6338 80.7C74.5538 80.7 73.5604 81 72.6538 81.6V79.38C73.4138 78.9133 74.5071 78.68 75.9338 78.68C78.6804 78.68 80.0538 79.96 80.0538 82.52V89H77.6738V87.78ZM89.7905 89H82.0705V87.22L86.7705 80.78H82.2505V78.86H89.5305V80.54L84.8105 87.06H89.7905V89ZM94.4055 89H92.0055V78.86H94.4055V89ZM94.6455 75.82C94.6455 76.2333 94.5055 76.58 94.2255 76.86C93.9455 77.14 93.6055 77.28 93.2055 77.28C92.8055 77.28 92.4655 77.14 92.1855 76.86C91.9055 76.58 91.7655 76.2333 91.7655 75.82C91.7655 75.42 91.9055 75.08 92.1855 74.8C92.4655 74.52 92.8055 74.38 93.2055 74.38C93.6055 74.38 93.9455 74.52 94.2255 74.8C94.5055 75.08 94.6455 75.42 94.6455 75.82ZM99.5408 89H97.1208V74.86H99.5408V80.4C100.247 79.28 101.261 78.72 102.581 78.72C103.847 78.72 104.887 79.1933 105.701 80.14C106.527 81.0733 106.941 82.34 106.941 83.94C106.941 85.38 106.547 86.6067 105.761 87.62C104.987 88.6333 103.934 89.14 102.601 89.14C101.267 89.14 100.247 88.5733 99.5408 87.44V89ZM99.5408 83.84C99.5408 84.8933 99.7808 85.7 100.261 86.26C100.741 86.8067 101.341 87.08 102.061 87.08C102.754 87.08 103.334 86.7933 103.801 86.22C104.267 85.6467 104.501 84.9 104.501 83.98C104.501 82.9667 104.261 82.18 103.781 81.62C103.314 81.0467 102.734 80.76 102.041 80.76C101.387 80.76 100.807 81.02 100.301 81.54C99.7941 82.0467 99.5408 82.8133 99.5408 83.84ZM116.396 89H113.976V74.86H116.396V80.4C117.103 79.28 118.116 78.72 119.436 78.72C120.703 78.72 121.743 79.1933 122.556 80.14C123.383 81.0733 123.796 82.34 123.796 83.94C123.796 85.38 123.403 86.6067 122.616 87.62C121.843 88.6333 120.79 89.14 119.456 89.14C118.123 89.14 117.103 88.5733 116.396 87.44V89ZM116.396 83.84C116.396 84.8933 116.636 85.7 117.116 86.26C117.596 86.8067 118.196 87.08 118.916 87.08C119.61 87.08 120.19 86.7933 120.656 86.22C121.123 85.6467 121.356 84.9 121.356 83.98C121.356 82.9667 121.116 82.18 120.636 81.62C120.17 81.0467 119.59 80.76 118.896 80.76C118.243 80.76 117.663 81.02 117.156 81.54C116.65 82.0467 116.396 82.8133 116.396 83.84ZM133.591 88.44C132.884 88.88 131.864 89.1 130.531 89.1C128.917 89.1 127.644 88.62 126.711 87.66C125.777 86.7 125.311 85.46 125.311 83.94C125.311 82.3267 125.751 81.06 126.631 80.14C127.511 79.22 128.611 78.76 129.931 78.76C131.251 78.76 132.297 79.16 133.071 79.96C133.844 80.76 134.231 81.9267 134.231 83.46C134.231 83.8333 134.184 84.3133 134.091 84.9H127.731C127.904 85.6333 128.264 86.1933 128.811 86.58C129.371 86.9667 130.064 87.16 130.891 87.16C131.957 87.16 132.857 86.8933 133.591 86.36V88.44ZM129.991 80.64C129.417 80.64 128.917 80.8533 128.491 81.28C128.077 81.6933 127.811 82.3 127.691 83.1H131.951V82.8C131.924 82.1467 131.744 81.6267 131.411 81.24C131.091 80.84 130.617 80.64 129.991 80.64ZM138.837 89H136.417L136.437 78.86H138.837V80.66C139.303 79.4067 140.157 78.78 141.397 78.78C141.677 78.78 141.903 78.8 142.077 78.84V81.16C141.77 81.0267 141.43 80.96 141.057 80.96C140.403 80.96 139.87 81.2267 139.457 81.76C139.043 82.2933 138.837 82.96 138.837 83.76V89ZM145.988 89H143.588V78.86H145.988V89ZM146.228 75.82C146.228 76.2333 146.088 76.58 145.808 76.86C145.528 77.14 145.188 77.28 144.788 77.28C144.388 77.28 144.048 77.14 143.768 76.86C143.488 76.58 143.348 76.2333 143.348 75.82C143.348 75.42 143.488 75.08 143.768 74.8C144.048 74.52 144.388 74.38 144.788 74.38C145.188 74.38 145.528 74.52 145.808 74.8C146.088 75.08 146.228 75.42 146.228 75.82ZM155.303 86.08C155.303 87.0267 154.963 87.7667 154.283 88.3C153.603 88.8333 152.696 89.1 151.563 89.1C150.309 89.1 149.296 88.8933 148.523 88.48V86.28C149.416 86.88 150.383 87.18 151.423 87.18C151.863 87.18 152.203 87.1 152.443 86.94C152.696 86.7667 152.823 86.5333 152.823 86.24C152.823 86.0667 152.783 85.9133 152.703 85.78C152.623 85.6333 152.469 85.4933 152.243 85.36C152.016 85.2267 151.836 85.1333 151.703 85.08C151.583 85.0133 151.336 84.9 150.963 84.74C150.923 84.7267 150.889 84.7133 150.863 84.7C150.849 84.6867 150.823 84.6733 150.783 84.66C150.743 84.6467 150.709 84.6333 150.683 84.62C149.203 83.9533 148.463 82.9933 148.463 81.74C148.463 80.8067 148.816 80.0733 149.523 79.54C150.229 79.0067 151.116 78.74 152.183 78.74C153.209 78.74 154.063 78.8867 154.743 79.18V81.3C154.076 80.9 153.243 80.7 152.243 80.7C151.829 80.7 151.503 80.7933 151.263 80.98C151.036 81.1533 150.923 81.38 150.923 81.66C150.923 81.7667 150.936 81.8667 150.963 81.96C151.003 82.0533 151.063 82.1467 151.143 82.24C151.236 82.32 151.323 82.3933 151.403 82.46C151.483 82.5267 151.596 82.6 151.743 82.68C151.889 82.7467 152.016 82.8067 152.123 82.86C152.229 82.9133 152.376 82.98 152.563 83.06C152.749 83.14 152.896 83.2067 153.003 83.26C153.709 83.6067 154.269 83.9933 154.683 84.42C155.096 84.8467 155.303 85.4 155.303 86.08ZM166.018 89H163.618V82.78C163.618 82.14 163.451 81.64 163.118 81.28C162.798 80.92 162.378 80.74 161.858 80.74C161.285 80.74 160.765 80.96 160.298 81.4C159.845 81.84 159.618 82.56 159.618 83.56V89H157.218V74.86H159.618V80.58C160.165 79.3533 161.198 78.74 162.718 78.74C163.705 78.74 164.498 79.0533 165.098 79.68C165.711 80.2933 166.018 81.1867 166.018 82.36V89Z" fill="black"/>
<path opacity="0.6" d="M8.78783 120H7.65383L8.33983 110.564H9.78183L11.0278 114.008L12.5398 118.404C13.0812 116.873 13.6132 115.408 14.1358 114.008L15.4378 110.564H16.8798L17.7058 120H16.5718L16.2498 116.276L15.9138 112.09C15.4192 113.471 14.9105 114.867 14.3878 116.276L13.0718 119.79H11.9938L10.7478 116.276L9.31983 112.174C9.31983 112.538 9.23116 113.905 9.05383 116.276L8.78783 120ZM21.8697 119.146C22.3737 119.146 22.7751 119.006 23.0737 118.726C23.3724 118.437 23.5217 118.073 23.5217 117.634V116.724H22.2897C21.6924 116.724 21.2444 116.841 20.9457 117.074C20.6471 117.307 20.4977 117.601 20.4977 117.956C20.4977 118.311 20.6144 118.6 20.8477 118.824C21.0811 119.039 21.4217 119.146 21.8697 119.146ZM23.5357 119.16C23.1717 119.767 22.5091 120.07 21.5477 120.07C20.8851 120.07 20.3484 119.874 19.9377 119.482C19.5364 119.09 19.3357 118.595 19.3357 117.998C19.3357 117.317 19.5924 116.789 20.1057 116.416C20.6284 116.033 21.3377 115.842 22.2337 115.842H23.5217V115.478C23.5217 114.918 23.3957 114.498 23.1437 114.218C22.8917 113.929 22.4671 113.784 21.8697 113.784C21.1137 113.784 20.4417 113.985 19.8537 114.386V113.28C20.3857 112.953 21.0857 112.79 21.9537 112.79C23.7364 112.79 24.6277 113.695 24.6277 115.506V120H23.5357V119.16ZM32.1904 120H31.0844V115.408C31.0844 114.895 30.949 114.498 30.6784 114.218C30.417 113.938 30.0717 113.798 29.6424 113.798C29.1197 113.798 28.6624 113.999 28.2704 114.4C27.8784 114.801 27.6824 115.375 27.6824 116.122V120H26.5904V110.102H27.6824V114.134C28.1024 113.247 28.849 112.804 29.9224 112.804C30.6037 112.804 31.1497 113.014 31.5604 113.434C31.9804 113.854 32.1904 114.423 32.1904 115.142V120ZM38.4209 118.11C38.4209 118.717 38.2062 119.197 37.7769 119.552C37.3569 119.907 36.7782 120.084 36.0409 120.084C35.1822 120.084 34.4869 119.939 33.9549 119.65V118.572C34.5802 118.945 35.2522 119.132 35.9709 119.132C36.4002 119.132 36.7269 119.048 36.9509 118.88C37.1749 118.712 37.2869 118.483 37.2869 118.194C37.2869 117.858 37.1609 117.597 36.9089 117.41C36.6662 117.223 36.2556 117.013 35.6769 116.78C35.1449 116.575 34.7156 116.318 34.3889 116.01C34.0716 115.702 33.9129 115.287 33.9129 114.764C33.9129 114.176 34.1322 113.709 34.5709 113.364C35.0189 113.009 35.5742 112.832 36.2369 112.832C36.9742 112.832 37.5669 112.935 38.0149 113.14V114.19C37.5856 113.929 36.9976 113.798 36.2509 113.798C35.8776 113.798 35.5789 113.887 35.3549 114.064C35.1402 114.232 35.0329 114.451 35.0329 114.722C35.0329 114.89 35.0656 115.039 35.1309 115.17C35.1962 115.291 35.3222 115.413 35.5089 115.534C35.7049 115.655 35.8449 115.739 35.9289 115.786C36.0222 115.823 36.2182 115.907 36.5169 116.038C37.1142 116.281 37.5809 116.556 37.9169 116.864C38.2529 117.172 38.4209 117.587 38.4209 118.11ZM45.4364 120H44.3304V118.768C43.9571 119.645 43.2151 120.084 42.1044 120.084C41.4044 120.084 40.8491 119.879 40.4384 119.468C40.0371 119.048 39.8364 118.488 39.8364 117.788V112.902H40.9424V117.508C40.9424 118.021 41.0731 118.413 41.3344 118.684C41.5958 118.955 41.9504 119.09 42.3984 119.09C42.9864 119.09 43.4531 118.885 43.7984 118.474C44.1531 118.063 44.3304 117.508 44.3304 116.808V112.902H45.4364V120ZM48.643 120H47.537V110.102H48.643V120ZM56.9926 116.472C56.9926 117.527 56.6939 118.399 56.0966 119.09C55.4992 119.781 54.6779 120.126 53.6326 120.126C52.6152 120.126 51.8079 119.785 51.2106 119.104C50.6226 118.413 50.3286 117.545 50.3286 116.5C50.3286 115.445 50.6319 114.568 51.2386 113.868C51.8546 113.159 52.6526 112.804 53.6326 112.804C54.7059 112.804 55.5319 113.149 56.1106 113.84C56.6986 114.531 56.9926 115.408 56.9926 116.472ZM51.4766 116.486C51.4766 117.223 51.6726 117.853 52.0646 118.376C52.4566 118.889 52.9792 119.146 53.6326 119.146C54.3419 119.146 54.8879 118.894 55.2706 118.39C55.6532 117.877 55.8446 117.242 55.8446 116.486C55.8446 115.702 55.6626 115.058 55.2986 114.554C54.9346 114.041 54.3792 113.784 53.6326 113.784C52.9606 113.784 52.4332 114.045 52.0506 114.568C51.6679 115.091 51.4766 115.73 51.4766 116.486ZM62.1659 119.818C61.8579 119.986 61.5126 120.07 61.1299 120.07C59.7299 120.07 59.0299 119.356 59.0299 117.928V113.798H57.8959V112.902H59.0299V111.138H60.1359V112.902H62.0959V113.798H60.1359V117.956C60.1359 118.712 60.4906 119.09 61.1999 119.09C61.5639 119.09 61.8859 118.983 62.1659 118.768V119.818ZM64.9399 120H63.8339V110.102H64.9399V120ZM69.2154 119.146C69.7194 119.146 70.1208 119.006 70.4194 118.726C70.7181 118.437 70.8674 118.073 70.8674 117.634V116.724H69.6354C69.0381 116.724 68.5901 116.841 68.2914 117.074C67.9928 117.307 67.8434 117.601 67.8434 117.956C67.8434 118.311 67.9601 118.6 68.1934 118.824C68.4268 119.039 68.7674 119.146 69.2154 119.146ZM70.8814 119.16C70.5174 119.767 69.8548 120.07 68.8934 120.07C68.2308 120.07 67.6941 119.874 67.2834 119.482C66.8821 119.09 66.6814 118.595 66.6814 117.998C66.6814 117.317 66.9381 116.789 67.4514 116.416C67.9741 116.033 68.6834 115.842 69.5794 115.842H70.8674V115.478C70.8674 114.918 70.7414 114.498 70.4894 114.218C70.2374 113.929 69.8128 113.784 69.2154 113.784C68.4594 113.784 67.7874 113.985 67.1994 114.386V113.28C67.7314 112.953 68.4314 112.79 69.2994 112.79C71.0821 112.79 71.9734 113.695 71.9734 115.506V120H70.8814V119.16ZM75.0281 120H73.9221L73.9361 112.902H75.0281V114.148C75.4014 113.271 76.0454 112.832 76.9601 112.832C77.1281 112.832 77.2587 112.841 77.3521 112.86V113.952C77.1561 113.887 76.9554 113.854 76.7501 113.854C76.2554 113.854 75.8447 114.083 75.5181 114.54C75.1914 114.997 75.0281 115.525 75.0281 116.122V120ZM83.0684 120H81.9624V110.102H83.0684V113.966C83.5818 113.182 84.3004 112.79 85.2244 112.79C86.1204 112.79 86.8531 113.135 87.4224 113.826C87.9918 114.507 88.2764 115.403 88.2764 116.514C88.2764 117.513 88.0058 118.362 87.4644 119.062C86.9324 119.762 86.1951 120.112 85.2524 120.112C84.3004 120.112 83.5724 119.725 83.0684 118.95V120ZM83.0684 116.402C83.0684 117.345 83.2691 118.031 83.6704 118.46C84.0811 118.889 84.5758 119.104 85.1544 119.104C85.7238 119.104 86.1951 118.866 86.5684 118.39C86.9418 117.914 87.1284 117.293 87.1284 116.528C87.1284 115.651 86.9324 114.979 86.5404 114.512C86.1578 114.036 85.6724 113.798 85.0844 113.798C84.5804 113.798 84.1184 114.008 83.6984 114.428C83.2784 114.848 83.0684 115.506 83.0684 116.402ZM92.0748 119.146C92.5788 119.146 92.9801 119.006 93.2788 118.726C93.5775 118.437 93.7268 118.073 93.7268 117.634V116.724H92.4948C91.8975 116.724 91.4495 116.841 91.1508 117.074C90.8521 117.307 90.7028 117.601 90.7028 117.956C90.7028 118.311 90.8195 118.6 91.0528 118.824C91.2861 119.039 91.6268 119.146 92.0748 119.146ZM93.7408 119.16C93.3768 119.767 92.7141 120.07 91.7528 120.07C91.0901 120.07 90.5535 119.874 90.1428 119.482C89.7415 119.09 89.5408 118.595 89.5408 117.998C89.5408 117.317 89.7975 116.789 90.3108 116.416C90.8335 116.033 91.5428 115.842 92.4388 115.842H93.7268V115.478C93.7268 114.918 93.6008 114.498 93.3488 114.218C93.0968 113.929 92.6721 113.784 92.0748 113.784C91.3188 113.784 90.6468 113.985 90.0588 114.386V113.28C90.5908 112.953 91.2908 112.79 92.1588 112.79C93.9415 112.79 94.8328 113.695 94.8328 115.506V120H93.7408V119.16ZM97.8874 120H96.7814L96.7954 112.902H97.8874V114.148C98.2608 113.271 98.9048 112.832 99.8194 112.832C99.9874 112.832 100.118 112.841 100.211 112.86V113.952C100.015 113.887 99.8148 113.854 99.6094 113.854C99.1148 113.854 98.7041 114.083 98.3774 114.54C98.0508 114.997 97.8874 115.525 97.8874 116.122V120ZM106.248 119.748C105.8 120.019 105.249 120.154 104.596 120.154C103.476 120.154 102.585 119.799 101.922 119.09C101.269 118.371 100.942 117.499 100.942 116.472C100.942 115.464 101.269 114.596 101.922 113.868C102.585 113.14 103.485 112.776 104.624 112.776C105.231 112.776 105.772 112.907 106.248 113.168V114.218C105.819 113.929 105.315 113.784 104.736 113.784C103.933 113.784 103.289 114.045 102.804 114.568C102.328 115.081 102.09 115.721 102.09 116.486C102.099 117.251 102.333 117.891 102.79 118.404C103.247 118.908 103.896 119.16 104.736 119.16C105.277 119.16 105.781 119.006 106.248 118.698V119.748ZM113.552 120H112.446V115.408C112.446 114.895 112.31 114.498 112.04 114.218C111.778 113.938 111.433 113.798 111.004 113.798C110.481 113.798 110.024 113.999 109.632 114.4C109.24 114.801 109.044 115.375 109.044 116.122V120H107.952V110.102H109.044V114.134C109.464 113.247 110.21 112.804 111.284 112.804C111.965 112.804 112.511 113.014 112.922 113.434C113.342 113.854 113.552 114.423 113.552 115.142V120ZM117.682 119.146C118.186 119.146 118.588 119.006 118.886 118.726C119.185 118.437 119.334 118.073 119.334 117.634V116.724H118.102C117.505 116.724 117.057 116.841 116.758 117.074C116.46 117.307 116.31 117.601 116.31 117.956C116.31 118.311 116.427 118.6 116.66 118.824C116.894 119.039 117.234 119.146 117.682 119.146ZM119.348 119.16C118.984 119.767 118.322 120.07 117.36 120.07C116.698 120.07 116.161 119.874 115.75 119.482C115.349 119.09 115.148 118.595 115.148 117.998C115.148 117.317 115.405 116.789 115.918 116.416C116.441 116.033 117.15 115.842 118.046 115.842H119.334V115.478C119.334 114.918 119.208 114.498 118.956 114.218C118.704 113.929 118.28 113.784 117.682 113.784C116.926 113.784 116.254 113.985 115.666 114.386V113.28C116.198 112.953 116.898 112.79 117.766 112.79C119.549 112.79 120.44 113.695 120.44 115.506V120H119.348V119.16ZM126.549 116.528C126.549 117.293 126.735 117.914 127.109 118.39C127.482 118.866 127.953 119.104 128.523 119.104C129.101 119.104 129.591 118.889 129.993 118.46C130.403 118.031 130.609 117.345 130.609 116.402C130.609 115.506 130.399 114.848 129.979 114.428C129.559 114.008 129.097 113.798 128.593 113.798C128.005 113.798 127.515 114.036 127.123 114.512C126.74 114.979 126.549 115.651 126.549 116.528ZM131.715 120H130.609V118.95C130.105 119.725 129.377 120.112 128.425 120.112C127.482 120.112 126.74 119.762 126.199 119.062C125.667 118.362 125.401 117.513 125.401 116.514C125.401 115.403 125.685 114.507 126.255 113.826C126.824 113.135 127.557 112.79 128.453 112.79C129.377 112.79 130.095 113.187 130.609 113.98V110.102H131.715V120ZM135.934 119.146C136.438 119.146 136.84 119.006 137.138 118.726C137.437 118.437 137.586 118.073 137.586 117.634V116.724H136.354C135.757 116.724 135.309 116.841 135.01 117.074C134.712 117.307 134.562 117.601 134.562 117.956C134.562 118.311 134.679 118.6 134.912 118.824C135.146 119.039 135.486 119.146 135.934 119.146ZM137.6 119.16C137.236 119.767 136.574 120.07 135.612 120.07C134.95 120.07 134.413 119.874 134.002 119.482C133.601 119.09 133.4 118.595 133.4 117.998C133.4 117.317 133.657 116.789 134.17 116.416C134.693 116.033 135.402 115.842 136.298 115.842H137.586V115.478C137.586 114.918 137.46 114.498 137.208 114.218C136.956 113.929 136.532 113.784 135.934 113.784C135.178 113.784 134.506 113.985 133.918 114.386V113.28C134.45 112.953 135.15 112.79 136.018 112.79C137.801 112.79 138.692 113.695 138.692 115.506V120H137.6V119.16ZM143.819 120H142.461L139.983 112.902H141.131L142.111 115.898L143.147 119.132C143.231 118.731 143.581 117.653 144.197 115.898L145.205 112.902H146.353L143.819 120ZM148.885 120H147.779V110.102H148.885V120ZM153.161 119.146C153.665 119.146 154.066 119.006 154.365 118.726C154.663 118.437 154.813 118.073 154.813 117.634V116.724H153.581C152.983 116.724 152.535 116.841 152.237 117.074C151.938 117.307 151.789 117.601 151.789 117.956C151.789 118.311 151.905 118.6 152.139 118.824C152.372 119.039 152.713 119.146 153.161 119.146ZM154.827 119.16C154.463 119.767 153.8 120.07 152.839 120.07C152.176 120.07 151.639 119.874 151.229 119.482C150.827 119.09 150.627 118.595 150.627 117.998C150.627 117.317 150.883 116.789 151.397 116.416C151.919 116.033 152.629 115.842 153.525 115.842H154.813V115.478C154.813 114.918 154.687 114.498 154.435 114.218C154.183 113.929 153.758 113.784 153.161 113.784C152.405 113.784 151.733 113.985 151.145 114.386V113.28C151.677 112.953 152.377 112.79 153.245 112.79C155.027 112.79 155.919 113.695 155.919 115.506V120H154.827V119.16ZM161.437 119.818C161.129 119.986 160.784 120.07 160.401 120.07C159.001 120.07 158.301 119.356 158.301 117.928V113.798H157.167V112.902H158.301V111.138H159.407V112.902H161.367V113.798H159.407V117.956C159.407 118.712 159.762 119.09 160.471 119.09C160.835 119.09 161.157 118.983 161.437 118.768V119.818ZM164.211 120H163.105V110.102H164.211V120ZM168.487 119.146C168.991 119.146 169.392 119.006 169.691 118.726C169.99 118.437 170.139 118.073 170.139 117.634V116.724H168.907C168.31 116.724 167.862 116.841 167.563 117.074C167.264 117.307 167.115 117.601 167.115 117.956C167.115 118.311 167.232 118.6 167.465 118.824C167.698 119.039 168.039 119.146 168.487 119.146ZM170.153 119.16C169.789 119.767 169.126 120.07 168.165 120.07C167.502 120.07 166.966 119.874 166.555 119.482C166.154 119.09 165.953 118.595 165.953 117.998C165.953 117.317 166.21 116.789 166.723 116.416C167.246 116.033 167.955 115.842 168.851 115.842H170.139V115.478C170.139 114.918 170.013 114.498 169.761 114.218C169.509 113.929 169.084 113.784 168.487 113.784C167.731 113.784 167.059 113.985 166.471 114.386V113.28C167.003 112.953 167.703 112.79 168.571 112.79C170.354 112.79 171.245 113.695 171.245 115.506V120H170.153V119.16ZM174.3 120H173.194L173.208 112.902H174.3V114.148C174.673 113.271 175.317 112.832 176.232 112.832C176.4 112.832 176.53 112.841 176.624 112.86V113.952C176.428 113.887 176.227 113.854 176.022 113.854C175.527 113.854 175.116 114.083 174.79 114.54C174.463 114.997 174.3 115.525 174.3 116.122V120ZM183.5 119.426C183.5 120.509 183.201 121.321 182.604 121.862C182.007 122.413 181.237 122.688 180.294 122.688C179.435 122.688 178.703 122.543 178.096 122.254V121.148C178.693 121.493 179.393 121.666 180.196 121.666C180.877 121.666 181.414 121.484 181.806 121.12C182.198 120.756 182.394 120.187 182.394 119.412V118.614C181.927 119.417 181.232 119.818 180.308 119.818C179.496 119.818 178.801 119.519 178.222 118.922C177.653 118.325 177.368 117.494 177.368 116.43C177.368 115.375 177.634 114.507 178.166 113.826C178.698 113.145 179.393 112.804 180.252 112.804C181.223 112.804 181.937 113.229 182.394 114.078V112.902H183.5V119.426ZM178.516 116.402C178.516 117.195 178.712 117.802 179.104 118.222C179.496 118.633 179.939 118.838 180.434 118.838C180.947 118.838 181.4 118.642 181.792 118.25C182.193 117.849 182.394 117.256 182.394 116.472C182.394 115.567 182.203 114.895 181.82 114.456C181.437 114.017 180.994 113.798 180.49 113.798C179.883 113.798 179.403 114.041 179.048 114.526C178.693 115.002 178.516 115.627 178.516 116.402ZM187.628 119.146C188.132 119.146 188.533 119.006 188.832 118.726C189.13 118.437 189.28 118.073 189.28 117.634V116.724H188.048C187.45 116.724 187.002 116.841 186.704 117.074C186.405 117.307 186.256 117.601 186.256 117.956C186.256 118.311 186.372 118.6 186.606 118.824C186.839 119.039 187.18 119.146 187.628 119.146ZM189.294 119.16C188.93 119.767 188.267 120.07 187.306 120.07C186.643 120.07 186.106 119.874 185.696 119.482C185.294 119.09 185.094 118.595 185.094 117.998C185.094 117.317 185.35 116.789 185.864 116.416C186.386 116.033 187.096 115.842 187.992 115.842H189.28V115.478C189.28 114.918 189.154 114.498 188.902 114.218C188.65 113.929 188.225 113.784 187.628 113.784C186.872 113.784 186.2 113.985 185.612 114.386V113.28C186.144 112.953 186.844 112.79 187.712 112.79C189.494 112.79 190.386 113.695 190.386 115.506V120H189.294V119.16ZM62.0194 138.636C61.4687 138.925 60.7967 139.07 60.0034 139.07C58.93 139.07 58.062 138.743 57.3994 138.09C56.746 137.427 56.4194 136.555 56.4194 135.472C56.4194 134.343 56.7134 133.451 57.3014 132.798C57.8894 132.145 58.6454 131.818 59.5694 131.818C60.456 131.818 61.1607 132.103 61.6834 132.672C62.206 133.241 62.4674 134.049 62.4674 135.094C62.4674 135.393 62.444 135.668 62.3974 135.92H57.5534C57.6374 136.62 57.9034 137.157 58.3514 137.53C58.7994 137.903 59.3874 138.09 60.1154 138.09C60.9087 138.09 61.5434 137.927 62.0194 137.6V138.636ZM59.5694 132.784C59.0374 132.784 58.5847 132.975 58.2114 133.358C57.838 133.741 57.6187 134.287 57.5534 134.996H61.3614V134.716C61.3614 134.128 61.2027 133.661 60.8854 133.316C60.568 132.961 60.1294 132.784 59.5694 132.784ZM64.6998 139H63.4818L65.8618 135.36L63.6218 131.888H64.8958L66.5058 134.548L68.1298 131.888H69.3898L67.0938 135.374L69.4738 139H68.1998L66.4778 136.2L64.6998 139ZM71.9314 141.758H70.8394V131.902H71.9314V132.98C72.426 132.187 73.1587 131.79 74.1294 131.79C75.072 131.79 75.8094 132.135 76.3414 132.826C76.8827 133.507 77.1534 134.361 77.1534 135.388C77.1534 136.48 76.8687 137.376 76.2994 138.076C75.7394 138.767 75.0067 139.112 74.1014 139.112C73.168 139.112 72.4447 138.715 71.9314 137.922V141.758ZM71.9314 135.458C71.9314 136.363 72.1414 137.031 72.5614 137.46C72.9814 137.889 73.448 138.104 73.9614 138.104C74.5587 138.104 75.0487 137.871 75.4314 137.404C75.814 136.928 76.0054 136.256 76.0054 135.388C76.0054 134.613 75.8187 133.988 75.4454 133.512C75.072 133.036 74.6007 132.798 74.0314 132.798C73.462 132.798 72.9674 133.008 72.5474 133.428C72.1367 133.839 71.9314 134.515 71.9314 135.458ZM85.0267 135.472C85.0267 136.527 84.7281 137.399 84.1307 138.09C83.5334 138.781 82.7121 139.126 81.6667 139.126C80.6494 139.126 79.8421 138.785 79.2447 138.104C78.6567 137.413 78.3627 136.545 78.3627 135.5C78.3627 134.445 78.6661 133.568 79.2727 132.868C79.8887 132.159 80.6867 131.804 81.6667 131.804C82.7401 131.804 83.5661 132.149 84.1447 132.84C84.7327 133.531 85.0267 134.408 85.0267 135.472ZM79.5107 135.486C79.5107 136.223 79.7067 136.853 80.0987 137.376C80.4907 137.889 81.0134 138.146 81.6667 138.146C82.3761 138.146 82.9221 137.894 83.3047 137.39C83.6874 136.877 83.8787 136.242 83.8787 135.486C83.8787 134.702 83.6967 134.058 83.3327 133.554C82.9687 133.041 82.4134 132.784 81.6667 132.784C80.9947 132.784 80.4674 133.045 80.0847 133.568C79.7021 134.091 79.5107 134.73 79.5107 135.486ZM87.7361 139H86.6301L86.6441 131.902H87.7361V133.148C88.1094 132.271 88.7534 131.832 89.6681 131.832C89.8361 131.832 89.9667 131.841 90.0601 131.86V132.952C89.8641 132.887 89.6634 132.854 89.4581 132.854C88.9634 132.854 88.5527 133.083 88.2261 133.54C87.8994 133.997 87.7361 134.525 87.7361 135.122V139ZM94.7665 138.818C94.4585 138.986 94.1131 139.07 93.7305 139.07C92.3305 139.07 91.6305 138.356 91.6305 136.928V132.798H90.4965V131.902H91.6305V130.138H92.7365V131.902H94.6965V132.798H92.7365V136.956C92.7365 137.712 93.0911 138.09 93.8005 138.09C94.1645 138.09 94.4865 137.983 94.7665 137.768V138.818ZM100.524 135.388C100.524 136.256 100.716 136.928 101.098 137.404C101.481 137.871 101.971 138.104 102.568 138.104C103.082 138.104 103.544 137.894 103.954 137.474C104.374 137.045 104.584 136.373 104.584 135.458C104.584 134.515 104.379 133.839 103.968 133.428C103.558 133.008 103.068 132.798 102.498 132.798C101.929 132.798 101.458 133.036 101.084 133.512C100.711 133.988 100.524 134.613 100.524 135.388ZM105.69 141.758H104.584V137.936C104.071 138.72 103.352 139.112 102.428 139.112C101.523 139.112 100.786 138.767 100.216 138.076C99.6564 137.376 99.3764 136.48 99.3764 135.388C99.3764 134.361 99.6471 133.507 100.188 132.826C100.73 132.135 101.472 131.79 102.414 131.79C103.357 131.79 104.08 132.177 104.584 132.952V131.902H105.69V141.758ZM108.902 139H107.796V131.902H108.902V139ZM108.86 129.158C109 129.298 109.07 129.471 109.07 129.676C109.07 129.881 109 130.054 108.86 130.194C108.72 130.325 108.547 130.39 108.342 130.39C108.136 130.39 107.964 130.325 107.824 130.194C107.693 130.054 107.628 129.881 107.628 129.676C107.628 129.471 107.693 129.298 107.824 129.158C107.964 129.018 108.136 128.948 108.342 128.948C108.547 128.948 108.72 129.018 108.86 129.158ZM112.169 139H111.063V129.102H112.169V139ZM115.437 139H114.331V131.902H115.437V139ZM115.395 129.158C115.535 129.298 115.605 129.471 115.605 129.676C115.605 129.881 115.535 130.054 115.395 130.194C115.255 130.325 115.082 130.39 114.877 130.39C114.672 130.39 114.499 130.325 114.359 130.194C114.228 130.054 114.163 129.881 114.163 129.676C114.163 129.471 114.228 129.298 114.359 129.158C114.499 129.018 114.672 128.948 114.877 128.948C115.082 128.948 115.255 129.018 115.395 129.158ZM123.143 139H122.037V134.408C122.037 133.885 121.901 133.489 121.631 133.218C121.369 132.938 121.024 132.798 120.595 132.798C120.063 132.798 119.601 133.003 119.209 133.414C118.826 133.825 118.635 134.394 118.635 135.122V139H117.543V131.902H118.635V133.134C119.055 132.247 119.801 131.804 120.875 131.804C121.565 131.804 122.116 132.014 122.527 132.434C122.937 132.854 123.143 133.414 123.143 134.114V139ZM127.273 138.146C127.777 138.146 128.178 138.006 128.477 137.726C128.776 137.437 128.925 137.073 128.925 136.634V135.724H127.693C127.096 135.724 126.648 135.841 126.349 136.074C126.05 136.307 125.901 136.601 125.901 136.956C125.901 137.311 126.018 137.6 126.251 137.824C126.484 138.039 126.825 138.146 127.273 138.146ZM128.939 138.16C128.575 138.767 127.912 139.07 126.951 139.07C126.288 139.07 125.752 138.874 125.341 138.482C124.94 138.09 124.739 137.595 124.739 136.998C124.739 136.317 124.996 135.789 125.509 135.416C126.032 135.033 126.741 134.842 127.637 134.842H128.925V134.478C128.925 133.918 128.799 133.498 128.547 133.218C128.295 132.929 127.87 132.784 127.273 132.784C126.517 132.784 125.845 132.985 125.257 133.386V132.28C125.789 131.953 126.489 131.79 127.357 131.79C129.14 131.79 130.031 132.695 130.031 134.506V139H128.939V138.16ZM132.722 135.528C132.722 136.293 132.908 136.914 133.282 137.39C133.655 137.866 134.126 138.104 134.696 138.104C135.274 138.104 135.764 137.889 136.166 137.46C136.576 137.031 136.782 136.345 136.782 135.402C136.782 134.506 136.572 133.848 136.152 133.428C135.732 133.008 135.27 132.798 134.766 132.798C134.178 132.798 133.688 133.036 133.296 133.512C132.913 133.979 132.722 134.651 132.722 135.528ZM137.888 139H136.782V137.95C136.278 138.725 135.55 139.112 134.598 139.112C133.655 139.112 132.913 138.762 132.372 138.062C131.84 137.362 131.574 136.513 131.574 135.514C131.574 134.403 131.858 133.507 132.428 132.826C132.997 132.135 133.73 131.79 134.626 131.79C135.55 131.79 136.268 132.187 136.782 132.98V129.102H137.888V139ZM141.099 139H139.993V131.902H141.099V139ZM141.057 129.158C141.197 129.298 141.267 129.471 141.267 129.676C141.267 129.881 141.197 130.054 141.057 130.194C140.917 130.325 140.744 130.39 140.539 130.39C140.334 130.39 140.161 130.325 140.021 130.194C139.89 130.054 139.825 129.881 139.825 129.676C139.825 129.471 139.89 129.298 140.021 129.158C140.161 129.018 140.334 128.948 140.539 128.948C140.744 128.948 140.917 129.018 141.057 129.158Z" fill="black"/>
<path d="M110.399 32.4414V12.8257H76.3988V32.4414C76.3988 33.2747 77.1599 33.9503 78.0988 33.9503H108.699C109.638 33.9503 110.399 33.2747 110.399 32.4414Z" fill="#289BC3"/>
<path d="M86.6013 29.4235H83.2013C80.3846 29.4235 78.1013 31.4501 78.1013 33.9502C78.1013 36.4502 80.3846 38.4768 83.2013 38.4768H86.6013C89.4179 38.4768 91.7012 36.4502 91.7012 33.9502C91.7012 31.4501 89.4179 29.4235 86.6013 29.4235Z" fill="#32283C"/>
<path d="M117.199 29.4235H113.799C110.982 29.4235 108.699 31.4501 108.699 33.9502C108.699 36.4502 110.982 38.4768 113.799 38.4768H117.199C120.015 38.4768 122.299 36.4502 122.299 33.9502C122.299 31.4501 120.015 29.4235 117.199 29.4235Z" fill="#32283C"/>
<path d="M113.799 38.4768C116.615 38.4768 118.899 36.4502 118.899 33.9502C118.899 31.4501 116.615 29.4235 113.799 29.4235C110.982 29.4235 108.699 31.4501 108.699 33.9502C108.699 36.4502 110.982 38.4768 113.799 38.4768Z" fill="#555A6E"/>
<path d="M113.798 35.4591C114.737 35.4591 115.498 34.7835 115.498 33.9502C115.498 33.1168 114.737 32.4413 113.798 32.4413C112.859 32.4413 112.098 33.1168 112.098 33.9502C112.098 34.7835 112.859 35.4591 113.798 35.4591Z" fill="#E6E6EB"/>
<path d="M103.601 29.4235H100.201C97.3843 29.4235 95.101 31.4501 95.101 33.9502C95.101 36.4502 97.3843 38.4768 100.201 38.4768H103.601C106.418 38.4768 108.701 36.4502 108.701 33.9502C108.701 31.4501 106.418 29.4235 103.601 29.4235Z" fill="#32283C"/>
<path d="M120.602 14.3346H95.1023C94.1634 14.3346 93.4023 15.0101 93.4023 15.8435V17.3524H120.602C121.541 17.3524 122.302 16.6769 122.302 15.8435C122.302 15.0101 121.541 14.3346 120.602 14.3346Z" fill="#A5C3DC"/>
<path d="M103.602 14.3346H95.1023C94.1634 14.3346 93.4023 15.0101 93.4023 15.8435V17.3524H103.602C104.541 17.3524 105.302 16.6769 105.302 15.8435C105.302 15.0101 104.541 14.3346 103.602 14.3346Z" fill="#D7E6F0"/>
<path d="M93.4023 17.3523H120.602V24.8968H93.4023V17.3523Z" fill="#463C4B"/>
<path d="M93.4023 17.3523H103.602V24.8968H93.4023V17.3523Z" fill="#555A6E"/>
<path d="M122.302 33.9501H95.1023C94.1634 33.9501 93.4023 33.2746 93.4023 32.4412V24.8967H120.602C122.48 24.8967 124.002 26.2479 124.002 27.9145V32.4412C124.002 33.2746 123.241 33.9501 122.302 33.9501Z" fill="#A5C3DC"/>
<path d="M105.302 33.9501H95.1023C94.1634 33.9501 93.4023 33.2746 93.4023 32.4412V24.8967H103.602C105.48 24.8967 107.002 26.2479 107.002 27.9145V32.4412C107.002 33.2746 106.241 33.9501 105.302 33.9501Z" fill="#D7E6F0"/>
<path d="M111.107 27.9146H119.891C121.221 27.9146 122.299 28.8716 122.299 30.0522C122.299 31.2327 121.221 32.1898 119.891 32.1898H111.107C109.777 32.1898 108.699 31.2328 108.699 30.0522C108.699 28.8716 109.777 27.9146 111.107 27.9146Z" fill="#555A6E"/>
<path d="M111.111 31.1839C111.815 31.1839 112.386 30.6772 112.386 30.0522C112.386 29.4272 111.815 28.9205 111.111 28.9205C110.407 28.9205 109.836 29.4272 109.836 30.0522C109.836 30.6772 110.407 31.1839 111.111 31.1839Z" fill="#00D2D2"/>
<path d="M119.888 31.1839C120.592 31.1839 121.163 30.6772 121.163 30.0522C121.163 29.4272 120.592 28.9205 119.888 28.9205C119.184 28.9205 118.613 29.4272 118.613 30.0522C118.613 30.6772 119.184 31.1839 119.888 31.1839Z" fill="#00D2D2"/>
<path d="M89.1493 0H84.0494C83.58 0 83.1994 0.337804 83.1994 0.754449C83.1994 1.17109 83.58 1.5089 84.0494 1.5089C87.3301 1.5089 89.9993 3.87806 89.9993 6.79004C89.9993 7.20668 90.3799 7.54449 90.8493 7.54449H95.9493C96.4187 7.54449 96.7993 7.20668 96.7993 6.79004C96.7993 3.04599 93.3675 0 89.1493 0Z" fill="#A5C3DC"/>
<path d="M102.749 0H97.6495C93.4313 0 89.9995 3.04599 89.9995 6.79004C89.9995 7.20668 90.3801 7.54449 90.8495 7.54449H95.9495C96.4189 7.54449 96.7995 7.20668 96.7995 6.79004C96.7995 3.87806 99.4687 1.5089 102.749 1.5089C103.219 1.5089 103.599 1.17109 103.599 0.754449C103.599 0.337804 103.219 0 102.749 0Z" fill="#A5C3DC"/>
<path d="M106.15 0H101.05C100.58 0 100.2 0.337804 100.2 0.754449C100.2 1.17109 100.58 1.5089 101.05 1.5089C102.456 1.5089 103.6 2.5242 103.6 3.77224C103.6 5.02029 102.456 6.03559 101.05 6.03559C100.58 6.03559 100.2 6.3734 100.2 6.79004C100.2 7.20668 100.58 7.54449 101.05 7.54449H106.15C108.493 7.54449 110.4 5.85226 110.4 3.77224C110.4 1.69223 108.493 0 106.15 0Z" fill="#A5C3DC"/>
<path d="M85.7488 6.03559C84.3427 6.03559 83.1988 5.02029 83.1988 3.77224C83.1988 2.5242 84.3427 1.5089 85.7488 1.5089C86.2182 1.5089 86.5988 1.17109 86.5988 0.754449C86.5988 0.337804 86.2182 0 85.7488 0H80.6488C78.3054 0 76.3988 1.69223 76.3988 3.77224C76.3988 5.85226 78.3054 7.54449 80.6488 7.54449H85.7488C86.2182 7.54449 86.5988 7.20668 86.5988 6.79004C86.5988 6.3734 86.2182 6.03559 85.7488 6.03559Z" fill="#A5C3DC"/>
<path d="M112.1 7.54456H74.7C73.7611 7.54456 73 8.22007 73 9.05345V11.3168C73 12.1502 73.7611 12.8257 74.7 12.8257H112.1C113.039 12.8257 113.8 12.1502 113.8 11.3168V9.05345C113.8 8.22007 113.039 7.54456 112.1 7.54456Z" fill="#289BC3"/>
<path d="M91.6988 33.9502H78.0988C77.1599 33.9502 76.3988 33.2747 76.3988 32.4413V17.3523H93.3987V32.4413C93.3987 33.2747 92.6377 33.9502 91.6988 33.9502Z" fill="#00D2D2"/>
<path d="M93.3999 7.54456H74.7C73.7611 7.54456 73 8.22007 73 9.05345V11.3168C73 12.1502 73.7611 12.8257 74.7 12.8257H93.3999C94.3388 12.8257 95.0999 12.1502 95.0999 11.3168V9.05345C95.0999 8.22007 94.3388 7.54456 93.3999 7.54456Z" fill="#00D2D2"/>
<path d="M84.8977 11.3167C84.8977 12.1501 85.6587 12.8256 86.5977 12.8256H81.4977C80.5588 12.8256 79.7977 12.1501 79.7977 11.3167V9.05333C79.7977 8.21995 80.5588 7.54443 81.4977 7.54443H86.5977C85.6587 7.54443 84.8977 8.21995 84.8977 9.05333V11.3167Z" fill="#D7E6F0"/>
<path d="M101.903 11.3168C101.903 12.1502 101.142 12.8257 100.203 12.8257H105.303C106.242 12.8257 107.003 12.1502 107.003 11.3168V9.05345C107.003 8.22007 106.242 7.54456 105.303 7.54456H100.203C101.142 7.54456 101.903 8.22007 101.903 9.05345V11.3168Z" fill="#A5C3DC"/>
<path d="M101.053 7.54449H90.0031V6.79004C90.0031 3.04599 93.4348 0 97.653 0H101.053C103.396 0 105.303 1.69223 105.303 3.77224C105.303 5.85226 103.396 7.54449 101.053 7.54449ZM91.7636 6.03559H101.053C102.459 6.03559 103.603 5.02029 103.603 3.77224C103.603 2.5242 102.459 1.5089 101.053 1.5089H97.653C94.6607 1.5089 92.1772 3.47961 91.7636 6.03559Z" fill="#D7E6F0"/>
<path d="M91.6988 7.54449H80.6488C78.3054 7.54449 76.3988 5.85226 76.3988 3.77224C76.3988 1.69223 78.3054 0 80.6488 0H84.0488C88.267 0 91.6988 3.04599 91.6988 6.79004V7.54449ZM80.6488 1.5089C79.2427 1.5089 78.0988 2.5242 78.0988 3.77224C78.0988 5.02029 79.2427 6.03559 80.6488 6.03559H89.9382C89.5245 3.47961 87.041 1.5089 84.0488 1.5089H80.6488Z" fill="#D7E6F0"/>
<path d="M100.201 38.4768C103.018 38.4768 105.301 36.4502 105.301 33.9502C105.301 31.4501 103.018 29.4235 100.201 29.4235C97.3843 29.4235 95.101 31.4501 95.101 33.9502C95.101 36.4502 97.3843 38.4768 100.201 38.4768Z" fill="#555A6E"/>
<path d="M100.2 35.4591C101.139 35.4591 101.9 34.7835 101.9 33.9502C101.9 33.1168 101.139 32.4413 100.2 32.4413C99.261 32.4413 98.4999 33.1168 98.4999 33.9502C98.4999 34.7835 99.261 35.4591 100.2 35.4591Z" fill="#E6E6EB"/>
<path d="M83.2013 38.4768C86.0179 38.4768 88.3013 36.4502 88.3013 33.9502C88.3013 31.4501 86.0179 29.4235 83.2013 29.4235C80.3847 29.4235 78.1013 31.4501 78.1013 33.9502C78.1013 36.4502 80.3847 38.4768 83.2013 38.4768Z" fill="#555A6E"/>
<path d="M83.1967 35.4591C84.1355 35.4591 84.8967 34.7835 84.8967 33.9502C84.8967 33.1168 84.1355 32.4413 83.1967 32.4413C82.2578 32.4413 81.4967 33.1168 81.4967 33.9502C81.4967 34.7835 82.2578 35.4591 83.1967 35.4591Z" fill="#E6E6EB"/>
</svg>
