<svg width="250" height="200" viewBox="0 0 250 200" fill="none" xmlns="http://www.w3.org/2000/svg">
<rect width="250" height="200" rx="7" fill="white"/>
<rect x="0.5" y="0.5" width="249" height="199" rx="6.5" stroke="black" stroke-opacity="0.03"/>
<path d="M81.48 119H78.96V114.08L74.36 105.52H77.3L78.2 107.48C78.72 108.613 79.1467 109.567 79.48 110.34C79.8133 111.1 80.0133 111.573 80.08 111.76L80.2 112.06C80.32 111.567 81.0067 110.04 82.26 107.48L83.18 105.52H86.12L81.48 114V119ZM96.4805 119H94.0605V117.34C93.5271 118.513 92.4871 119.1 90.9405 119.1C89.9138 119.1 89.1138 118.807 88.5405 118.22C87.9671 117.633 87.6805 116.8 87.6805 115.72V108.86H90.0805V115.16C90.0805 115.8 90.2338 116.287 90.5405 116.62C90.8605 116.953 91.2938 117.12 91.8405 117.12C92.5338 117.12 93.0738 116.887 93.4605 116.42C93.8605 115.953 94.0605 115.247 94.0605 114.3V108.86H96.4805V119ZM101.709 111.62C101.242 112.18 101.009 112.947 101.009 113.92C101.009 114.893 101.242 115.667 101.709 116.24C102.189 116.8 102.782 117.08 103.489 117.08C104.169 117.08 104.749 116.8 105.229 116.24C105.722 115.68 105.969 114.887 105.969 113.86C105.969 112.833 105.716 112.06 105.209 111.54C104.716 111.02 104.122 110.76 103.429 110.76C102.749 110.76 102.176 111.047 101.709 111.62ZM108.369 122.82H105.969V117.44C105.276 118.573 104.256 119.14 102.909 119.14C101.576 119.14 100.516 118.647 99.7291 117.66C98.9424 116.66 98.5491 115.4 98.5491 113.88C98.5491 112.333 98.9424 111.087 99.7291 110.14C100.529 109.193 101.589 108.72 102.909 108.72C104.229 108.72 105.249 109.287 105.969 110.42V108.86H108.369V122.82ZM120.204 113.9C120.204 115.433 119.771 116.693 118.904 117.68C118.051 118.667 116.851 119.16 115.304 119.16C113.771 119.16 112.571 118.68 111.704 117.72C110.851 116.76 110.424 115.533 110.424 114.04C110.424 112.493 110.871 111.22 111.764 110.22C112.657 109.207 113.837 108.7 115.304 108.7C116.864 108.7 118.071 109.193 118.924 110.18C119.777 111.153 120.204 112.393 120.204 113.9ZM112.944 113.96C112.944 114.893 113.151 115.673 113.564 116.3C113.977 116.927 114.564 117.24 115.324 117.24C116.111 117.24 116.704 116.933 117.104 116.32C117.504 115.707 117.704 114.927 117.704 113.98C117.704 113.007 117.511 112.213 117.124 111.6C116.737 110.973 116.131 110.66 115.304 110.66C114.544 110.66 113.957 110.973 113.544 111.6C113.144 112.227 112.944 113.013 112.944 113.96ZM124.673 119H122.253L122.273 108.86H124.673V110.66C125.139 109.407 125.993 108.78 127.233 108.78C127.513 108.78 127.739 108.8 127.913 108.84V111.16C127.606 111.027 127.266 110.96 126.893 110.96C126.239 110.96 125.706 111.227 125.293 111.76C124.879 112.293 124.673 112.96 124.673 113.76V119ZM131.823 119H129.423V108.86H131.823V119ZM132.063 105.82C132.063 106.233 131.923 106.58 131.643 106.86C131.363 107.14 131.023 107.28 130.623 107.28C130.223 107.28 129.883 107.14 129.603 106.86C129.323 106.58 129.183 106.233 129.183 105.82C129.183 105.42 129.323 105.08 129.603 104.8C129.883 104.52 130.223 104.38 130.623 104.38C131.023 104.38 131.363 104.52 131.643 104.8C131.923 105.08 132.063 105.42 132.063 105.82ZM146.1 116.08C146.1 117.027 145.76 117.767 145.08 118.3C144.4 118.833 143.493 119.1 142.36 119.1C141.106 119.1 140.093 118.893 139.32 118.48V116.28C140.213 116.88 141.18 117.18 142.22 117.18C142.66 117.18 143 117.1 143.24 116.94C143.493 116.767 143.62 116.533 143.62 116.24C143.62 116.067 143.58 115.913 143.5 115.78C143.42 115.633 143.266 115.493 143.04 115.36C142.813 115.227 142.633 115.133 142.5 115.08C142.38 115.013 142.133 114.9 141.76 114.74C141.72 114.727 141.686 114.713 141.66 114.7C141.646 114.687 141.62 114.673 141.58 114.66C141.54 114.647 141.506 114.633 141.48 114.62C140 113.953 139.26 112.993 139.26 111.74C139.26 110.807 139.613 110.073 140.32 109.54C141.026 109.007 141.913 108.74 142.98 108.74C144.006 108.74 144.86 108.887 145.54 109.18V111.3C144.873 110.9 144.04 110.7 143.04 110.7C142.626 110.7 142.3 110.793 142.06 110.98C141.833 111.153 141.72 111.38 141.72 111.66C141.72 111.767 141.733 111.867 141.76 111.96C141.8 112.053 141.86 112.147 141.94 112.24C142.033 112.32 142.12 112.393 142.2 112.46C142.28 112.527 142.393 112.6 142.54 112.68C142.686 112.747 142.813 112.807 142.92 112.86C143.026 112.913 143.173 112.98 143.36 113.06C143.546 113.14 143.693 113.207 143.8 113.26C144.506 113.607 145.066 113.993 145.48 114.42C145.893 114.847 146.1 115.4 146.1 116.08ZM150.515 119H148.115V108.86H150.515V119ZM150.755 105.82C150.755 106.233 150.615 106.58 150.335 106.86C150.055 107.14 149.715 107.28 149.315 107.28C148.915 107.28 148.575 107.14 148.295 106.86C148.015 106.58 147.875 106.233 147.875 105.82C147.875 105.42 148.015 105.08 148.295 104.8C148.575 104.52 148.915 104.38 149.315 104.38C149.715 104.38 150.055 104.52 150.335 104.8C150.615 105.08 150.755 105.42 150.755 105.82ZM158.41 110.66H156.39V119H153.99V110.66H152.51V108.86H153.99V108.26C153.99 107.127 154.303 106.24 154.93 105.6C155.557 104.96 156.423 104.64 157.53 104.64C158.037 104.64 158.477 104.7 158.85 104.82V106.84C158.503 106.707 158.17 106.64 157.85 106.64C156.877 106.64 156.39 107.187 156.39 108.28V108.86H158.41V110.66ZM163.487 117.3C164.02 117.3 164.434 117.147 164.727 116.84C165.034 116.52 165.187 116.107 165.187 115.6V114.64H163.947C163.32 114.64 162.84 114.773 162.507 115.04C162.174 115.293 162.007 115.62 162.007 116.02C162.007 116.873 162.5 117.3 163.487 117.3ZM165.287 117.78C164.82 118.647 163.94 119.08 162.647 119.08C161.687 119.08 160.92 118.8 160.347 118.24C159.787 117.68 159.507 116.973 159.507 116.12C159.507 115.16 159.867 114.407 160.587 113.86C161.307 113.313 162.347 113.04 163.707 113.04H165.187V112.42C165.187 111.86 165.04 111.433 164.747 111.14C164.454 110.847 163.954 110.7 163.247 110.7C162.167 110.7 161.174 111 160.267 111.6V109.38C161.027 108.913 162.12 108.68 163.547 108.68C166.294 108.68 167.667 109.96 167.667 112.52V119H165.287V117.78ZM175.744 118.76C175.277 118.987 174.677 119.1 173.944 119.1C171.757 119.1 170.664 117.993 170.664 115.78V110.66H169.144V108.86H170.664V106.42H173.064V108.86H175.584V110.66H173.064V115.82C173.064 116.247 173.177 116.573 173.404 116.8C173.63 117.013 173.944 117.12 174.344 117.12C174.85 117.12 175.317 116.98 175.744 116.7V118.76Z" fill="black"/>
<path opacity="0.6" d="M47.185 146.898H43.629V151H42.495V141.564H47.675V142.558H43.629V145.904H47.185V146.898ZM55.5326 147.472C55.5326 148.527 55.2339 149.399 54.6366 150.09C54.0393 150.781 53.2179 151.126 52.1726 151.126C51.1553 151.126 50.3479 150.785 49.7506 150.104C49.1626 149.413 48.8686 148.545 48.8686 147.5C48.8686 146.445 49.1719 145.568 49.7786 144.868C50.3946 144.159 51.1926 143.804 52.1726 143.804C53.2459 143.804 54.0719 144.149 54.6506 144.84C55.2386 145.531 55.5326 146.408 55.5326 147.472ZM50.0166 147.486C50.0166 148.223 50.2126 148.853 50.6046 149.376C50.9966 149.889 51.5193 150.146 52.1726 150.146C52.8819 150.146 53.4279 149.894 53.8106 149.39C54.1933 148.877 54.3846 148.242 54.3846 147.486C54.3846 146.702 54.2026 146.058 53.8386 145.554C53.4746 145.041 52.9193 144.784 52.1726 144.784C51.5006 144.784 50.9733 145.045 50.5906 145.568C50.2079 146.091 50.0166 146.73 50.0166 147.486ZM60.2299 150.818C59.8659 151.779 59.4319 152.456 58.9279 152.848C58.4333 153.24 57.8639 153.436 57.2199 153.436C56.9773 153.436 56.7813 153.413 56.6319 153.366V152.372C56.7719 152.409 56.9306 152.428 57.1079 152.428C58.0506 152.428 58.7179 151.891 59.1099 150.818L56.2399 143.902H57.4859L58.4099 146.24L59.6559 149.46C59.7306 149.217 60.1039 148.144 60.7759 146.24L61.6019 143.902H62.7919L60.2299 150.818ZM64.7822 147.528C64.7822 148.293 64.9689 148.914 65.3422 149.39C65.7156 149.866 66.1869 150.104 66.7562 150.104C67.3349 150.104 67.8249 149.889 68.2262 149.46C68.6369 149.031 68.8422 148.345 68.8422 147.402C68.8422 146.506 68.6322 145.848 68.2122 145.428C67.7922 145.008 67.3302 144.798 66.8262 144.798C66.2382 144.798 65.7482 145.036 65.3562 145.512C64.9736 145.979 64.7822 146.651 64.7822 147.528ZM69.9482 151H68.8422V149.95C68.3382 150.725 67.6102 151.112 66.6582 151.112C65.7156 151.112 64.9736 150.762 64.4322 150.062C63.9002 149.362 63.6342 148.513 63.6342 147.514C63.6342 146.403 63.9189 145.507 64.4882 144.826C65.0576 144.135 65.7902 143.79 66.6862 143.79C67.6102 143.79 68.3289 144.187 68.8422 144.98V141.102H69.9482V151ZM74.1676 150.146C74.6716 150.146 75.0729 150.006 75.3716 149.726C75.6703 149.437 75.8196 149.073 75.8196 148.634V147.724H74.5876C73.9903 147.724 73.5423 147.841 73.2436 148.074C72.9449 148.307 72.7956 148.601 72.7956 148.956C72.7956 149.311 72.9123 149.6 73.1456 149.824C73.3789 150.039 73.7196 150.146 74.1676 150.146ZM75.8336 150.16C75.4696 150.767 74.8069 151.07 73.8456 151.07C73.1829 151.07 72.6463 150.874 72.2356 150.482C71.8343 150.09 71.6336 149.595 71.6336 148.998C71.6336 148.317 71.8903 147.789 72.4036 147.416C72.9263 147.033 73.6356 146.842 74.5316 146.842H75.8196V146.478C75.8196 145.918 75.6936 145.498 75.4416 145.218C75.1896 144.929 74.7649 144.784 74.1676 144.784C73.4116 144.784 72.7396 144.985 72.1516 145.386V144.28C72.6836 143.953 73.3836 143.79 74.2516 143.79C76.0343 143.79 76.9256 144.695 76.9256 146.506V151H75.8336V150.16ZM80.0502 151H78.9442V141.102H80.0502V151ZM84.3258 150.146C84.8298 150.146 85.2311 150.006 85.5298 149.726C85.8285 149.437 85.9778 149.073 85.9778 148.634V147.724H84.7458C84.1485 147.724 83.7005 147.841 83.4018 148.074C83.1031 148.307 82.9538 148.601 82.9538 148.956C82.9538 149.311 83.0705 149.6 83.3038 149.824C83.5371 150.039 83.8778 150.146 84.3258 150.146ZM85.9918 150.16C85.6278 150.767 84.9651 151.07 84.0038 151.07C83.3411 151.07 82.8045 150.874 82.3938 150.482C81.9925 150.09 81.7918 149.595 81.7918 148.998C81.7918 148.317 82.0485 147.789 82.5618 147.416C83.0845 147.033 83.7938 146.842 84.6898 146.842H85.9778V146.478C85.9778 145.918 85.8518 145.498 85.5998 145.218C85.3478 144.929 84.9231 144.784 84.3258 144.784C83.5698 144.784 82.8978 144.985 82.3098 145.386V144.28C82.8418 143.953 83.5418 143.79 84.4098 143.79C86.1925 143.79 87.0838 144.695 87.0838 146.506V151H85.9918V150.16ZM94.6464 151H93.5404V146.408C93.5404 145.885 93.4051 145.489 93.1344 145.218C92.8731 144.938 92.5277 144.798 92.0984 144.798C91.5664 144.798 91.1044 145.003 90.7124 145.414C90.3297 145.825 90.1384 146.394 90.1384 147.122V151H89.0464V143.902H90.1384V145.134C90.5584 144.247 91.3051 143.804 92.3784 143.804C93.0691 143.804 93.6197 144.014 94.0304 144.434C94.4411 144.854 94.6464 145.414 94.6464 146.114V151ZM102.123 151H101.017V149.768C100.644 150.645 99.9016 151.084 98.791 151.084C98.091 151.084 97.5356 150.879 97.125 150.468C96.7236 150.048 96.523 149.488 96.523 148.788V143.902H97.629V148.508C97.629 149.021 97.7596 149.413 98.021 149.684C98.2823 149.955 98.637 150.09 99.085 150.09C99.673 150.09 100.14 149.885 100.485 149.474C100.84 149.063 101.017 148.508 101.017 147.808V143.902H102.123V151ZM107.332 151H105.974L103.496 143.902H104.644L105.624 146.898L106.66 150.132C106.744 149.731 107.094 148.653 107.71 146.898L108.718 143.902H109.866L107.332 151ZM116.122 150.748C115.674 151.019 115.123 151.154 114.47 151.154C113.35 151.154 112.459 150.799 111.796 150.09C111.143 149.371 110.816 148.499 110.816 147.472C110.816 146.464 111.143 145.596 111.796 144.868C112.459 144.14 113.359 143.776 114.498 143.776C115.105 143.776 115.646 143.907 116.122 144.168V145.218C115.693 144.929 115.189 144.784 114.61 144.784C113.807 144.784 113.163 145.045 112.678 145.568C112.202 146.081 111.964 146.721 111.964 147.486C111.973 148.251 112.207 148.891 112.664 149.404C113.121 149.908 113.77 150.16 114.61 150.16C115.151 150.16 115.655 150.006 116.122 149.698V150.748ZM123.426 151H122.32V146.408C122.32 145.895 122.184 145.498 121.914 145.218C121.652 144.938 121.307 144.798 120.878 144.798C120.355 144.798 119.898 144.999 119.506 145.4C119.114 145.801 118.918 146.375 118.918 147.122V151H117.826V141.102H118.918V145.134C119.338 144.247 120.084 143.804 121.158 143.804C121.839 143.804 122.385 144.014 122.796 144.434C123.216 144.854 123.426 145.423 123.426 146.142V151ZM126.548 151H125.442V143.902H126.548V151ZM126.506 141.158C126.646 141.298 126.716 141.471 126.716 141.676C126.716 141.881 126.646 142.054 126.506 142.194C126.366 142.325 126.194 142.39 125.988 142.39C125.783 142.39 125.61 142.325 125.47 142.194C125.34 142.054 125.274 141.881 125.274 141.676C125.274 141.471 125.34 141.298 125.47 141.158C125.61 141.018 125.783 140.948 125.988 140.948C126.194 140.948 126.366 141.018 126.506 141.158ZM129.816 151H128.71V141.102H129.816V151ZM134.091 150.146C134.595 150.146 134.997 150.006 135.295 149.726C135.594 149.437 135.743 149.073 135.743 148.634V147.724H134.511C133.914 147.724 133.466 147.841 133.167 148.074C132.869 148.307 132.719 148.601 132.719 148.956C132.719 149.311 132.836 149.6 133.069 149.824C133.303 150.039 133.643 150.146 134.091 150.146ZM135.757 150.16C135.393 150.767 134.731 151.07 133.769 151.07C133.107 151.07 132.57 150.874 132.159 150.482C131.758 150.09 131.557 149.595 131.557 148.998C131.557 148.317 131.814 147.789 132.327 147.416C132.85 147.033 133.559 146.842 134.455 146.842H135.743V146.478C135.743 145.918 135.617 145.498 135.365 145.218C135.113 144.929 134.689 144.784 134.091 144.784C133.335 144.784 132.663 144.985 132.075 145.386V144.28C132.607 143.953 133.307 143.79 134.175 143.79C135.958 143.79 136.849 144.695 136.849 146.506V151H135.757V150.16ZM139.904 151H138.798L138.812 143.902H139.904V145.148C140.277 144.271 140.921 143.832 141.836 143.832C142.004 143.832 142.135 143.841 142.228 143.86V144.952C142.032 144.887 141.831 144.854 141.626 144.854C141.131 144.854 140.721 145.083 140.394 145.54C140.067 145.997 139.904 146.525 139.904 147.122V151ZM152.312 151H151.206V149.768C150.833 150.645 150.091 151.084 148.98 151.084C148.28 151.084 147.725 150.879 147.314 150.468C146.913 150.048 146.712 149.488 146.712 148.788V143.902H147.818V148.508C147.818 149.021 147.949 149.413 148.21 149.684C148.472 149.955 148.826 150.09 149.274 150.09C149.862 150.09 150.329 149.885 150.674 149.474C151.029 149.063 151.206 148.508 151.206 147.808V143.902H152.312V151ZM159.243 150.748C158.795 151.019 158.244 151.154 157.591 151.154C156.471 151.154 155.58 150.799 154.917 150.09C154.264 149.371 153.937 148.499 153.937 147.472C153.937 146.464 154.264 145.596 154.917 144.868C155.58 144.14 156.48 143.776 157.619 143.776C158.226 143.776 158.767 143.907 159.243 144.168V145.218C158.814 144.929 158.31 144.784 157.731 144.784C156.928 144.784 156.284 145.045 155.799 145.568C155.323 146.081 155.085 146.721 155.085 147.486C155.094 148.251 155.328 148.891 155.785 149.404C156.242 149.908 156.891 150.16 157.731 150.16C158.272 150.16 158.776 150.006 159.243 149.698V150.748ZM166.547 151H165.441V146.408C165.441 145.895 165.305 145.498 165.035 145.218C164.773 144.938 164.428 144.798 163.999 144.798C163.476 144.798 163.019 144.999 162.627 145.4C162.235 145.801 162.039 146.375 162.039 147.122V151H160.947V141.102H162.039V145.134C162.459 144.247 163.205 143.804 164.279 143.804C164.96 143.804 165.506 144.014 165.917 144.434C166.337 144.854 166.547 145.423 166.547 146.142V151ZM174.023 151H172.917V149.768C172.544 150.645 171.802 151.084 170.691 151.084C169.991 151.084 169.436 150.879 169.025 150.468C168.624 150.048 168.423 149.488 168.423 148.788V143.902H169.529V148.508C169.529 149.021 169.66 149.413 169.921 149.684C170.183 149.955 170.537 150.09 170.985 150.09C171.573 150.09 172.04 149.885 172.385 149.474C172.74 149.063 172.917 148.508 172.917 147.808V143.902H174.023V151ZM181.668 151H180.562V146.408C180.562 145.885 180.427 145.489 180.156 145.218C179.895 144.938 179.549 144.798 179.12 144.798C178.588 144.798 178.126 145.003 177.734 145.414C177.351 145.825 177.16 146.394 177.16 147.122V151H176.068V143.902H177.16V145.134C177.58 144.247 178.327 143.804 179.4 143.804C180.091 143.804 180.641 144.014 181.052 144.434C181.463 144.854 181.668 145.414 181.668 146.114V151ZM192.226 150.636C191.676 150.925 191.004 151.07 190.21 151.07C189.137 151.07 188.269 150.743 187.606 150.09C186.953 149.427 186.626 148.555 186.626 147.472C186.626 146.343 186.92 145.451 187.508 144.798C188.096 144.145 188.852 143.818 189.776 143.818C190.663 143.818 191.368 144.103 191.89 144.672C192.413 145.241 192.674 146.049 192.674 147.094C192.674 147.393 192.651 147.668 192.604 147.92H187.76C187.844 148.62 188.11 149.157 188.558 149.53C189.006 149.903 189.594 150.09 190.322 150.09C191.116 150.09 191.75 149.927 192.226 149.6V150.636ZM189.776 144.784C189.244 144.784 188.792 144.975 188.418 145.358C188.045 145.741 187.826 146.287 187.76 146.996H191.568V146.716C191.568 146.128 191.41 145.661 191.092 145.316C190.775 144.961 190.336 144.784 189.776 144.784ZM199.961 151H198.855V146.408C198.855 145.885 198.72 145.489 198.449 145.218C198.188 144.938 197.842 144.798 197.413 144.798C196.881 144.798 196.419 145.003 196.027 145.414C195.644 145.825 195.453 146.394 195.453 147.122V151H194.361V143.902H195.453V145.134C195.873 144.247 196.62 143.804 197.693 143.804C198.384 143.804 198.934 144.014 199.345 144.434C199.756 144.854 199.961 145.414 199.961 146.114V151ZM207.647 150.426C207.647 151.509 207.349 152.321 206.751 152.862C206.154 153.413 205.384 153.688 204.441 153.688C203.583 153.688 202.85 153.543 202.243 153.254V152.148C202.841 152.493 203.541 152.666 204.343 152.666C205.025 152.666 205.561 152.484 205.953 152.12C206.345 151.756 206.541 151.187 206.541 150.412V149.614C206.075 150.417 205.379 150.818 204.455 150.818C203.643 150.818 202.948 150.519 202.369 149.922C201.8 149.325 201.515 148.494 201.515 147.43C201.515 146.375 201.781 145.507 202.313 144.826C202.845 144.145 203.541 143.804 204.399 143.804C205.37 143.804 206.084 144.229 206.541 145.078V143.902H207.647V150.426ZM202.663 147.402C202.663 148.195 202.859 148.802 203.251 149.222C203.643 149.633 204.087 149.838 204.581 149.838C205.095 149.838 205.547 149.642 205.939 149.25C206.341 148.849 206.541 148.256 206.541 147.472C206.541 146.567 206.35 145.895 205.967 145.456C205.585 145.017 205.141 144.798 204.637 144.798C204.031 144.798 203.55 145.041 203.195 145.526C202.841 146.002 202.663 146.627 202.663 147.402ZM47.9053 168.11C47.9053 168.717 47.6906 169.197 47.2613 169.552C46.8413 169.907 46.2626 170.084 45.5253 170.084C44.6666 170.084 43.9713 169.939 43.4393 169.65V168.572C44.0646 168.945 44.7366 169.132 45.4553 169.132C45.8846 169.132 46.2113 169.048 46.4353 168.88C46.6593 168.712 46.7713 168.483 46.7713 168.194C46.7713 167.858 46.6453 167.597 46.3933 167.41C46.1506 167.223 45.7399 167.013 45.1613 166.78C44.6293 166.575 44.1999 166.318 43.8733 166.01C43.5559 165.702 43.3973 165.287 43.3973 164.764C43.3973 164.176 43.6166 163.709 44.0553 163.364C44.5033 163.009 45.0586 162.832 45.7213 162.832C46.4586 162.832 47.0513 162.935 47.4993 163.14V164.19C47.0699 163.929 46.4819 163.798 45.7353 163.798C45.3619 163.798 45.0633 163.887 44.8393 164.064C44.6246 164.232 44.5173 164.451 44.5173 164.722C44.5173 164.89 44.5499 165.039 44.6153 165.17C44.6806 165.291 44.8066 165.413 44.9933 165.534C45.1893 165.655 45.3293 165.739 45.4133 165.786C45.5066 165.823 45.7026 165.907 46.0013 166.038C46.5986 166.281 47.0653 166.556 47.4013 166.864C47.7373 167.172 47.9053 167.587 47.9053 168.11ZM50.5668 170H49.4608V162.902H50.5668V170ZM50.5248 160.158C50.6648 160.298 50.7348 160.471 50.7348 160.676C50.7348 160.881 50.6648 161.054 50.5248 161.194C50.3848 161.325 50.2121 161.39 50.0068 161.39C49.8015 161.39 49.6288 161.325 49.4888 161.194C49.3581 161.054 49.2928 160.881 49.2928 160.676C49.2928 160.471 49.3581 160.298 49.4888 160.158C49.6288 160.018 49.8015 159.948 50.0068 159.948C50.2121 159.948 50.3848 160.018 50.5248 160.158ZM55.9624 163.798H54.3944V170H53.2884V163.798H52.0704V162.902H53.2884V162.244C53.2884 161.553 53.4704 161.007 53.8344 160.606C54.2077 160.205 54.7211 160.004 55.3744 160.004C55.5984 160.004 55.8271 160.037 56.0604 160.102V161.11C55.8364 161.035 55.6217 160.998 55.4164 160.998C55.1177 160.998 54.8704 161.101 54.6744 161.306C54.4877 161.511 54.3944 161.829 54.3944 162.258V162.902H55.9624V163.798ZM59.4498 169.146C59.9538 169.146 60.3551 169.006 60.6538 168.726C60.9525 168.437 61.1018 168.073 61.1018 167.634V166.724H59.8698C59.2725 166.724 58.8245 166.841 58.5258 167.074C58.2271 167.307 58.0778 167.601 58.0778 167.956C58.0778 168.311 58.1945 168.6 58.4278 168.824C58.6611 169.039 59.0018 169.146 59.4498 169.146ZM61.1158 169.16C60.7518 169.767 60.0891 170.07 59.1278 170.07C58.4651 170.07 57.9285 169.874 57.5178 169.482C57.1165 169.09 56.9158 168.595 56.9158 167.998C56.9158 167.317 57.1725 166.789 57.6858 166.416C58.2085 166.033 58.9178 165.842 59.8138 165.842H61.1018V165.478C61.1018 164.918 60.9758 164.498 60.7238 164.218C60.4718 163.929 60.0471 163.784 59.4498 163.784C58.6938 163.784 58.0218 163.985 57.4338 164.386V163.28C57.9658 162.953 58.6658 162.79 59.5338 162.79C61.3165 162.79 62.2078 163.695 62.2078 165.506V170H61.1158V169.16ZM67.7264 169.818C67.4184 169.986 67.0731 170.07 66.6904 170.07C65.2904 170.07 64.5904 169.356 64.5904 167.928V163.798H63.4564V162.902H64.5904V161.138H65.6964V162.902H67.6564V163.798H65.6964V167.956C65.6964 168.712 66.0511 169.09 66.7604 169.09C67.1244 169.09 67.4464 168.983 67.7264 168.768V169.818ZM70.5004 170H69.3944V160.102H70.5004V170ZM73.768 170H72.662V162.902H73.768V170ZM73.726 160.158C73.866 160.298 73.936 160.471 73.936 160.676C73.936 160.881 73.866 161.054 73.726 161.194C73.586 161.325 73.4133 161.39 73.208 161.39C73.0027 161.39 72.83 161.325 72.69 161.194C72.5593 161.054 72.494 160.881 72.494 160.676C72.494 160.471 72.5593 160.298 72.69 160.158C72.83 160.018 73.0027 159.948 73.208 159.948C73.4133 159.948 73.586 160.018 73.726 160.158ZM88.7835 170H87.6775V165.408C87.6775 164.335 87.2249 163.798 86.3195 163.798C85.8715 163.798 85.4702 164.003 85.1155 164.414C84.7609 164.815 84.5835 165.385 84.5835 166.122V170H83.4775V165.408C83.4775 164.335 83.0249 163.798 82.1195 163.798C81.6715 163.798 81.2702 164.003 80.9155 164.414C80.5609 164.815 80.3835 165.385 80.3835 166.122V170H79.2915V162.902H80.3835V164.05C80.7755 163.219 81.4429 162.804 82.3855 162.804C83.4775 162.804 84.1682 163.266 84.4575 164.19C84.6629 163.742 84.9475 163.401 85.3115 163.168C85.6849 162.925 86.1002 162.804 86.5575 162.804C87.2949 162.804 87.8502 163.014 88.2235 163.434C88.5969 163.854 88.7835 164.419 88.7835 165.128V170ZM92.9186 169.146C93.4226 169.146 93.8239 169.006 94.1226 168.726C94.4212 168.437 94.5706 168.073 94.5706 167.634V166.724H93.3386C92.7412 166.724 92.2932 166.841 91.9946 167.074C91.6959 167.307 91.5466 167.601 91.5466 167.956C91.5466 168.311 91.6632 168.6 91.8966 168.824C92.1299 169.039 92.4706 169.146 92.9186 169.146ZM94.5846 169.16C94.2206 169.767 93.5579 170.07 92.5966 170.07C91.9339 170.07 91.3972 169.874 90.9866 169.482C90.5852 169.09 90.3846 168.595 90.3846 167.998C90.3846 167.317 90.6412 166.789 91.1546 166.416C91.6772 166.033 92.3866 165.842 93.2826 165.842H94.5706V165.478C94.5706 164.918 94.4446 164.498 94.1926 164.218C93.9406 163.929 93.5159 163.784 92.9186 163.784C92.1626 163.784 91.4906 163.985 90.9026 164.386V163.28C91.4346 162.953 92.1346 162.79 93.0026 162.79C94.7852 162.79 95.6766 163.695 95.6766 165.506V170H94.5846V169.16ZM103.239 170H102.133V165.408C102.133 164.895 101.998 164.498 101.727 164.218C101.466 163.938 101.121 163.798 100.691 163.798C100.169 163.798 99.7112 163.999 99.3192 164.4C98.9272 164.801 98.7312 165.375 98.7312 166.122V170H97.6392V160.102H98.7312V164.134C99.1512 163.247 99.8979 162.804 100.971 162.804C101.653 162.804 102.199 163.014 102.609 163.434C103.029 163.854 103.239 164.423 103.239 165.142V170ZM109.47 168.11C109.47 168.717 109.255 169.197 108.826 169.552C108.406 169.907 107.827 170.084 107.09 170.084C106.231 170.084 105.536 169.939 105.004 169.65V168.572C105.629 168.945 106.301 169.132 107.02 169.132C107.449 169.132 107.776 169.048 108 168.88C108.224 168.712 108.336 168.483 108.336 168.194C108.336 167.858 108.21 167.597 107.958 167.41C107.715 167.223 107.304 167.013 106.726 166.78C106.194 166.575 105.764 166.318 105.438 166.01C105.12 165.702 104.962 165.287 104.962 164.764C104.962 164.176 105.181 163.709 105.62 163.364C106.068 163.009 106.623 162.832 107.286 162.832C108.023 162.832 108.616 162.935 109.064 163.14V164.19C108.634 163.929 108.046 163.798 107.3 163.798C106.926 163.798 106.628 163.887 106.404 164.064C106.189 164.232 106.082 164.451 106.082 164.722C106.082 164.89 106.114 165.039 106.18 165.17C106.245 165.291 106.371 165.413 106.558 165.534C106.754 165.655 106.894 165.739 106.978 165.786C107.071 165.823 107.267 165.907 107.566 166.038C108.163 166.281 108.63 166.556 108.966 166.864C109.302 167.172 109.47 167.587 109.47 168.11ZM116.485 170H115.379V168.768C115.006 169.645 114.264 170.084 113.153 170.084C112.453 170.084 111.898 169.879 111.487 169.468C111.086 169.048 110.885 168.488 110.885 167.788V162.902H111.991V167.508C111.991 168.021 112.122 168.413 112.383 168.684C112.645 168.955 112.999 169.09 113.447 169.09C114.035 169.09 114.502 168.885 114.847 168.474C115.202 168.063 115.379 167.508 115.379 166.808V162.902H116.485V170ZM119.692 170H118.586V160.102H119.692V170ZM128.041 166.472C128.041 167.527 127.743 168.399 127.145 169.09C126.548 169.781 125.727 170.126 124.681 170.126C123.664 170.126 122.857 169.785 122.259 169.104C121.671 168.413 121.377 167.545 121.377 166.5C121.377 165.445 121.681 164.568 122.287 163.868C122.903 163.159 123.701 162.804 124.681 162.804C125.755 162.804 126.581 163.149 127.159 163.84C127.747 164.531 128.041 165.408 128.041 166.472ZM122.525 166.486C122.525 167.223 122.721 167.853 123.113 168.376C123.505 168.889 124.028 169.146 124.681 169.146C125.391 169.146 125.937 168.894 126.319 168.39C126.702 167.877 126.893 167.242 126.893 166.486C126.893 165.702 126.711 165.058 126.347 164.554C125.983 164.041 125.428 163.784 124.681 163.784C124.009 163.784 123.482 164.045 123.099 164.568C122.717 165.091 122.525 165.73 122.525 166.486ZM133.215 169.818C132.907 169.986 132.561 170.07 132.179 170.07C130.779 170.07 130.079 169.356 130.079 167.928V163.798H128.945V162.902H130.079V161.138H131.185V162.902H133.145V163.798H131.185V167.956C131.185 168.712 131.539 169.09 132.249 169.09C132.613 169.09 132.935 168.983 133.215 168.768V169.818ZM135.989 170H134.883V160.102H135.989V170ZM140.264 169.146C140.768 169.146 141.17 169.006 141.468 168.726C141.767 168.437 141.916 168.073 141.916 167.634V166.724H140.684C140.087 166.724 139.639 166.841 139.34 167.074C139.042 167.307 138.892 167.601 138.892 167.956C138.892 168.311 139.009 168.6 139.242 168.824C139.476 169.039 139.816 169.146 140.264 169.146ZM141.93 169.16C141.566 169.767 140.904 170.07 139.942 170.07C139.28 170.07 138.743 169.874 138.332 169.482C137.931 169.09 137.73 168.595 137.73 167.998C137.73 167.317 137.987 166.789 138.5 166.416C139.023 166.033 139.732 165.842 140.628 165.842H141.916V165.478C141.916 164.918 141.79 164.498 141.538 164.218C141.286 163.929 140.862 163.784 140.264 163.784C139.508 163.784 138.836 163.985 138.248 164.386V163.28C138.78 162.953 139.48 162.79 140.348 162.79C142.131 162.79 143.022 163.695 143.022 165.506V170H141.93V169.16ZM146.077 170H144.971L144.985 162.902H146.077V164.148C146.45 163.271 147.094 162.832 148.009 162.832C148.177 162.832 148.308 162.841 148.401 162.86V163.952C148.205 163.887 148.004 163.854 147.799 163.854C147.304 163.854 146.894 164.083 146.567 164.54C146.24 164.997 146.077 165.525 146.077 166.122V170ZM156.525 169.818C156.217 169.986 155.872 170.07 155.489 170.07C154.089 170.07 153.389 169.356 153.389 167.928V163.798H152.255V162.902H153.389V161.138H154.495V162.902H156.455V163.798H154.495V167.956C154.495 168.712 154.85 169.09 155.559 169.09C155.923 169.09 156.245 168.983 156.525 168.768V169.818ZM160.307 169.146C160.811 169.146 161.213 169.006 161.511 168.726C161.81 168.437 161.959 168.073 161.959 167.634V166.724H160.727C160.13 166.724 159.682 166.841 159.383 167.074C159.085 167.307 158.935 167.601 158.935 167.956C158.935 168.311 159.052 168.6 159.285 168.824C159.519 169.039 159.859 169.146 160.307 169.146ZM161.973 169.16C161.609 169.767 160.947 170.07 159.985 170.07C159.323 170.07 158.786 169.874 158.375 169.482C157.974 169.09 157.773 168.595 157.773 167.998C157.773 167.317 158.03 166.789 158.543 166.416C159.066 166.033 159.775 165.842 160.671 165.842H161.959V165.478C161.959 164.918 161.833 164.498 161.581 164.218C161.329 163.929 160.905 163.784 160.307 163.784C159.551 163.784 158.879 163.985 158.291 164.386V163.28C158.823 162.953 159.523 162.79 160.391 162.79C162.174 162.79 163.065 163.695 163.065 165.506V170H161.973V169.16ZM170.628 170H169.522V165.408C169.522 164.885 169.387 164.489 169.116 164.218C168.855 163.938 168.509 163.798 168.08 163.798C167.548 163.798 167.086 164.003 166.694 164.414C166.311 164.825 166.12 165.394 166.12 166.122V170H165.028V162.902H166.12V164.134C166.54 163.247 167.287 162.804 168.36 162.804C169.051 162.804 169.601 163.014 170.012 163.434C170.423 163.854 170.628 164.414 170.628 165.114V170ZM173.75 170H172.644V160.102H173.75V170ZM178.026 169.146C178.53 169.146 178.931 169.006 179.23 168.726C179.529 168.437 179.678 168.073 179.678 167.634V166.724H178.446C177.849 166.724 177.401 166.841 177.102 167.074C176.803 167.307 176.654 167.601 176.654 167.956C176.654 168.311 176.771 168.6 177.004 168.824C177.237 169.039 177.578 169.146 178.026 169.146ZM179.692 169.16C179.328 169.767 178.665 170.07 177.704 170.07C177.041 170.07 176.505 169.874 176.094 169.482C175.693 169.09 175.492 168.595 175.492 167.998C175.492 167.317 175.749 166.789 176.262 166.416C176.785 166.033 177.494 165.842 178.39 165.842H179.678V165.478C179.678 164.918 179.552 164.498 179.3 164.218C179.048 163.929 178.623 163.784 178.026 163.784C177.27 163.784 176.598 163.985 176.01 164.386V163.28C176.542 162.953 177.242 162.79 178.11 162.79C179.893 162.79 180.784 163.695 180.784 165.506V170H179.692V169.16ZM188.347 170H187.241V165.408C187.241 164.885 187.105 164.489 186.835 164.218C186.573 163.938 186.228 163.798 185.799 163.798C185.267 163.798 184.805 164.003 184.413 164.414C184.03 164.825 183.839 165.394 183.839 166.122V170H182.747V162.902H183.839V164.134C184.259 163.247 185.005 162.804 186.079 162.804C186.769 162.804 187.32 163.014 187.731 163.434C188.141 163.854 188.347 164.414 188.347 165.114V170ZM192.477 169.146C192.981 169.146 193.382 169.006 193.681 168.726C193.98 168.437 194.129 168.073 194.129 167.634V166.724H192.897C192.3 166.724 191.852 166.841 191.553 167.074C191.254 167.307 191.105 167.601 191.105 167.956C191.105 168.311 191.222 168.6 191.455 168.824C191.688 169.039 192.029 169.146 192.477 169.146ZM194.143 169.16C193.779 169.767 193.116 170.07 192.155 170.07C191.492 170.07 190.956 169.874 190.545 169.482C190.144 169.09 189.943 168.595 189.943 167.998C189.943 167.317 190.2 166.789 190.713 166.416C191.236 166.033 191.945 165.842 192.841 165.842H194.129V165.478C194.129 164.918 194.003 164.498 193.751 164.218C193.499 163.929 193.074 163.784 192.477 163.784C191.721 163.784 191.049 163.985 190.461 164.386V163.28C190.993 162.953 191.693 162.79 192.561 162.79C194.344 162.79 195.235 163.695 195.235 165.506V170H194.143V169.16ZM197.926 166.528C197.926 167.293 198.112 167.914 198.486 168.39C198.859 168.866 199.33 169.104 199.9 169.104C200.478 169.104 200.968 168.889 201.37 168.46C201.78 168.031 201.986 167.345 201.986 166.402C201.986 165.506 201.776 164.848 201.356 164.428C200.936 164.008 200.474 163.798 199.97 163.798C199.382 163.798 198.892 164.036 198.5 164.512C198.117 164.979 197.926 165.651 197.926 166.528ZM203.092 170H201.986V168.95C201.482 169.725 200.754 170.112 199.802 170.112C198.859 170.112 198.117 169.762 197.576 169.062C197.044 168.362 196.778 167.513 196.778 166.514C196.778 165.403 197.062 164.507 197.632 163.826C198.201 163.135 198.934 162.79 199.83 162.79C200.754 162.79 201.472 163.187 201.986 163.98V160.102H203.092V170ZM206.303 170H205.197V162.902H206.303V170ZM206.261 160.158C206.401 160.298 206.471 160.471 206.471 160.676C206.471 160.881 206.401 161.054 206.261 161.194C206.121 161.325 205.948 161.39 205.743 161.39C205.538 161.39 205.365 161.325 205.225 161.194C205.094 161.054 205.029 160.881 205.029 160.676C205.029 160.471 205.094 160.298 205.225 160.158C205.365 160.018 205.538 159.948 205.743 159.948C205.948 159.948 206.121 160.018 206.261 160.158Z" fill="black"/>
<path d="M141.687 57.375H133.437C133.214 57.375 132.999 57.2861 132.841 57.1279C132.683 56.9696 132.594 56.755 132.594 56.5312C132.594 56.3075 132.683 56.0929 132.841 55.9346C132.999 55.7764 133.214 55.6875 133.437 55.6875H141.687C141.911 55.6875 142.126 55.7764 142.284 55.9346C142.442 56.0929 142.531 56.3075 142.531 56.5312C142.531 56.755 142.442 56.9696 142.284 57.1279C142.126 57.2861 141.911 57.375 141.687 57.375Z" fill="#E0E2E5"/>
<path d="M123.312 46.4062L125 66.6562V68.3438H135.125V66.6562L136.812 46.4062H123.312Z" fill="#93573D"/>
<path d="M114.875 46.4062V45.5625H111.5V48.0938H108.125V56.5312H111.5H114.875V55.6875H118.25V46.4062H114.875Z" fill="#FDD14B"/>
<path d="M111.5 59.0625C111.276 59.0625 111.062 58.9736 110.903 58.8154C110.745 58.6571 110.656 58.4425 110.656 58.2188V48.9375C110.656 48.7137 110.745 48.4991 110.903 48.3409C111.062 48.1826 111.276 48.0938 111.5 48.0938C111.724 48.0938 111.938 48.1826 112.097 48.3409C112.255 48.4991 112.344 48.7137 112.344 48.9375V58.2188C112.344 58.4425 112.255 58.6571 112.097 58.8154C111.938 58.9736 111.724 59.0625 111.5 59.0625Z" fill="#E4BC43"/>
<path d="M114.996 60.75C114.773 60.75 114.56 60.6623 114.402 60.5058C114.244 60.3492 114.154 60.1367 114.152 59.9143L114.031 47.2581C114.029 47.0343 114.116 46.8188 114.273 46.6591C114.429 46.4993 114.643 46.4084 114.867 46.4063C115.091 46.4042 115.306 46.491 115.466 46.6477C115.626 46.8045 115.717 47.0182 115.719 47.242L115.839 59.8983C115.841 60.122 115.755 60.3374 115.598 60.4972C115.441 60.6569 115.228 60.7479 115.004 60.75H114.996Z" fill="#E4BC43"/>
<path d="M107.281 54.8438L108.969 66.6562V68.3438H119.094V66.6562V54.8438H107.281Z" fill="#E74444"/>
<path d="M146.938 57.375H145.25C145.026 57.375 144.812 57.2861 144.653 57.1279C144.495 56.9696 144.406 56.755 144.406 56.5312C144.406 56.3075 144.495 56.0929 144.653 55.9346C144.812 55.7764 145.026 55.6875 145.25 55.6875H146.938C147.161 55.6875 147.376 55.7764 147.534 55.9346C147.692 56.0929 147.781 56.3075 147.781 56.5312C147.781 56.755 147.692 56.9696 147.534 57.1279C147.376 57.2861 147.161 57.375 146.938 57.375Z" fill="#E0E2E5"/>
<path d="M136.812 46.4062L136.531 49.7812H123.594L123.312 46.4062H136.812Z" fill="#A4D4F4"/>
<path d="M121.673 41.3438C121.521 41.3437 121.371 41.3021 121.24 41.2236C121.109 41.145 121.002 41.0324 120.93 40.8978C120.858 40.7631 120.824 40.6115 120.831 40.459C120.839 40.3065 120.887 40.1589 120.972 40.0319L121.774 38.8289C121.893 38.6494 121.94 38.431 121.903 38.2184C121.867 38.0059 121.751 37.8153 121.578 37.6859L120.757 37.0701C120.24 36.6817 119.891 36.11 119.782 35.4724C119.673 34.8348 119.812 34.1796 120.17 33.6413L120.972 32.4382C121.033 32.346 121.112 32.2668 121.205 32.2052C121.297 32.1435 121.4 32.1006 121.509 32.0789C121.617 32.0572 121.729 32.057 121.838 32.0785C121.947 32.1001 122.05 32.1428 122.142 32.2042C122.234 32.2657 122.313 32.3447 122.375 32.4368C122.437 32.5289 122.48 32.6322 122.501 32.7408C122.523 32.8495 122.523 32.9614 122.502 33.0701C122.48 33.1788 122.438 33.2822 122.376 33.3744L121.574 34.5773C121.455 34.7568 121.408 34.9752 121.445 35.1878C121.481 35.4004 121.598 35.5909 121.77 35.7203L122.591 36.3361C123.108 36.7244 123.457 37.2961 123.567 37.9337C123.676 38.5714 123.537 39.2266 123.178 39.765L122.377 40.9681C122.3 41.0839 122.195 41.1788 122.072 41.2443C121.95 41.3099 121.813 41.344 121.673 41.3438Z" fill="#E0E2E5"/>
<path d="M114.923 41.3439C114.771 41.3438 114.621 41.3022 114.49 41.2237C114.359 41.1451 114.252 41.0326 114.18 40.8979C114.108 40.7633 114.074 40.6116 114.081 40.4591C114.089 40.3066 114.137 40.159 114.222 40.032L115.024 38.829C115.143 38.6496 115.19 38.4311 115.153 38.2186C115.117 38.006 115.001 37.8154 114.828 37.686L114.007 37.0702C113.49 36.6818 113.141 36.1102 113.032 35.4725C112.923 34.8349 113.062 34.1797 113.42 33.6414L114.222 32.4383C114.346 32.2521 114.539 32.1229 114.759 32.079C114.978 32.0351 115.206 32.0802 115.392 32.2044C115.578 32.3285 115.708 32.5215 115.751 32.741C115.795 32.9604 115.75 33.1883 115.626 33.3745L114.824 34.5775C114.705 34.7569 114.658 34.9754 114.695 35.1879C114.731 35.4005 114.848 35.591 115.02 35.7204L115.841 36.3362C116.358 36.7246 116.707 37.2962 116.817 37.9339C116.926 38.5715 116.787 39.2268 116.428 39.7651L115.627 40.9682C115.55 41.084 115.445 41.1789 115.322 41.2445C115.2 41.31 115.063 41.3442 114.923 41.3439Z" fill="#E0E2E5"/>
<path d="M128.33 41.3438C128.177 41.3437 128.027 41.3021 127.896 41.2236C127.765 41.145 127.658 41.0324 127.586 40.8978C127.514 40.7632 127.48 40.6115 127.488 40.459C127.495 40.3065 127.544 40.1589 127.628 40.0319L128.431 38.8289C128.55 38.6494 128.596 38.431 128.56 38.2184C128.524 38.0059 128.407 37.8153 128.235 37.6859L127.414 37.0702C126.896 36.6819 126.547 36.1102 126.438 35.4726C126.329 34.835 126.468 34.1797 126.826 33.6413L127.628 32.4382C127.752 32.252 127.945 32.1226 128.165 32.0787C128.273 32.0569 128.385 32.0568 128.494 32.0783C128.603 32.0998 128.706 32.1425 128.798 32.2039C128.891 32.2654 128.97 32.3444 129.032 32.4365C129.093 32.5286 129.136 32.6319 129.158 32.7406C129.18 32.8493 129.18 32.9612 129.158 33.07C129.137 33.1787 129.094 33.2821 129.033 33.3744L128.231 34.5773C128.112 34.7568 128.065 34.9752 128.102 35.1878C128.138 35.4003 128.254 35.5909 128.427 35.7203L129.248 36.3361C129.765 36.7244 130.114 37.2961 130.224 37.9337C130.333 38.5714 130.194 39.2267 129.835 39.765L129.034 40.9681C128.956 41.084 128.852 41.1789 128.729 41.2445C128.606 41.31 128.469 41.3442 128.33 41.3438Z" fill="#E0E2E5"/>
<path d="M149.469 52.3125H140.188C139.964 52.3125 139.749 52.2236 139.591 52.0654C139.433 51.9071 139.344 51.6925 139.344 51.4688C139.344 51.245 139.433 51.0304 139.591 50.8721C139.749 50.7139 139.964 50.625 140.188 50.625H149.469C149.693 50.625 149.907 50.7139 150.065 50.8721C150.224 51.0304 150.312 51.245 150.312 51.4688C150.312 51.6925 150.224 51.9071 150.065 52.0654C149.907 52.2236 149.693 52.3125 149.469 52.3125Z" fill="#E0E2E5"/>
<path d="M143.562 62.4375H138.5C138.276 62.4375 138.062 62.3486 137.903 62.1904C137.745 62.0321 137.656 61.8175 137.656 61.5938C137.656 61.37 137.745 61.1554 137.903 60.9971C138.062 60.8389 138.276 60.75 138.5 60.75H143.562C143.786 60.75 144.001 60.8389 144.159 60.9971C144.317 61.1554 144.406 61.37 144.406 61.5938C144.406 61.8175 144.317 62.0321 144.159 62.1904C144.001 62.3486 143.786 62.4375 143.562 62.4375Z" fill="#E0E2E5"/>
<path d="M149.469 75.9375H100.531C100.307 75.9375 100.093 75.8486 99.9346 75.6904C99.7764 75.5321 99.6875 75.3175 99.6875 75.0938C99.6875 74.87 99.7764 74.6554 99.9346 74.4971C100.093 74.3389 100.307 74.25 100.531 74.25H149.469C149.693 74.25 149.907 74.3389 150.065 74.4971C150.224 74.6554 150.312 74.87 150.312 75.0938C150.312 75.3175 150.224 75.5321 150.065 75.6904C149.907 75.8486 149.693 75.9375 149.469 75.9375Z" fill="#C2C5C6"/>
<path d="M100.531 66.6562H142.719V68.3438C142.719 68.7913 142.541 69.2205 142.224 69.537C141.908 69.8535 141.479 70.0312 141.031 70.0312H102.219C101.771 70.0312 101.342 69.8535 101.026 69.537C100.709 69.2205 100.531 68.7913 100.531 68.3438V66.6562Z" fill="#FDD14B"/>
<path d="M134.281 75.0938C137.077 75.0938 139.344 72.8272 139.344 70.0312C139.344 67.2353 137.077 64.9688 134.281 64.9688C131.485 64.9688 129.219 67.2353 129.219 70.0312C129.219 72.8272 131.485 75.0938 134.281 75.0938Z" fill="#6A7073"/>
<path d="M134.281 71.7188C135.213 71.7188 135.969 70.9632 135.969 70.0312C135.969 69.0993 135.213 68.3438 134.281 68.3438C133.349 68.3438 132.594 69.0993 132.594 70.0312C132.594 70.9632 133.349 71.7188 134.281 71.7188Z" fill="#99A2A7"/>
<path d="M108.969 75.0938C111.765 75.0938 114.031 72.8272 114.031 70.0312C114.031 67.2353 111.765 64.9688 108.969 64.9688C106.173 64.9688 103.906 67.2353 103.906 70.0312C103.906 72.8272 106.173 75.0938 108.969 75.0938Z" fill="#6A7073"/>
<path d="M108.969 71.7188C109.901 71.7188 110.656 70.9632 110.656 70.0312C110.656 69.0993 109.901 68.3438 108.969 68.3438C108.037 68.3438 107.281 69.0993 107.281 70.0312C107.281 70.9632 108.037 71.7188 108.969 71.7188Z" fill="#99A2A7"/>
<path d="M114.031 63.2812H129.219V64.9688C129.219 65.4163 129.041 65.8455 128.724 66.162C128.408 66.4785 127.979 66.6562 127.531 66.6562H115.719C115.271 66.6562 114.842 66.4785 114.526 66.162C114.209 65.8455 114.031 65.4163 114.031 64.9688V63.2812Z" fill="#EA8333"/>
<path d="M128.528 59.9062C129.376 59.9062 130.062 60.6617 130.062 61.5938C130.062 62.5258 129.376 63.2812 128.528 63.2812H114.722C113.874 63.2812 113.188 62.5258 113.188 61.5938C113.188 60.6617 113.874 59.9062 114.722 59.9062H128.528Z" fill="#794832"/>
<path d="M114.875 56.5312H128.375V59.9062H114.875V56.5312Z" fill="#FDD14B"/>
<path d="M130.906 57.375C130.906 58.773 129.719 59.9063 128.254 59.9063C127.822 59.9096 127.395 59.8083 127.01 59.6112C126.626 59.4141 126.294 59.1269 126.044 58.774C125.792 59.1243 125.46 59.4097 125.076 59.6065C124.692 59.8033 124.266 59.9059 123.835 59.9059C123.403 59.9059 122.977 59.8033 122.593 59.6065C122.209 59.4097 121.877 59.1243 121.625 58.774C121.373 59.1243 121.041 59.4097 120.657 59.6065C120.273 59.8033 119.847 59.9059 119.415 59.9059C118.984 59.9059 118.558 59.8033 118.174 59.6065C117.79 59.4097 117.458 59.1243 117.206 58.774C116.956 59.1269 116.624 59.4141 116.24 59.6112C115.855 59.8083 115.428 59.9096 114.996 59.9063C113.531 59.9063 112.344 58.773 112.344 57.375C112.344 57.1512 112.433 56.9366 112.591 56.7784C112.749 56.6201 112.964 56.5312 113.188 56.5312H130.062C130.286 56.5312 130.501 56.6201 130.659 56.7784C130.817 56.9366 130.906 57.1512 130.906 57.375Z" fill="#3BA673"/>
<path d="M129.219 49.7813V43.0313C129.219 42.8626 129.269 42.6979 129.364 42.5582C129.458 42.4186 129.593 42.3105 129.749 42.2478L133.968 40.5603C134.071 40.5192 134.181 40.4987 134.292 40.5001C134.402 40.5014 134.512 40.5246 134.614 40.5682C134.715 40.6119 134.808 40.6752 134.885 40.7545C134.963 40.8338 135.024 40.9275 135.065 41.0304C135.106 41.1333 135.126 41.2433 135.125 41.3541C135.124 41.4649 135.1 41.5743 135.057 41.6762C135.013 41.778 134.95 41.8703 134.871 41.9476C134.791 42.025 134.697 42.086 134.595 42.1272L130.906 43.6025V49.7813H129.219Z" fill="#E74444"/>
<path d="M129.219 46.4062H130.906V49.7812H129.219V46.4062Z" fill="#CE3536"/>
</svg>
