<svg width="250" height="200" viewBox="0 0 250 200" fill="none" xmlns="http://www.w3.org/2000/svg">
<rect width="250" height="200" rx="7" fill="white"/>
<rect x="0.5" y="0.5" width="249" height="199" rx="6.5" stroke="black" stroke-opacity="0.03"/>
<path d="M29.68 120H27.16L28.24 106.52H31.12L32.96 111.42C33.28 112.247 33.58 113.073 33.86 113.9C34.14 114.713 34.34 115.32 34.46 115.72L34.64 116.34C35.0533 114.953 35.6267 113.313 36.36 111.42L38.24 106.52H41.12L42.44 120H39.92L39.44 114.74L39.08 110.02C38.6 111.393 38.0267 112.967 37.36 114.74L35.48 119.8H33.76L31.92 114.74L30.34 110.08C30.34 110.733 30.2533 112.287 30.08 114.74L29.68 120ZM48.3777 118.3C48.911 118.3 49.3243 118.147 49.6177 117.84C49.9243 117.52 50.0777 117.107 50.0777 116.6V115.64H48.8377C48.211 115.64 47.731 115.773 47.3977 116.04C47.0643 116.293 46.8977 116.62 46.8977 117.02C46.8977 117.873 47.391 118.3 48.3777 118.3ZM50.1777 118.78C49.711 119.647 48.831 120.08 47.5377 120.08C46.5777 120.08 45.811 119.8 45.2377 119.24C44.6777 118.68 44.3977 117.973 44.3977 117.12C44.3977 116.16 44.7577 115.407 45.4777 114.86C46.1977 114.313 47.2377 114.04 48.5977 114.04H50.0777V113.42C50.0777 112.86 49.931 112.433 49.6377 112.14C49.3443 111.847 48.8443 111.7 48.1377 111.7C47.0577 111.7 46.0643 112 45.1577 112.6V110.38C45.9177 109.913 47.011 109.68 48.4377 109.68C51.1843 109.68 52.5577 110.96 52.5577 113.52V120H50.1777V118.78ZM63.8344 120H61.4344V113.78C61.4344 113.14 61.2677 112.64 60.9344 112.28C60.6144 111.92 60.1944 111.74 59.6744 111.74C59.101 111.74 58.581 111.96 58.1144 112.4C57.661 112.84 57.4344 113.56 57.4344 114.56V120H55.0344V105.86H57.4344V111.58C57.981 110.353 59.0144 109.74 60.5344 109.74C61.521 109.74 62.3144 110.053 62.9144 110.68C63.5277 111.293 63.8344 112.187 63.8344 113.36V120ZM72.963 117.08C72.963 118.027 72.623 118.767 71.943 119.3C71.263 119.833 70.3563 120.1 69.223 120.1C67.9696 120.1 66.9563 119.893 66.183 119.48V117.28C67.0763 117.88 68.043 118.18 69.083 118.18C69.523 118.18 69.863 118.1 70.103 117.94C70.3563 117.767 70.483 117.533 70.483 117.24C70.483 117.067 70.443 116.913 70.363 116.78C70.283 116.633 70.1296 116.493 69.903 116.36C69.6763 116.227 69.4963 116.133 69.363 116.08C69.243 116.013 68.9963 115.9 68.623 115.74C68.583 115.727 68.5496 115.713 68.523 115.7C68.5096 115.687 68.483 115.673 68.443 115.66C68.403 115.647 68.3696 115.633 68.343 115.62C66.863 114.953 66.123 113.993 66.123 112.74C66.123 111.807 66.4763 111.073 67.183 110.54C67.8896 110.007 68.7763 109.74 69.843 109.74C70.8696 109.74 71.723 109.887 72.403 110.18V112.3C71.7363 111.9 70.903 111.7 69.903 111.7C69.4896 111.7 69.163 111.793 68.923 111.98C68.6963 112.153 68.583 112.38 68.583 112.66C68.583 112.767 68.5963 112.867 68.623 112.96C68.663 113.053 68.723 113.147 68.803 113.24C68.8963 113.32 68.983 113.393 69.063 113.46C69.143 113.527 69.2563 113.6 69.403 113.68C69.5496 113.747 69.6763 113.807 69.783 113.86C69.8896 113.913 70.0363 113.98 70.223 114.06C70.4096 114.14 70.5563 114.207 70.663 114.26C71.3696 114.607 71.9296 114.993 72.343 115.42C72.7563 115.847 72.963 116.4 72.963 117.08ZM83.5781 120H81.1581V118.34C80.6248 119.513 79.5848 120.1 78.0381 120.1C77.0115 120.1 76.2115 119.807 75.6381 119.22C75.0648 118.633 74.7781 117.8 74.7781 116.72V109.86H77.1781V116.16C77.1781 116.8 77.3315 117.287 77.6381 117.62C77.9581 117.953 78.3915 118.12 78.9381 118.12C79.6315 118.12 80.1715 117.887 80.5581 117.42C80.9581 116.953 81.1581 116.247 81.1581 115.3V109.86H83.5781V120ZM88.6867 120H86.2867V105.86H88.6867V120ZM100.622 114.9C100.622 116.433 100.189 117.693 99.322 118.68C98.4687 119.667 97.2687 120.16 95.722 120.16C94.1887 120.16 92.9887 119.68 92.122 118.72C91.2687 117.76 90.842 116.533 90.842 115.04C90.842 113.493 91.2887 112.22 92.182 111.22C93.0754 110.207 94.2554 109.7 95.722 109.7C97.282 109.7 98.4887 110.193 99.342 111.18C100.195 112.153 100.622 113.393 100.622 114.9ZM93.362 114.96C93.362 115.893 93.5687 116.673 93.982 117.3C94.3954 117.927 94.982 118.24 95.742 118.24C96.5287 118.24 97.122 117.933 97.522 117.32C97.922 116.707 98.122 115.927 98.122 114.98C98.122 114.007 97.9287 113.213 97.542 112.6C97.1554 111.973 96.5487 111.66 95.722 111.66C94.962 111.66 94.3754 111.973 93.962 112.6C93.562 113.227 93.362 114.013 93.362 114.96ZM108.291 119.76C107.824 119.987 107.224 120.1 106.491 120.1C104.304 120.1 103.211 118.993 103.211 116.78V111.66H101.691V109.86H103.211V107.42H105.611V109.86H108.131V111.66H105.611V116.82C105.611 117.247 105.724 117.573 105.951 117.8C106.177 118.013 106.491 118.12 106.891 118.12C107.397 118.12 107.864 117.98 108.291 117.7V119.76ZM119.069 120H116.669V113.76C116.669 113.093 116.509 112.593 116.189 112.26C115.869 111.913 115.435 111.74 114.889 111.74C114.262 111.74 113.735 111.987 113.309 112.48C112.882 112.96 112.669 113.653 112.669 114.56V120H110.269V109.86H112.669V111.6C113.242 110.36 114.282 109.74 115.789 109.74C116.802 109.74 117.602 110.047 118.189 110.66C118.775 111.273 119.069 112.14 119.069 113.26V120ZM124.077 120H121.677V109.86H124.077V120ZM124.317 106.82C124.317 107.233 124.177 107.58 123.897 107.86C123.617 108.14 123.277 108.28 122.877 108.28C122.477 108.28 122.137 108.14 121.857 107.86C121.577 107.58 121.437 107.233 121.437 106.82C121.437 106.42 121.577 106.08 121.857 105.8C122.137 105.52 122.477 105.38 122.877 105.38C123.277 105.38 123.617 105.52 123.897 105.8C124.177 106.08 124.317 106.42 124.317 106.82ZM134.354 112.62C133.887 113.18 133.654 113.947 133.654 114.92C133.654 115.893 133.887 116.667 134.354 117.24C134.834 117.8 135.427 118.08 136.134 118.08C136.814 118.08 137.394 117.8 137.874 117.24C138.367 116.68 138.614 115.887 138.614 114.86C138.614 113.833 138.36 113.06 137.854 112.54C137.36 112.02 136.767 111.76 136.074 111.76C135.394 111.76 134.82 112.047 134.354 112.62ZM141.014 123.82H138.614V118.44C137.92 119.573 136.9 120.14 135.554 120.14C134.22 120.14 133.16 119.647 132.374 118.66C131.587 117.66 131.194 116.4 131.194 114.88C131.194 113.333 131.587 112.087 132.374 111.14C133.174 110.193 134.234 109.72 135.554 109.72C136.874 109.72 137.894 110.287 138.614 111.42V109.86H141.014V123.82ZM147.089 118.3C147.622 118.3 148.035 118.147 148.329 117.84C148.635 117.52 148.789 117.107 148.789 116.6V115.64H147.549C146.922 115.64 146.442 115.773 146.109 116.04C145.775 116.293 145.609 116.62 145.609 117.02C145.609 117.873 146.102 118.3 147.089 118.3ZM148.889 118.78C148.422 119.647 147.542 120.08 146.249 120.08C145.289 120.08 144.522 119.8 143.949 119.24C143.389 118.68 143.109 117.973 143.109 117.12C143.109 116.16 143.469 115.407 144.189 114.86C144.909 114.313 145.949 114.04 147.309 114.04H148.789V113.42C148.789 112.86 148.642 112.433 148.349 112.14C148.055 111.847 147.555 111.7 146.849 111.7C145.769 111.7 144.775 112 143.869 112.6V110.38C144.629 109.913 145.722 109.68 147.149 109.68C149.895 109.68 151.269 110.96 151.269 113.52V120H148.889V118.78ZM155.665 114.98C155.665 115.9 155.899 116.647 156.365 117.22C156.832 117.793 157.412 118.08 158.105 118.08C158.825 118.08 159.425 117.807 159.905 117.26C160.385 116.7 160.625 115.893 160.625 114.84C160.625 113.813 160.372 113.047 159.865 112.54C159.359 112.02 158.779 111.76 158.125 111.76C157.432 111.76 156.845 112.047 156.365 112.62C155.899 113.18 155.665 113.967 155.665 114.98ZM163.025 120H160.625V118.42C159.932 119.567 158.905 120.14 157.545 120.14C156.212 120.14 155.152 119.633 154.365 118.62C153.592 117.607 153.205 116.38 153.205 114.94C153.205 113.34 153.612 112.073 154.425 111.14C155.252 110.193 156.305 109.72 157.585 109.72C158.905 109.72 159.919 110.287 160.625 111.42V105.86H163.025V120ZM174.86 114.9C174.86 116.433 174.427 117.693 173.56 118.68C172.707 119.667 171.507 120.16 169.96 120.16C168.427 120.16 167.227 119.68 166.36 118.72C165.507 117.76 165.08 116.533 165.08 115.04C165.08 113.493 165.527 112.22 166.42 111.22C167.314 110.207 168.494 109.7 169.96 109.7C171.52 109.7 172.727 110.193 173.58 111.18C174.434 112.153 174.86 113.393 174.86 114.9ZM167.6 114.96C167.6 115.893 167.807 116.673 168.22 117.3C168.634 117.927 169.22 118.24 169.98 118.24C170.767 118.24 171.36 117.933 171.76 117.32C172.16 116.707 172.36 115.927 172.36 114.98C172.36 114.007 172.167 113.213 171.78 112.6C171.394 111.973 170.787 111.66 169.96 111.66C169.2 111.66 168.614 111.973 168.2 112.6C167.8 113.227 167.6 114.013 167.6 114.96ZM179.549 112.62C179.082 113.18 178.849 113.947 178.849 114.92C178.849 115.893 179.082 116.667 179.549 117.24C180.029 117.8 180.622 118.08 181.329 118.08C182.009 118.08 182.589 117.8 183.069 117.24C183.562 116.68 183.809 115.887 183.809 114.86C183.809 113.833 183.556 113.06 183.049 112.54C182.556 112.02 181.962 111.76 181.269 111.76C180.589 111.76 180.016 112.047 179.549 112.62ZM186.209 123.82H183.809V118.44C183.116 119.573 182.096 120.14 180.749 120.14C179.416 120.14 178.356 119.647 177.569 118.66C176.782 117.66 176.389 116.4 176.389 114.88C176.389 113.333 176.782 112.087 177.569 111.14C178.369 110.193 179.429 109.72 180.749 109.72C182.069 109.72 183.089 110.287 183.809 111.42V109.86H186.209V123.82ZM191.304 120H188.904V105.86H191.304V120ZM197.479 118.3C198.013 118.3 198.426 118.147 198.719 117.84C199.026 117.52 199.179 117.107 199.179 116.6V115.64H197.939C197.313 115.64 196.833 115.773 196.499 116.04C196.166 116.293 195.999 116.62 195.999 117.02C195.999 117.873 196.493 118.3 197.479 118.3ZM199.279 118.78C198.813 119.647 197.933 120.08 196.639 120.08C195.679 120.08 194.913 119.8 194.339 119.24C193.779 118.68 193.499 117.973 193.499 117.12C193.499 116.16 193.859 115.407 194.579 114.86C195.299 114.313 196.339 114.04 197.699 114.04H199.179V113.42C199.179 112.86 199.033 112.433 198.739 112.14C198.446 111.847 197.946 111.7 197.239 111.7C196.159 111.7 195.166 112 194.259 112.6V110.38C195.019 109.913 196.113 109.68 197.539 109.68C200.286 109.68 201.659 110.96 201.659 113.52V120H199.279V118.78ZM210.756 117.08C210.756 118.027 210.416 118.767 209.736 119.3C209.056 119.833 208.149 120.1 207.016 120.1C205.763 120.1 204.749 119.893 203.976 119.48V117.28C204.869 117.88 205.836 118.18 206.876 118.18C207.316 118.18 207.656 118.1 207.896 117.94C208.149 117.767 208.276 117.533 208.276 117.24C208.276 117.067 208.236 116.913 208.156 116.78C208.076 116.633 207.923 116.493 207.696 116.36C207.469 116.227 207.289 116.133 207.156 116.08C207.036 116.013 206.789 115.9 206.416 115.74C206.376 115.727 206.343 115.713 206.316 115.7C206.303 115.687 206.276 115.673 206.236 115.66C206.196 115.647 206.163 115.633 206.136 115.62C204.656 114.953 203.916 113.993 203.916 112.74C203.916 111.807 204.269 111.073 204.976 110.54C205.683 110.007 206.569 109.74 207.636 109.74C208.663 109.74 209.516 109.887 210.196 110.18V112.3C209.529 111.9 208.696 111.7 207.696 111.7C207.283 111.7 206.956 111.793 206.716 111.98C206.489 112.153 206.376 112.38 206.376 112.66C206.376 112.767 206.389 112.867 206.416 112.96C206.456 113.053 206.516 113.147 206.596 113.24C206.689 113.32 206.776 113.393 206.856 113.46C206.936 113.527 207.049 113.6 207.196 113.68C207.343 113.747 207.469 113.807 207.576 113.86C207.683 113.913 207.829 113.98 208.016 114.06C208.203 114.14 208.349 114.207 208.456 114.26C209.163 114.607 209.723 114.993 210.136 115.42C210.549 115.847 210.756 116.4 210.756 117.08ZM221.471 120H219.071V113.78C219.071 113.14 218.904 112.64 218.571 112.28C218.251 111.92 217.831 111.74 217.311 111.74C216.738 111.74 216.218 111.96 215.751 112.4C215.298 112.84 215.071 113.56 215.071 114.56V120H212.671V105.86H215.071V111.58C215.618 110.353 216.651 109.74 218.171 109.74C219.158 109.74 219.951 110.053 220.551 110.68C221.164 111.293 221.471 112.187 221.471 113.36V120Z" fill="black"/>
<path opacity="0.6" d="M33.906 151H32.772L33.458 141.564H34.9L36.146 145.008L37.658 149.404C38.1993 147.873 38.7313 146.408 39.254 145.008L40.556 141.564H41.998L42.824 151H41.69L41.368 147.276L41.032 143.09C40.5373 144.471 40.0287 145.867 39.506 147.276L38.19 150.79H37.112L35.866 147.276L34.438 143.174C34.438 143.538 34.3493 144.905 34.172 147.276L33.906 151ZM46.9879 150.146C47.4919 150.146 47.8932 150.006 48.1919 149.726C48.4906 149.437 48.6399 149.073 48.6399 148.634V147.724H47.4079C46.8106 147.724 46.3626 147.841 46.0639 148.074C45.7652 148.307 45.6159 148.601 45.6159 148.956C45.6159 149.311 45.7326 149.6 45.9659 149.824C46.1992 150.039 46.5399 150.146 46.9879 150.146ZM48.6539 150.16C48.2899 150.767 47.6272 151.07 46.6659 151.07C46.0032 151.07 45.4666 150.874 45.0559 150.482C44.6546 150.09 44.4539 149.595 44.4539 148.998C44.4539 148.317 44.7106 147.789 45.2239 147.416C45.7466 147.033 46.4559 146.842 47.3519 146.842H48.6399V146.478C48.6399 145.918 48.5139 145.498 48.2619 145.218C48.0099 144.929 47.5852 144.784 46.9879 144.784C46.2319 144.784 45.5599 144.985 44.9719 145.386V144.28C45.5039 143.953 46.2039 143.79 47.0719 143.79C48.8546 143.79 49.7459 144.695 49.7459 146.506V151H48.6539V150.16ZM57.3085 151H56.2025V146.408C56.2025 145.895 56.0672 145.498 55.7965 145.218C55.5352 144.938 55.1899 144.798 54.7605 144.798C54.2379 144.798 53.7805 144.999 53.3885 145.4C52.9965 145.801 52.8005 146.375 52.8005 147.122V151H51.7085V141.102H52.8005V145.134C53.2205 144.247 53.9672 143.804 55.0405 143.804C55.7219 143.804 56.2679 144.014 56.6785 144.434C57.0985 144.854 57.3085 145.423 57.3085 146.142V151ZM63.5391 149.11C63.5391 149.717 63.3244 150.197 62.8951 150.552C62.4751 150.907 61.8964 151.084 61.1591 151.084C60.3004 151.084 59.6051 150.939 59.0731 150.65V149.572C59.6984 149.945 60.3704 150.132 61.0891 150.132C61.5184 150.132 61.8451 150.048 62.0691 149.88C62.2931 149.712 62.4051 149.483 62.4051 149.194C62.4051 148.858 62.2791 148.597 62.0271 148.41C61.7844 148.223 61.3737 148.013 60.7951 147.78C60.2631 147.575 59.8337 147.318 59.5071 147.01C59.1897 146.702 59.0311 146.287 59.0311 145.764C59.0311 145.176 59.2504 144.709 59.6891 144.364C60.1371 144.009 60.6924 143.832 61.3551 143.832C62.0924 143.832 62.6851 143.935 63.1331 144.14V145.19C62.7037 144.929 62.1157 144.798 61.3691 144.798C60.9957 144.798 60.6971 144.887 60.4731 145.064C60.2584 145.232 60.1511 145.451 60.1511 145.722C60.1511 145.89 60.1837 146.039 60.2491 146.17C60.3144 146.291 60.4404 146.413 60.6271 146.534C60.8231 146.655 60.9631 146.739 61.0471 146.786C61.1404 146.823 61.3364 146.907 61.6351 147.038C62.2324 147.281 62.6991 147.556 63.0351 147.864C63.3711 148.172 63.5391 148.587 63.5391 149.11ZM70.5546 151H69.4486V149.768C69.0753 150.645 68.3333 151.084 67.2226 151.084C66.5226 151.084 65.9673 150.879 65.5566 150.468C65.1553 150.048 64.9546 149.488 64.9546 148.788V143.902H66.0606V148.508C66.0606 149.021 66.1913 149.413 66.4526 149.684C66.7139 149.955 67.0686 150.09 67.5166 150.09C68.1046 150.09 68.5713 149.885 68.9166 149.474C69.2713 149.063 69.4486 148.508 69.4486 147.808V143.902H70.5546V151ZM73.7611 151H72.6551V141.102H73.7611V151ZM82.1107 147.472C82.1107 148.527 81.8121 149.399 81.2147 150.09C80.6174 150.781 79.7961 151.126 78.7507 151.126C77.7334 151.126 76.9261 150.785 76.3287 150.104C75.7407 149.413 75.4467 148.545 75.4467 147.5C75.4467 146.445 75.7501 145.568 76.3567 144.868C76.9727 144.159 77.7707 143.804 78.7507 143.804C79.8241 143.804 80.6501 144.149 81.2287 144.84C81.8167 145.531 82.1107 146.408 82.1107 147.472ZM76.5947 147.486C76.5947 148.223 76.7907 148.853 77.1827 149.376C77.5747 149.889 78.0974 150.146 78.7507 150.146C79.4601 150.146 80.0061 149.894 80.3887 149.39C80.7714 148.877 80.9627 148.242 80.9627 147.486C80.9627 146.702 80.7807 146.058 80.4167 145.554C80.0527 145.041 79.4974 144.784 78.7507 144.784C78.0787 144.784 77.5514 145.045 77.1687 145.568C76.7861 146.091 76.5947 146.73 76.5947 147.486ZM87.2841 150.818C86.9761 150.986 86.6307 151.07 86.2481 151.07C84.8481 151.07 84.1481 150.356 84.1481 148.928V144.798H83.0141V143.902H84.1481V142.138H85.2541V143.902H87.2141V144.798H85.2541V148.956C85.2541 149.712 85.6087 150.09 86.3181 150.09C86.6821 150.09 87.0041 149.983 87.2841 149.768V150.818ZM90.058 151H88.952V141.102H90.058V151ZM94.3336 150.146C94.8376 150.146 95.2389 150.006 95.5376 149.726C95.8363 149.437 95.9856 149.073 95.9856 148.634V147.724H94.7536C94.1563 147.724 93.7083 147.841 93.4096 148.074C93.1109 148.307 92.9616 148.601 92.9616 148.956C92.9616 149.311 93.0783 149.6 93.3116 149.824C93.5449 150.039 93.8856 150.146 94.3336 150.146ZM95.9996 150.16C95.6356 150.767 94.9729 151.07 94.0116 151.07C93.3489 151.07 92.8123 150.874 92.4016 150.482C92.0003 150.09 91.7996 149.595 91.7996 148.998C91.7996 148.317 92.0563 147.789 92.5696 147.416C93.0923 147.033 93.8016 146.842 94.6976 146.842H95.9856V146.478C95.9856 145.918 95.8596 145.498 95.6076 145.218C95.3556 144.929 94.9309 144.784 94.3336 144.784C93.5776 144.784 92.9056 144.985 92.3176 145.386V144.28C92.8496 143.953 93.5496 143.79 94.4176 143.79C96.2003 143.79 97.0916 144.695 97.0916 146.506V151H95.9996V150.16ZM100.146 151H99.0402L99.0542 143.902H100.146V145.148C100.52 144.271 101.164 143.832 102.078 143.832C102.246 143.832 102.377 143.841 102.47 143.86V144.952C102.274 144.887 102.074 144.854 101.868 144.854C101.374 144.854 100.963 145.083 100.636 145.54C100.31 145.997 100.146 146.525 100.146 147.122V151ZM107.585 151H106.367L108.747 147.36L106.507 143.888H107.781L109.391 146.548L111.015 143.888H112.275L109.979 147.374L112.359 151H111.085L109.363 148.2L107.585 151ZM115.894 150.146C116.398 150.146 116.799 150.006 117.098 149.726C117.397 149.437 117.546 149.073 117.546 148.634V147.724H116.314C115.717 147.724 115.269 147.841 114.97 148.074C114.671 148.307 114.522 148.601 114.522 148.956C114.522 149.311 114.639 149.6 114.872 149.824C115.105 150.039 115.446 150.146 115.894 150.146ZM117.56 150.16C117.196 150.767 116.533 151.07 115.572 151.07C114.909 151.07 114.373 150.874 113.962 150.482C113.561 150.09 113.36 149.595 113.36 148.998C113.36 148.317 113.617 147.789 114.13 147.416C114.653 147.033 115.362 146.842 116.258 146.842H117.546V146.478C117.546 145.918 117.42 145.498 117.168 145.218C116.916 144.929 116.491 144.784 115.894 144.784C115.138 144.784 114.466 144.985 113.878 145.386V144.28C114.41 143.953 115.11 143.79 115.978 143.79C117.761 143.79 118.652 144.695 118.652 146.506V151H117.56V150.16ZM123.779 151H122.421L119.943 143.902H121.091L122.071 146.898L123.107 150.132C123.191 149.731 123.541 148.653 124.157 146.898L125.165 143.902H126.313L123.779 151ZM130.973 144.798H129.405V151H128.299V144.798H127.081V143.902H128.299V143.244C128.299 142.553 128.481 142.007 128.845 141.606C129.218 141.205 129.732 141.004 130.385 141.004C130.609 141.004 130.838 141.037 131.071 141.102V142.11C130.847 142.035 130.632 141.998 130.427 141.998C130.128 141.998 129.881 142.101 129.685 142.306C129.498 142.511 129.405 142.829 129.405 143.258V143.902H130.973V144.798ZM136.561 149.11C136.561 149.717 136.346 150.197 135.917 150.552C135.497 150.907 134.918 151.084 134.181 151.084C133.322 151.084 132.627 150.939 132.095 150.65V149.572C132.72 149.945 133.392 150.132 134.111 150.132C134.54 150.132 134.867 150.048 135.091 149.88C135.315 149.712 135.427 149.483 135.427 149.194C135.427 148.858 135.301 148.597 135.049 148.41C134.806 148.223 134.395 148.013 133.817 147.78C133.285 147.575 132.855 147.318 132.529 147.01C132.211 146.702 132.053 146.287 132.053 145.764C132.053 145.176 132.272 144.709 132.711 144.364C133.159 144.009 133.714 143.832 134.377 143.832C135.114 143.832 135.707 143.935 136.155 144.14V145.19C135.725 144.929 135.137 144.798 134.391 144.798C134.017 144.798 133.719 144.887 133.495 145.064C133.28 145.232 133.173 145.451 133.173 145.722C133.173 145.89 133.205 146.039 133.271 146.17C133.336 146.291 133.462 146.413 133.649 146.534C133.845 146.655 133.985 146.739 134.069 146.786C134.162 146.823 134.358 146.907 134.657 147.038C135.254 147.281 135.721 147.556 136.057 147.864C136.393 148.172 136.561 148.587 136.561 149.11ZM139.222 151H138.116V143.902H139.222V151ZM139.18 141.158C139.32 141.298 139.39 141.471 139.39 141.676C139.39 141.881 139.32 142.054 139.18 142.194C139.04 142.325 138.867 142.39 138.662 142.39C138.457 142.39 138.284 142.325 138.144 142.194C138.013 142.054 137.948 141.881 137.948 141.676C137.948 141.471 138.013 141.298 138.144 141.158C138.284 141.018 138.457 140.948 138.662 140.948C138.867 140.948 139.04 141.018 139.18 141.158ZM146.032 151H140.922V150.132L144.52 144.882H141.062V143.902H145.836V144.714L142.196 150.006H146.032V151ZM151.817 147.388C151.817 148.256 152.009 148.928 152.391 149.404C152.774 149.871 153.264 150.104 153.861 150.104C154.375 150.104 154.837 149.894 155.247 149.474C155.667 149.045 155.877 148.373 155.877 147.458C155.877 146.515 155.672 145.839 155.261 145.428C154.851 145.008 154.361 144.798 153.791 144.798C153.222 144.798 152.751 145.036 152.377 145.512C152.004 145.988 151.817 146.613 151.817 147.388ZM156.983 153.758H155.877V149.936C155.364 150.72 154.645 151.112 153.721 151.112C152.816 151.112 152.079 150.767 151.509 150.076C150.949 149.376 150.669 148.48 150.669 147.388C150.669 146.361 150.94 145.507 151.481 144.826C152.023 144.135 152.765 143.79 153.707 143.79C154.65 143.79 155.373 144.177 155.877 144.952V143.902H156.983V153.758ZM161.203 150.146C161.707 150.146 162.108 150.006 162.407 149.726C162.705 149.437 162.855 149.073 162.855 148.634V147.724H161.623C161.025 147.724 160.577 147.841 160.279 148.074C159.98 148.307 159.831 148.601 159.831 148.956C159.831 149.311 159.947 149.6 160.181 149.824C160.414 150.039 160.755 150.146 161.203 150.146ZM162.869 150.16C162.505 150.767 161.842 151.07 160.881 151.07C160.218 151.07 159.681 150.874 159.271 150.482C158.869 150.09 158.669 149.595 158.669 148.998C158.669 148.317 158.925 147.789 159.439 147.416C159.961 147.033 160.671 146.842 161.567 146.842H162.855V146.478C162.855 145.918 162.729 145.498 162.477 145.218C162.225 144.929 161.8 144.784 161.203 144.784C160.447 144.784 159.775 144.985 159.187 145.386V144.28C159.719 143.953 160.419 143.79 161.287 143.79C163.069 143.79 163.961 144.695 163.961 146.506V151H162.869V150.16ZM166.651 147.528C166.651 148.293 166.838 148.914 167.211 149.39C167.585 149.866 168.056 150.104 168.625 150.104C169.204 150.104 169.694 149.889 170.095 149.46C170.506 149.031 170.711 148.345 170.711 147.402C170.711 146.506 170.501 145.848 170.081 145.428C169.661 145.008 169.199 144.798 168.695 144.798C168.107 144.798 167.617 145.036 167.225 145.512C166.843 145.979 166.651 146.651 166.651 147.528ZM171.817 151H170.711V149.95C170.207 150.725 169.479 151.112 168.527 151.112C167.585 151.112 166.843 150.762 166.301 150.062C165.769 149.362 165.503 148.513 165.503 147.514C165.503 146.403 165.788 145.507 166.357 144.826C166.927 144.135 167.659 143.79 168.555 143.79C169.479 143.79 170.198 144.187 170.711 144.98V141.102H171.817V151ZM180.111 147.472C180.111 148.527 179.812 149.399 179.215 150.09C178.617 150.781 177.796 151.126 176.751 151.126C175.733 151.126 174.926 150.785 174.329 150.104C173.741 149.413 173.447 148.545 173.447 147.5C173.447 146.445 173.75 145.568 174.357 144.868C174.973 144.159 175.771 143.804 176.751 143.804C177.824 143.804 178.65 144.149 179.229 144.84C179.817 145.531 180.111 146.408 180.111 147.472ZM174.595 147.486C174.595 148.223 174.791 148.853 175.183 149.376C175.575 149.889 176.097 150.146 176.751 150.146C177.46 150.146 178.006 149.894 178.389 149.39C178.771 148.877 178.963 148.242 178.963 147.486C178.963 146.702 178.781 146.058 178.417 145.554C178.053 145.041 177.497 144.784 176.751 144.784C176.079 144.784 175.551 145.045 175.169 145.568C174.786 146.091 174.595 146.73 174.595 147.486ZM182.456 147.388C182.456 148.256 182.647 148.928 183.03 149.404C183.413 149.871 183.903 150.104 184.5 150.104C185.013 150.104 185.475 149.894 185.886 149.474C186.306 149.045 186.516 148.373 186.516 147.458C186.516 146.515 186.311 145.839 185.9 145.428C185.489 145.008 184.999 144.798 184.43 144.798C183.861 144.798 183.389 145.036 183.016 145.512C182.643 145.988 182.456 146.613 182.456 147.388ZM187.622 153.758H186.516V149.936C186.003 150.72 185.284 151.112 184.36 151.112C183.455 151.112 182.717 150.767 182.148 150.076C181.588 149.376 181.308 148.48 181.308 147.388C181.308 146.361 181.579 145.507 182.12 144.826C182.661 144.135 183.403 143.79 184.346 143.79C185.289 143.79 186.012 144.177 186.516 144.952V143.902H187.622V153.758ZM190.833 151H189.727V141.102H190.833V151ZM195.109 150.146C195.613 150.146 196.014 150.006 196.313 149.726C196.612 149.437 196.761 149.073 196.761 148.634V147.724H195.529C194.932 147.724 194.484 147.841 194.185 148.074C193.886 148.307 193.737 148.601 193.737 148.956C193.737 149.311 193.854 149.6 194.087 149.824C194.32 150.039 194.661 150.146 195.109 150.146ZM196.775 150.16C196.411 150.767 195.748 151.07 194.787 151.07C194.124 151.07 193.588 150.874 193.177 150.482C192.776 150.09 192.575 149.595 192.575 148.998C192.575 148.317 192.832 147.789 193.345 147.416C193.868 147.033 194.577 146.842 195.473 146.842H196.761V146.478C196.761 145.918 196.635 145.498 196.383 145.218C196.131 144.929 195.706 144.784 195.109 144.784C194.353 144.784 193.681 144.985 193.093 145.386V144.28C193.625 143.953 194.325 143.79 195.193 143.79C196.976 143.79 197.867 144.695 197.867 146.506V151H196.775V150.16ZM200.922 151H199.816L199.83 143.902H200.922V145.148C201.295 144.271 201.939 143.832 202.854 143.832C203.022 143.832 203.152 143.841 203.246 143.86V144.952C203.05 144.887 202.849 144.854 202.644 144.854C202.149 144.854 201.738 145.083 201.412 145.54C201.085 145.997 200.922 146.525 200.922 147.122V151ZM205.124 147.528C205.124 148.293 205.311 148.914 205.684 149.39C206.057 149.866 206.529 150.104 207.098 150.104C207.677 150.104 208.167 149.889 208.568 149.46C208.979 149.031 209.184 148.345 209.184 147.402C209.184 146.506 208.974 145.848 208.554 145.428C208.134 145.008 207.672 144.798 207.168 144.798C206.58 144.798 206.09 145.036 205.698 145.512C205.315 145.979 205.124 146.651 205.124 147.528ZM210.29 151H209.184V149.95C208.68 150.725 207.952 151.112 207 151.112C206.057 151.112 205.315 150.762 204.774 150.062C204.242 149.362 203.976 148.513 203.976 147.514C203.976 146.403 204.261 145.507 204.83 144.826C205.399 144.135 206.132 143.79 207.028 143.79C207.952 143.79 208.671 144.187 209.184 144.98V141.102H210.29V151ZM214.509 150.146C215.013 150.146 215.415 150.006 215.713 149.726C216.012 149.437 216.161 149.073 216.161 148.634V147.724H214.929C214.332 147.724 213.884 147.841 213.585 148.074C213.287 148.307 213.137 148.601 213.137 148.956C213.137 149.311 213.254 149.6 213.487 149.824C213.721 150.039 214.061 150.146 214.509 150.146ZM216.175 150.16C215.811 150.767 215.149 151.07 214.187 151.07C213.525 151.07 212.988 150.874 212.577 150.482C212.176 150.09 211.975 149.595 211.975 148.998C211.975 148.317 212.232 147.789 212.745 147.416C213.268 147.033 213.977 146.842 214.873 146.842H216.161V146.478C216.161 145.918 216.035 145.498 215.783 145.218C215.531 144.929 215.107 144.784 214.509 144.784C213.753 144.784 213.081 144.985 212.493 145.386V144.28C213.025 143.953 213.725 143.79 214.593 143.79C216.376 143.79 217.267 144.695 217.267 146.506V151H216.175V150.16ZM97.1098 169.818C96.7458 170.779 96.3118 171.456 95.8078 171.848C95.3131 172.24 94.7438 172.436 94.0998 172.436C93.8571 172.436 93.6611 172.413 93.5118 172.366V171.372C93.6518 171.409 93.8105 171.428 93.9878 171.428C94.9305 171.428 95.5978 170.891 95.9898 169.818L93.1198 162.902H94.3658L95.2898 165.24L96.5358 168.46C96.6105 168.217 96.9838 167.144 97.6558 165.24L98.4818 162.902H99.6718L97.1098 169.818ZM106.114 169.636C105.563 169.925 104.891 170.07 104.098 170.07C103.025 170.07 102.157 169.743 101.494 169.09C100.841 168.427 100.514 167.555 100.514 166.472C100.514 165.343 100.808 164.451 101.396 163.798C101.984 163.145 102.74 162.818 103.664 162.818C104.551 162.818 105.255 163.103 105.778 163.672C106.301 164.241 106.562 165.049 106.562 166.094C106.562 166.393 106.539 166.668 106.492 166.92H101.648C101.732 167.62 101.998 168.157 102.446 168.53C102.894 168.903 103.482 169.09 104.21 169.09C105.003 169.09 105.638 168.927 106.114 168.6V169.636ZM103.664 163.784C103.132 163.784 102.679 163.975 102.306 164.358C101.933 164.741 101.713 165.287 101.648 165.996H105.456V165.716C105.456 165.128 105.297 164.661 104.98 164.316C104.663 163.961 104.224 163.784 103.664 163.784ZM111.805 169.818C111.497 169.986 111.151 170.07 110.769 170.07C109.369 170.07 108.669 169.356 108.669 167.928V163.798H107.535V162.902H108.669V161.138H109.775V162.902H111.735V163.798H109.775V167.956C109.775 168.712 110.129 169.09 110.839 169.09C111.203 169.09 111.525 168.983 111.805 168.768V169.818ZM114.509 170H113.417V160.158H114.509V170ZM115.951 166.276L118.835 170H117.505L114.649 166.276L117.435 162.902H118.751L115.951 166.276ZM122.313 169.146C122.817 169.146 123.218 169.006 123.517 168.726C123.816 168.437 123.965 168.073 123.965 167.634V166.724H122.733C122.136 166.724 121.688 166.841 121.389 167.074C121.09 167.307 120.941 167.601 120.941 167.956C120.941 168.311 121.058 168.6 121.291 168.824C121.524 169.039 121.865 169.146 122.313 169.146ZM123.979 169.16C123.615 169.767 122.952 170.07 121.991 170.07C121.328 170.07 120.792 169.874 120.381 169.482C119.98 169.09 119.779 168.595 119.779 167.998C119.779 167.317 120.036 166.789 120.549 166.416C121.072 166.033 121.781 165.842 122.677 165.842H123.965V165.478C123.965 164.918 123.839 164.498 123.587 164.218C123.335 163.929 122.91 163.784 122.313 163.784C121.557 163.784 120.885 163.985 120.297 164.386V163.28C120.829 162.953 121.529 162.79 122.397 162.79C124.18 162.79 125.071 163.695 125.071 165.506V170H123.979V169.16ZM131.738 170H126.628V169.132L130.226 163.882H126.768V162.902H131.542V163.714L127.902 169.006H131.738V170ZM134.539 170H133.433V162.902H134.539V170ZM134.497 160.158C134.637 160.298 134.707 160.471 134.707 160.676C134.707 160.881 134.637 161.054 134.497 161.194C134.357 161.325 134.185 161.39 133.979 161.39C133.774 161.39 133.601 161.325 133.461 161.194C133.331 161.054 133.265 160.881 133.265 160.676C133.265 160.471 133.331 160.298 133.461 160.158C133.601 160.018 133.774 159.948 133.979 159.948C134.185 159.948 134.357 160.018 134.497 160.158ZM137.807 170H136.701V160.102H137.807V170ZM142.083 169.146C142.587 169.146 142.988 169.006 143.287 168.726C143.585 168.437 143.735 168.073 143.735 167.634V166.724H142.503C141.905 166.724 141.457 166.841 141.159 167.074C140.86 167.307 140.711 167.601 140.711 167.956C140.711 168.311 140.827 168.6 141.061 168.824C141.294 169.039 141.635 169.146 142.083 169.146ZM143.749 169.16C143.385 169.767 142.722 170.07 141.761 170.07C141.098 170.07 140.561 169.874 140.151 169.482C139.749 169.09 139.549 168.595 139.549 167.998C139.549 167.317 139.805 166.789 140.319 166.416C140.841 166.033 141.551 165.842 142.447 165.842H143.735V165.478C143.735 164.918 143.609 164.498 143.357 164.218C143.105 163.929 142.68 163.784 142.083 163.784C141.327 163.784 140.655 163.985 140.067 164.386V163.28C140.599 162.953 141.299 162.79 142.167 162.79C143.949 162.79 144.841 163.695 144.841 165.506V170H143.749V169.16ZM147.531 166.528C147.531 167.293 147.718 167.914 148.091 168.39C148.465 168.866 148.936 169.104 149.505 169.104C150.084 169.104 150.574 168.889 150.975 168.46C151.386 168.031 151.591 167.345 151.591 166.402C151.591 165.506 151.381 164.848 150.961 164.428C150.541 164.008 150.079 163.798 149.575 163.798C148.987 163.798 148.497 164.036 148.105 164.512C147.723 164.979 147.531 165.651 147.531 166.528ZM152.697 170H151.591V168.95C151.087 169.725 150.359 170.112 149.407 170.112C148.465 170.112 147.723 169.762 147.181 169.062C146.649 168.362 146.383 167.513 146.383 166.514C146.383 165.403 146.668 164.507 147.237 163.826C147.807 163.135 148.539 162.79 149.435 162.79C150.359 162.79 151.078 163.187 151.591 163.98V160.102H152.697V170ZM155.909 170H154.803V162.902H155.909V170ZM155.867 160.158C156.007 160.298 156.077 160.471 156.077 160.676C156.077 160.881 156.007 161.054 155.867 161.194C155.727 161.325 155.554 161.39 155.349 161.39C155.143 161.39 154.971 161.325 154.831 161.194C154.7 161.054 154.635 160.881 154.635 160.676C154.635 160.471 154.7 160.298 154.831 160.158C154.971 160.018 155.143 159.948 155.349 159.948C155.554 159.948 155.727 160.018 155.867 160.158Z" fill="black"/>
<path d="M124.888 48.5304L111.312 50.715L116.407 68.4543C116.555 68.9348 117.047 69.2844 117.613 69.2844H132.381C132.947 69.2844 133.44 68.9348 133.587 68.4543L138.682 50.715L124.888 48.5304ZM122.536 45.2534C123.216 45.2534 123.767 44.7649 123.767 44.1611V33.0923C123.767 32.4886 123.216 32 122.536 32C121.856 32 121.305 32.4886 121.305 33.0923V44.1611C121.305 44.7649 121.856 45.2534 122.536 45.2534ZM127.459 45.2534C128.139 45.2534 128.689 44.7649 128.689 44.1611V33.0923C128.689 32.4886 128.139 32 127.459 32C126.778 32 126.228 32.4886 126.228 33.0923V44.1611C126.228 44.7649 126.778 45.2534 127.459 45.2534Z" fill="url(#paint0_linear_1_316)"/>
<path d="M140.309 45.3627C139.719 45.1006 138.98 45.3189 138.66 45.8651L137.159 48.5304L133.418 43.5494C133.172 43.2435 132.802 43.0688 132.384 43.0688H117.616C117.198 43.0688 116.828 43.2435 116.582 43.5494L112.841 48.5304L111.34 45.8651C111.02 45.3189 110.281 45.1006 109.691 45.3627C109.075 45.6467 108.829 46.3021 109.125 46.8263L111.315 50.7151H138.685L140.875 46.8263C141.171 46.302 140.925 45.6467 140.309 45.3627ZM125 56.1767C122.964 56.1767 121.308 57.6466 121.308 59.4536C121.308 61.2606 122.964 62.7306 125 62.7306C127.036 62.7306 128.692 61.2606 128.692 59.4536C128.692 57.6466 127.036 56.1767 125 56.1767Z" fill="url(#paint1_linear_1_316)"/>
<defs>
<linearGradient id="paint0_linear_1_316" x1="124.997" y1="69.2844" x2="124.997" y2="32" gradientUnits="userSpaceOnUse">
<stop stop-color="#FD3A84"/>
<stop offset="1" stop-color="#FFA68D"/>
</linearGradient>
<linearGradient id="paint1_linear_1_316" x1="125" y1="62.7306" x2="125" y2="43.0688" gradientUnits="userSpaceOnUse">
<stop stop-color="#FFC2CC"/>
<stop offset="1" stop-color="#FFF2F4"/>
</linearGradient>
</defs>
</svg>
