<svg width="250" height="200" viewBox="0 0 250 200" fill="none" xmlns="http://www.w3.org/2000/svg">
<rect width="250" height="200" rx="7" fill="white"/>
<rect x="0.5" y="0.5" width="249" height="199" rx="6.5" stroke="black" stroke-opacity="0.03"/>
<path d="M72.14 120H68.96L64.12 113.32L68.78 106.52H71.8L67.12 113.28L72.14 120ZM63.92 120H61.4V106.52H63.92V120ZM77.3386 118.3C77.8719 118.3 78.2853 118.147 78.5786 117.84C78.8853 117.52 79.0386 117.107 79.0386 116.6V115.64H77.7986C77.1719 115.64 76.6919 115.773 76.3586 116.04C76.0253 116.293 75.8586 116.62 75.8586 117.02C75.8586 117.873 76.3519 118.3 77.3386 118.3ZM79.1386 118.78C78.6719 119.647 77.7919 120.08 76.4986 120.08C75.5386 120.08 74.7719 119.8 74.1986 119.24C73.6386 118.68 73.3586 117.973 73.3586 117.12C73.3586 116.16 73.7186 115.407 74.4386 114.86C75.1586 114.313 76.1986 114.04 77.5586 114.04H79.0386V113.42C79.0386 112.86 78.8919 112.433 78.5986 112.14C78.3053 111.847 77.8053 111.7 77.0986 111.7C76.0186 111.7 75.0253 112 74.1186 112.6V110.38C74.8786 109.913 75.9719 109.68 77.3986 109.68C80.1453 109.68 81.5186 110.96 81.5186 113.52V120H79.1386V118.78ZM89.5953 119.76C89.1286 119.987 88.5286 120.1 87.7953 120.1C85.6086 120.1 84.5153 118.993 84.5153 116.78V111.66H82.9953V109.86H84.5153V107.42H86.9153V109.86H89.4353V111.66H86.9153V116.82C86.9153 117.247 87.0286 117.573 87.2553 117.8C87.482 118.013 87.7953 118.12 88.1953 118.12C88.702 118.12 89.1686 117.98 89.5953 117.7V119.76ZM97.1734 119.76C96.7068 119.987 96.1068 120.1 95.3734 120.1C93.1868 120.1 92.0934 118.993 92.0934 116.78V111.66H90.5734V109.86H92.0934V107.42H94.4934V109.86H97.0134V111.66H94.4934V116.82C94.4934 117.247 94.6068 117.573 94.8334 117.8C95.0601 118.013 95.3734 118.12 95.7734 118.12C96.2801 118.12 96.7468 117.98 97.1734 117.7V119.76ZM102.632 118.3C103.165 118.3 103.578 118.147 103.872 117.84C104.178 117.52 104.332 117.107 104.332 116.6V115.64H103.092C102.465 115.64 101.985 115.773 101.652 116.04C101.318 116.293 101.152 116.62 101.152 117.02C101.152 117.873 101.645 118.3 102.632 118.3ZM104.432 118.78C103.965 119.647 103.085 120.08 101.792 120.08C100.832 120.08 100.065 119.8 99.4916 119.24C98.9316 118.68 98.6516 117.973 98.6516 117.12C98.6516 116.16 99.0116 115.407 99.7316 114.86C100.452 114.313 101.492 114.04 102.852 114.04H104.332V113.42C104.332 112.86 104.185 112.433 103.892 112.14C103.598 111.847 103.098 111.7 102.392 111.7C101.312 111.7 100.318 112 99.4116 112.6V110.38C100.172 109.913 101.265 109.68 102.692 109.68C105.438 109.68 106.812 110.96 106.812 113.52V120H104.432V118.78ZM116.689 120H114.269V105.86H116.689V111.4C117.396 110.28 118.409 109.72 119.729 109.72C120.996 109.72 122.036 110.193 122.849 111.14C123.676 112.073 124.089 113.34 124.089 114.94C124.089 116.38 123.696 117.607 122.909 118.62C122.136 119.633 121.083 120.14 119.749 120.14C118.416 120.14 117.396 119.573 116.689 118.44V120ZM116.689 114.84C116.689 115.893 116.929 116.7 117.409 117.26C117.889 117.807 118.489 118.08 119.209 118.08C119.903 118.08 120.483 117.793 120.949 117.22C121.416 116.647 121.649 115.9 121.649 114.98C121.649 113.967 121.409 113.18 120.929 112.62C120.463 112.047 119.883 111.76 119.189 111.76C118.536 111.76 117.956 112.02 117.449 112.54C116.943 113.047 116.689 113.813 116.689 114.84ZM135.384 114.9C135.384 116.433 134.95 117.693 134.084 118.68C133.23 119.667 132.03 120.16 130.484 120.16C128.95 120.16 127.75 119.68 126.884 118.72C126.03 117.76 125.604 116.533 125.604 115.04C125.604 113.493 126.05 112.22 126.944 111.22C127.837 110.207 129.017 109.7 130.484 109.7C132.044 109.7 133.25 110.193 134.104 111.18C134.957 112.153 135.384 113.393 135.384 114.9ZM128.124 114.96C128.124 115.893 128.33 116.673 128.744 117.3C129.157 117.927 129.744 118.24 130.504 118.24C131.29 118.24 131.884 117.933 132.284 117.32C132.684 116.707 132.884 115.927 132.884 114.98C132.884 114.007 132.69 113.213 132.304 112.6C131.917 111.973 131.31 111.66 130.484 111.66C129.724 111.66 129.137 111.973 128.724 112.6C128.324 113.227 128.124 114.013 128.124 114.96ZM146.252 120H143.852V113.76C143.852 113.093 143.692 112.593 143.372 112.26C143.052 111.913 142.619 111.74 142.072 111.74C141.446 111.74 140.919 111.987 140.492 112.48C140.066 112.96 139.852 113.653 139.852 114.56V120H137.452V109.86H139.852V111.6C140.426 110.36 141.466 109.74 142.972 109.74C143.986 109.74 144.786 110.047 145.372 110.66C145.959 111.273 146.252 112.14 146.252 113.26V120ZM157.461 120H155.041V118.34C154.508 119.513 153.468 120.1 151.921 120.1C150.894 120.1 150.094 119.807 149.521 119.22C148.948 118.633 148.661 117.8 148.661 116.72V109.86H151.061V116.16C151.061 116.8 151.214 117.287 151.521 117.62C151.841 117.953 152.274 118.12 152.821 118.12C153.514 118.12 154.054 117.887 154.441 117.42C154.841 116.953 155.041 116.247 155.041 115.3V109.86H157.461V120ZM166.69 117.08C166.69 118.027 166.35 118.767 165.67 119.3C164.99 119.833 164.083 120.1 162.95 120.1C161.696 120.1 160.683 119.893 159.91 119.48V117.28C160.803 117.88 161.77 118.18 162.81 118.18C163.25 118.18 163.59 118.1 163.83 117.94C164.083 117.767 164.21 117.533 164.21 117.24C164.21 117.067 164.17 116.913 164.09 116.78C164.01 116.633 163.856 116.493 163.63 116.36C163.403 116.227 163.223 116.133 163.09 116.08C162.97 116.013 162.723 115.9 162.35 115.74C162.31 115.727 162.276 115.713 162.25 115.7C162.236 115.687 162.21 115.673 162.17 115.66C162.13 115.647 162.096 115.633 162.07 115.62C160.59 114.953 159.85 113.993 159.85 112.74C159.85 111.807 160.203 111.073 160.91 110.54C161.616 110.007 162.503 109.74 163.57 109.74C164.596 109.74 165.45 109.887 166.13 110.18V112.3C165.463 111.9 164.63 111.7 163.63 111.7C163.216 111.7 162.89 111.793 162.65 111.98C162.423 112.153 162.31 112.38 162.31 112.66C162.31 112.767 162.323 112.867 162.35 112.96C162.39 113.053 162.45 113.147 162.53 113.24C162.623 113.32 162.71 113.393 162.79 113.46C162.87 113.527 162.983 113.6 163.13 113.68C163.276 113.747 163.403 113.807 163.51 113.86C163.616 113.913 163.763 113.98 163.95 114.06C164.136 114.14 164.283 114.207 164.39 114.26C165.096 114.607 165.656 114.993 166.07 115.42C166.483 115.847 166.69 116.4 166.69 117.08ZM171.105 120H168.705V105.86H171.105V120ZM177.28 118.3C177.813 118.3 178.227 118.147 178.52 117.84C178.827 117.52 178.98 117.107 178.98 116.6V115.64H177.74C177.113 115.64 176.633 115.773 176.3 116.04C175.967 116.293 175.8 116.62 175.8 117.02C175.8 117.873 176.293 118.3 177.28 118.3ZM179.08 118.78C178.613 119.647 177.733 120.08 176.44 120.08C175.48 120.08 174.713 119.8 174.14 119.24C173.58 118.68 173.3 117.973 173.3 117.12C173.3 116.16 173.66 115.407 174.38 114.86C175.1 114.313 176.14 114.04 177.5 114.04H178.98V113.42C178.98 112.86 178.833 112.433 178.54 112.14C178.247 111.847 177.747 111.7 177.04 111.7C175.96 111.7 174.967 112 174.06 112.6V110.38C174.82 109.913 175.913 109.68 177.34 109.68C180.087 109.68 181.46 110.96 181.46 113.52V120H179.08V118.78ZM186.337 120H183.917L183.937 109.86H186.337V111.66C186.803 110.407 187.657 109.78 188.897 109.78C189.177 109.78 189.403 109.8 189.577 109.84V112.16C189.27 112.027 188.93 111.96 188.557 111.96C187.903 111.96 187.37 112.227 186.957 112.76C186.543 113.293 186.337 113.96 186.337 114.76V120Z" fill="black"/>
<path opacity="0.6" d="M32.5903 146.898H29.0343V151H27.9003V141.564H33.0803V142.558H29.0343V145.904H32.5903V146.898ZM40.9379 147.472C40.9379 148.527 40.6392 149.399 40.0419 150.09C39.4445 150.781 38.6232 151.126 37.5779 151.126C36.5605 151.126 35.7532 150.785 35.1559 150.104C34.5679 149.413 34.2739 148.545 34.2739 147.5C34.2739 146.445 34.5772 145.568 35.1839 144.868C35.7999 144.159 36.5979 143.804 37.5779 143.804C38.6512 143.804 39.4772 144.149 40.0559 144.84C40.6439 145.531 40.9379 146.408 40.9379 147.472ZM35.4219 147.486C35.4219 148.223 35.6179 148.853 36.0099 149.376C36.4019 149.889 36.9245 150.146 37.5779 150.146C38.2872 150.146 38.8332 149.894 39.2159 149.39C39.5985 148.877 39.7899 148.242 39.7899 147.486C39.7899 146.702 39.6079 146.058 39.2439 145.554C38.8799 145.041 38.3245 144.784 37.5779 144.784C36.9059 144.784 36.3785 145.045 35.9959 145.568C35.6132 146.091 35.4219 146.73 35.4219 147.486ZM45.6352 150.818C45.2712 151.779 44.8372 152.456 44.3332 152.848C43.8385 153.24 43.2692 153.436 42.6252 153.436C42.3825 153.436 42.1865 153.413 42.0372 153.366V152.372C42.1772 152.409 42.3359 152.428 42.5132 152.428C43.4559 152.428 44.1232 151.891 44.5152 150.818L41.6452 143.902H42.8912L43.8152 146.24L45.0612 149.46C45.1359 149.217 45.5092 148.144 46.1812 146.24L47.0072 143.902H48.1972L45.6352 150.818ZM50.1875 147.528C50.1875 148.293 50.3742 148.914 50.7475 149.39C51.1208 149.866 51.5922 150.104 52.1615 150.104C52.7402 150.104 53.2302 149.889 53.6315 149.46C54.0422 149.031 54.2475 148.345 54.2475 147.402C54.2475 146.506 54.0375 145.848 53.6175 145.428C53.1975 145.008 52.7355 144.798 52.2315 144.798C51.6435 144.798 51.1535 145.036 50.7615 145.512C50.3788 145.979 50.1875 146.651 50.1875 147.528ZM55.3535 151H54.2475V149.95C53.7435 150.725 53.0155 151.112 52.0635 151.112C51.1208 151.112 50.3788 150.762 49.8375 150.062C49.3055 149.362 49.0395 148.513 49.0395 147.514C49.0395 146.403 49.3242 145.507 49.8935 144.826C50.4628 144.135 51.1955 143.79 52.0915 143.79C53.0155 143.79 53.7342 144.187 54.2475 144.98V141.102H55.3535V151ZM59.5729 150.146C60.0769 150.146 60.4782 150.006 60.7769 149.726C61.0755 149.437 61.2249 149.073 61.2249 148.634V147.724H59.9929C59.3955 147.724 58.9475 147.841 58.6489 148.074C58.3502 148.307 58.2009 148.601 58.2009 148.956C58.2009 149.311 58.3175 149.6 58.5509 149.824C58.7842 150.039 59.1249 150.146 59.5729 150.146ZM61.2389 150.16C60.8749 150.767 60.2122 151.07 59.2509 151.07C58.5882 151.07 58.0515 150.874 57.6409 150.482C57.2395 150.09 57.0389 149.595 57.0389 148.998C57.0389 148.317 57.2955 147.789 57.8089 147.416C58.3315 147.033 59.0409 146.842 59.9369 146.842H61.2249V146.478C61.2249 145.918 61.0989 145.498 60.8469 145.218C60.5949 144.929 60.1702 144.784 59.5729 144.784C58.8169 144.784 58.1449 144.985 57.5569 145.386V144.28C58.0889 143.953 58.7889 143.79 59.6569 143.79C61.4395 143.79 62.3309 144.695 62.3309 146.506V151H61.2389V150.16ZM65.4555 151H64.3495V141.102H65.4555V151ZM69.7311 150.146C70.2351 150.146 70.6364 150.006 70.9351 149.726C71.2337 149.437 71.3831 149.073 71.3831 148.634V147.724H70.1511C69.5537 147.724 69.1057 147.841 68.8071 148.074C68.5084 148.307 68.3591 148.601 68.3591 148.956C68.3591 149.311 68.4757 149.6 68.7091 149.824C68.9424 150.039 69.2831 150.146 69.7311 150.146ZM71.3971 150.16C71.0331 150.767 70.3704 151.07 69.4091 151.07C68.7464 151.07 68.2097 150.874 67.7991 150.482C67.3977 150.09 67.1971 149.595 67.1971 148.998C67.1971 148.317 67.4537 147.789 67.9671 147.416C68.4897 147.033 69.1991 146.842 70.0951 146.842H71.3831V146.478C71.3831 145.918 71.2571 145.498 71.0051 145.218C70.7531 144.929 70.3284 144.784 69.7311 144.784C68.9751 144.784 68.3031 144.985 67.7151 145.386V144.28C68.2471 143.953 68.9471 143.79 69.8151 143.79C71.5977 143.79 72.4891 144.695 72.4891 146.506V151H71.3971V150.16ZM80.0517 151H78.9457V146.408C78.9457 145.885 78.8104 145.489 78.5397 145.218C78.2784 144.938 77.933 144.798 77.5037 144.798C76.9717 144.798 76.5097 145.003 76.1177 145.414C75.735 145.825 75.5437 146.394 75.5437 147.122V151H74.4517V143.902H75.5437V145.134C75.9637 144.247 76.7104 143.804 77.7837 143.804C78.4744 143.804 79.025 144.014 79.4357 144.434C79.8464 144.854 80.0517 145.414 80.0517 146.114V151ZM87.5282 151H86.4222V149.768C86.0489 150.645 85.3069 151.084 84.1962 151.084C83.4962 151.084 82.9409 150.879 82.5302 150.468C82.1289 150.048 81.9282 149.488 81.9282 148.788V143.902H83.0342V148.508C83.0342 149.021 83.1649 149.413 83.4262 149.684C83.6876 149.955 84.0422 150.09 84.4902 150.09C85.0782 150.09 85.5449 149.885 85.8902 149.474C86.2449 149.063 86.4222 148.508 86.4222 147.808V143.902H87.5282V151ZM92.7368 151H91.3788L88.9008 143.902H90.0488L91.0288 146.898L92.0648 150.132C92.1488 149.731 92.4988 148.653 93.1148 146.898L94.1228 143.902H95.2708L92.7368 151ZM101.527 150.748C101.079 151.019 100.528 151.154 99.8751 151.154C98.7551 151.154 97.8638 150.799 97.2011 150.09C96.5478 149.371 96.2211 148.499 96.2211 147.472C96.2211 146.464 96.5478 145.596 97.2011 144.868C97.8638 144.14 98.7645 143.776 99.9031 143.776C100.51 143.776 101.051 143.907 101.527 144.168V145.218C101.098 144.929 100.594 144.784 100.015 144.784C99.2125 144.784 98.5685 145.045 98.0831 145.568C97.6071 146.081 97.3691 146.721 97.3691 147.486C97.3785 148.251 97.6118 148.891 98.0691 149.404C98.5265 149.908 99.1751 150.16 100.015 150.16C100.556 150.16 101.06 150.006 101.527 149.698V150.748ZM108.831 151H107.725V146.408C107.725 145.895 107.59 145.498 107.319 145.218C107.058 144.938 106.712 144.798 106.283 144.798C105.76 144.798 105.303 144.999 104.911 145.4C104.519 145.801 104.323 146.375 104.323 147.122V151H103.231V141.102H104.323V145.134C104.743 144.247 105.49 143.804 106.563 143.804C107.244 143.804 107.79 144.014 108.201 144.434C108.621 144.854 108.831 145.423 108.831 146.142V151ZM111.954 151H110.848V143.902H111.954V151ZM111.912 141.158C112.052 141.298 112.122 141.471 112.122 141.676C112.122 141.881 112.052 142.054 111.912 142.194C111.772 142.325 111.599 142.39 111.394 142.39C111.188 142.39 111.016 142.325 110.876 142.194C110.745 142.054 110.68 141.881 110.68 141.676C110.68 141.471 110.745 141.298 110.876 141.158C111.016 141.018 111.188 140.948 111.394 140.948C111.599 140.948 111.772 141.018 111.912 141.158ZM115.221 151H114.115V141.102H115.221V151ZM119.497 150.146C120.001 150.146 120.402 150.006 120.701 149.726C120.999 149.437 121.149 149.073 121.149 148.634V147.724H119.917C119.319 147.724 118.871 147.841 118.573 148.074C118.274 148.307 118.125 148.601 118.125 148.956C118.125 149.311 118.241 149.6 118.475 149.824C118.708 150.039 119.049 150.146 119.497 150.146ZM121.163 150.16C120.799 150.767 120.136 151.07 119.175 151.07C118.512 151.07 117.975 150.874 117.565 150.482C117.163 150.09 116.963 149.595 116.963 148.998C116.963 148.317 117.219 147.789 117.733 147.416C118.255 147.033 118.965 146.842 119.861 146.842H121.149V146.478C121.149 145.918 121.023 145.498 120.771 145.218C120.519 144.929 120.094 144.784 119.497 144.784C118.741 144.784 118.069 144.985 117.481 145.386V144.28C118.013 143.953 118.713 143.79 119.581 143.79C121.363 143.79 122.255 144.695 122.255 146.506V151H121.163V150.16ZM125.309 151H124.203L124.217 143.902H125.309V145.148C125.683 144.271 126.327 143.832 127.241 143.832C127.409 143.832 127.54 143.841 127.633 143.86V144.952C127.437 144.887 127.237 144.854 127.031 144.854C126.537 144.854 126.126 145.083 125.799 145.54C125.473 145.997 125.309 146.525 125.309 147.122V151ZM137.718 151H136.612V149.768C136.238 150.645 135.496 151.084 134.386 151.084C133.686 151.084 133.13 150.879 132.72 150.468C132.318 150.048 132.118 149.488 132.118 148.788V143.902H133.224V148.508C133.224 149.021 133.354 149.413 133.616 149.684C133.877 149.955 134.232 150.09 134.68 150.09C135.268 150.09 135.734 149.885 136.08 149.474C136.434 149.063 136.612 148.508 136.612 147.808V143.902H137.718V151ZM144.648 150.748C144.2 151.019 143.65 151.154 142.996 151.154C141.876 151.154 140.985 150.799 140.322 150.09C139.669 149.371 139.342 148.499 139.342 147.472C139.342 146.464 139.669 145.596 140.322 144.868C140.985 144.14 141.886 143.776 143.024 143.776C143.631 143.776 144.172 143.907 144.648 144.168V145.218C144.219 144.929 143.715 144.784 143.136 144.784C142.334 144.784 141.69 145.045 141.204 145.568C140.728 146.081 140.49 146.721 140.49 147.486C140.5 148.251 140.733 148.891 141.19 149.404C141.648 149.908 142.296 150.16 143.136 150.16C143.678 150.16 144.182 150.006 144.648 149.698V150.748ZM151.952 151H150.846V146.408C150.846 145.895 150.711 145.498 150.44 145.218C150.179 144.938 149.833 144.798 149.404 144.798C148.881 144.798 148.424 144.999 148.032 145.4C147.64 145.801 147.444 146.375 147.444 147.122V151H146.352V141.102H147.444V145.134C147.864 144.247 148.611 143.804 149.684 143.804C150.365 143.804 150.911 144.014 151.322 144.434C151.742 144.854 151.952 145.423 151.952 146.142V151ZM159.429 151H158.323V149.768C157.949 150.645 157.207 151.084 156.097 151.084C155.397 151.084 154.841 150.879 154.431 150.468C154.029 150.048 153.829 149.488 153.829 148.788V143.902H154.935V148.508C154.935 149.021 155.065 149.413 155.327 149.684C155.588 149.955 155.943 150.09 156.391 150.09C156.979 150.09 157.445 149.885 157.791 149.474C158.145 149.063 158.323 148.508 158.323 147.808V143.902H159.429V151ZM167.073 151H165.967V146.408C165.967 145.885 165.832 145.489 165.561 145.218C165.3 144.938 164.955 144.798 164.525 144.798C163.993 144.798 163.531 145.003 163.139 145.414C162.757 145.825 162.565 146.394 162.565 147.122V151H161.473V143.902H162.565V145.134C162.985 144.247 163.732 143.804 164.805 143.804C165.496 143.804 166.047 144.014 166.457 144.434C166.868 144.854 167.073 145.414 167.073 146.114V151ZM172.998 151H171.78L174.16 147.36L171.92 143.888H173.194L174.804 146.548L176.428 143.888H177.688L175.392 147.374L177.772 151H176.498L174.776 148.2L172.998 151ZM181.307 150.146C181.811 150.146 182.213 150.006 182.511 149.726C182.81 149.437 182.959 149.073 182.959 148.634V147.724H181.727C181.13 147.724 180.682 147.841 180.383 148.074C180.085 148.307 179.935 148.601 179.935 148.956C179.935 149.311 180.052 149.6 180.285 149.824C180.519 150.039 180.859 150.146 181.307 150.146ZM182.973 150.16C182.609 150.767 181.947 151.07 180.985 151.07C180.323 151.07 179.786 150.874 179.375 150.482C178.974 150.09 178.773 149.595 178.773 148.998C178.773 148.317 179.03 147.789 179.543 147.416C180.066 147.033 180.775 146.842 181.671 146.842H182.959V146.478C182.959 145.918 182.833 145.498 182.581 145.218C182.329 144.929 181.905 144.784 181.307 144.784C180.551 144.784 179.879 144.985 179.291 145.386V144.28C179.823 143.953 180.523 143.79 181.391 143.79C183.174 143.79 184.065 144.695 184.065 146.506V151H182.973V150.16ZM187.12 151H186.014L186.028 143.902H187.12V145.148C187.493 144.271 188.137 143.832 189.052 143.832C189.22 143.832 189.351 143.841 189.444 143.86V144.952C189.248 144.887 189.047 144.854 188.842 144.854C188.347 144.854 187.937 145.083 187.61 145.54C187.283 145.997 187.12 146.525 187.12 147.122V151ZM191.756 151H190.65V143.902H191.756V151ZM191.714 141.158C191.854 141.298 191.924 141.471 191.924 141.676C191.924 141.881 191.854 142.054 191.714 142.194C191.574 142.325 191.402 142.39 191.196 142.39C190.991 142.39 190.818 142.325 190.678 142.194C190.548 142.054 190.482 141.881 190.482 141.676C190.482 141.471 190.548 141.298 190.678 141.158C190.818 141.018 190.991 140.948 191.196 140.948C191.402 140.948 191.574 141.018 191.714 141.158ZM194.59 147.528C194.59 148.293 194.777 148.914 195.15 149.39C195.523 149.866 195.995 150.104 196.564 150.104C197.143 150.104 197.633 149.889 198.034 149.46C198.445 149.031 198.65 148.345 198.65 147.402C198.65 146.506 198.44 145.848 198.02 145.428C197.6 145.008 197.138 144.798 196.634 144.798C196.046 144.798 195.556 145.036 195.164 145.512C194.781 145.979 194.59 146.651 194.59 147.528ZM199.756 151H198.65V149.95C198.146 150.725 197.418 151.112 196.466 151.112C195.523 151.112 194.781 150.762 194.24 150.062C193.708 149.362 193.442 148.513 193.442 147.514C193.442 146.403 193.727 145.507 194.296 144.826C194.865 144.135 195.598 143.79 196.494 143.79C197.418 143.79 198.137 144.187 198.65 144.98V141.102H199.756V151ZM202.533 147.528C202.533 148.293 202.72 148.914 203.093 149.39C203.467 149.866 203.938 150.104 204.507 150.104C205.086 150.104 205.576 149.889 205.977 149.46C206.388 149.031 206.593 148.345 206.593 147.402C206.593 146.506 206.383 145.848 205.963 145.428C205.543 145.008 205.081 144.798 204.577 144.798C203.989 144.798 203.499 145.036 203.107 145.512C202.725 145.979 202.533 146.651 202.533 147.528ZM207.699 151H206.593V149.95C206.089 150.725 205.361 151.112 204.409 151.112C203.467 151.112 202.725 150.762 202.183 150.062C201.651 149.362 201.385 148.513 201.385 147.514C201.385 146.403 201.67 145.507 202.239 144.826C202.809 144.135 203.541 143.79 204.437 143.79C205.361 143.79 206.08 144.187 206.593 144.98V141.102H207.699V151ZM211.919 150.146C212.423 150.146 212.824 150.006 213.123 149.726C213.421 149.437 213.571 149.073 213.571 148.634V147.724H212.339C211.741 147.724 211.293 147.841 210.995 148.074C210.696 148.307 210.547 148.601 210.547 148.956C210.547 149.311 210.663 149.6 210.897 149.824C211.13 150.039 211.471 150.146 211.919 150.146ZM213.585 150.16C213.221 150.767 212.558 151.07 211.597 151.07C210.934 151.07 210.397 150.874 209.987 150.482C209.585 150.09 209.385 149.595 209.385 148.998C209.385 148.317 209.641 147.789 210.155 147.416C210.677 147.033 211.387 146.842 212.283 146.842H213.571V146.478C213.571 145.918 213.445 145.498 213.193 145.218C212.941 144.929 212.516 144.784 211.919 144.784C211.163 144.784 210.491 144.985 209.903 145.386V144.28C210.435 143.953 211.135 143.79 212.003 143.79C213.785 143.79 214.677 144.695 214.677 146.506V151H213.585V150.16ZM222.239 151H221.133V146.408C221.133 145.885 220.998 145.489 220.727 145.218C220.466 144.938 220.121 144.798 219.691 144.798C219.159 144.798 218.697 145.003 218.305 145.414C217.923 145.825 217.731 146.394 217.731 147.122V151H216.639V143.902H217.731V145.134C218.151 144.247 218.898 143.804 219.971 143.804C220.662 143.804 221.213 144.014 221.623 144.434C222.034 144.854 222.239 145.414 222.239 146.114V151ZM77.4796 170H76.3736V160.102H77.4796V163.966C77.9929 163.182 78.7116 162.79 79.6356 162.79C80.5316 162.79 81.2642 163.135 81.8336 163.826C82.4029 164.507 82.6876 165.403 82.6876 166.514C82.6876 167.513 82.4169 168.362 81.8756 169.062C81.3436 169.762 80.6062 170.112 79.6636 170.112C78.7116 170.112 77.9836 169.725 77.4796 168.95V170ZM77.4796 166.402C77.4796 167.345 77.6802 168.031 78.0816 168.46C78.4922 168.889 78.9869 169.104 79.5656 169.104C80.1349 169.104 80.6062 168.866 80.9796 168.39C81.3529 167.914 81.5396 167.293 81.5396 166.528C81.5396 165.651 81.3436 164.979 80.9516 164.512C80.5689 164.036 80.0836 163.798 79.4956 163.798C78.9916 163.798 78.5296 164.008 78.1096 164.428C77.6896 164.848 77.4796 165.506 77.4796 166.402ZM90.5599 166.472C90.5599 167.527 90.2613 168.399 89.6639 169.09C89.0666 169.781 88.2453 170.126 87.1999 170.126C86.1826 170.126 85.3753 169.785 84.7779 169.104C84.1899 168.413 83.8959 167.545 83.8959 166.5C83.8959 165.445 84.1993 164.568 84.8059 163.868C85.4219 163.159 86.2199 162.804 87.1999 162.804C88.2733 162.804 89.0993 163.149 89.6779 163.84C90.2659 164.531 90.5599 165.408 90.5599 166.472ZM85.0439 166.486C85.0439 167.223 85.2399 167.853 85.6319 168.376C86.0239 168.889 86.5466 169.146 87.1999 169.146C87.9093 169.146 88.4553 168.894 88.8379 168.39C89.2206 167.877 89.4119 167.242 89.4119 166.486C89.4119 165.702 89.2299 165.058 88.8659 164.554C88.5019 164.041 87.9466 163.784 87.1999 163.784C86.5279 163.784 86.0006 164.045 85.6179 164.568C85.2353 165.091 85.0439 165.73 85.0439 166.486ZM97.7773 170H96.6713V165.408C96.6713 164.885 96.5359 164.489 96.2653 164.218C96.0039 163.938 95.6586 163.798 95.2293 163.798C94.6973 163.798 94.2353 164.003 93.8433 164.414C93.4606 164.825 93.2693 165.394 93.2693 166.122V170H92.1773V162.902H93.2693V164.134C93.6893 163.247 94.4359 162.804 95.5093 162.804C96.1999 162.804 96.7506 163.014 97.1613 163.434C97.5719 163.854 97.7773 164.414 97.7773 165.114V170ZM105.254 170H104.148V168.768C103.774 169.645 103.032 170.084 101.922 170.084C101.222 170.084 100.666 169.879 100.256 169.468C99.8545 169.048 99.6538 168.488 99.6538 167.788V162.902H100.76V167.508C100.76 168.021 100.89 168.413 101.152 168.684C101.413 168.955 101.768 169.09 102.216 169.09C102.804 169.09 103.27 168.885 103.616 168.474C103.97 168.063 104.148 167.508 104.148 166.808V162.902H105.254V170ZM111.568 168.11C111.568 168.717 111.354 169.197 110.924 169.552C110.504 169.907 109.926 170.084 109.188 170.084C108.33 170.084 107.634 169.939 107.102 169.65V168.572C107.728 168.945 108.4 169.132 109.118 169.132C109.548 169.132 109.874 169.048 110.098 168.88C110.322 168.712 110.434 168.483 110.434 168.194C110.434 167.858 110.308 167.597 110.056 167.41C109.814 167.223 109.403 167.013 108.824 166.78C108.292 166.575 107.863 166.318 107.536 166.01C107.219 165.702 107.06 165.287 107.06 164.764C107.06 164.176 107.28 163.709 107.718 163.364C108.166 163.009 108.722 162.832 109.384 162.832C110.122 162.832 110.714 162.935 111.162 163.14V164.19C110.733 163.929 110.145 163.798 109.398 163.798C109.025 163.798 108.726 163.887 108.502 164.064C108.288 164.232 108.18 164.451 108.18 164.722C108.18 164.89 108.213 165.039 108.278 165.17C108.344 165.291 108.47 165.413 108.656 165.534C108.852 165.655 108.992 165.739 109.076 165.786C109.17 165.823 109.366 165.907 109.664 166.038C110.262 166.281 110.728 166.556 111.064 166.864C111.4 167.172 111.568 167.587 111.568 168.11ZM114.23 170H113.124V160.102H114.23V170ZM118.505 169.146C119.009 169.146 119.411 169.006 119.709 168.726C120.008 168.437 120.157 168.073 120.157 167.634V166.724H118.925C118.328 166.724 117.88 166.841 117.581 167.074C117.283 167.307 117.133 167.601 117.133 167.956C117.133 168.311 117.25 168.6 117.483 168.824C117.717 169.039 118.057 169.146 118.505 169.146ZM120.171 169.16C119.807 169.767 119.145 170.07 118.183 170.07C117.521 170.07 116.984 169.874 116.573 169.482C116.172 169.09 115.971 168.595 115.971 167.998C115.971 167.317 116.228 166.789 116.741 166.416C117.264 166.033 117.973 165.842 118.869 165.842H120.157V165.478C120.157 164.918 120.031 164.498 119.779 164.218C119.527 163.929 119.103 163.784 118.505 163.784C117.749 163.784 117.077 163.985 116.489 164.386V163.28C117.021 162.953 117.721 162.79 118.589 162.79C120.372 162.79 121.263 163.695 121.263 165.506V170H120.171V169.16ZM124.318 170H123.212L123.226 162.902H124.318V164.148C124.691 163.271 125.335 162.832 126.25 162.832C126.418 162.832 126.549 162.841 126.642 162.86V163.952C126.446 163.887 126.245 163.854 126.04 163.854C125.545 163.854 125.135 164.083 124.808 164.54C124.481 164.997 124.318 165.525 124.318 166.122V170ZM132.358 170H131.252V160.102H132.358V163.966C132.872 163.182 133.59 162.79 134.514 162.79C135.41 162.79 136.143 163.135 136.712 163.826C137.282 164.507 137.566 165.403 137.566 166.514C137.566 167.513 137.296 168.362 136.754 169.062C136.222 169.762 135.485 170.112 134.542 170.112C133.59 170.112 132.862 169.725 132.358 168.95V170ZM132.358 166.402C132.358 167.345 132.559 168.031 132.96 168.46C133.371 168.889 133.866 169.104 134.444 169.104C135.014 169.104 135.485 168.866 135.858 168.39C136.232 167.914 136.418 167.293 136.418 166.528C136.418 165.651 136.222 164.979 135.83 164.512C135.448 164.036 134.962 163.798 134.374 163.798C133.87 163.798 133.408 164.008 132.988 164.428C132.568 164.848 132.358 165.506 132.358 166.402ZM144.375 169.636C143.824 169.925 143.152 170.07 142.359 170.07C141.286 170.07 140.418 169.743 139.755 169.09C139.102 168.427 138.775 167.555 138.775 166.472C138.775 165.343 139.069 164.451 139.657 163.798C140.245 163.145 141.001 162.818 141.925 162.818C142.812 162.818 143.516 163.103 144.039 163.672C144.562 164.241 144.823 165.049 144.823 166.094C144.823 166.393 144.8 166.668 144.753 166.92H139.909C139.993 167.62 140.259 168.157 140.707 168.53C141.155 168.903 141.743 169.09 142.471 169.09C143.264 169.09 143.899 168.927 144.375 168.6V169.636ZM141.925 163.784C141.393 163.784 140.94 163.975 140.567 164.358C140.194 164.741 139.974 165.287 139.909 165.996H143.717V165.716C143.717 165.128 143.558 164.661 143.241 164.316C142.924 163.961 142.485 163.784 141.925 163.784ZM147.601 170H146.495L146.509 162.902H147.601V164.148C147.975 163.271 148.619 162.832 149.533 162.832C149.701 162.832 149.832 162.841 149.925 162.86V163.952C149.729 163.887 149.529 163.854 149.323 163.854C148.829 163.854 148.418 164.083 148.091 164.54C147.765 164.997 147.601 165.525 147.601 166.122V170ZM152.238 170H151.132V162.902H152.238V170ZM152.196 160.158C152.336 160.298 152.406 160.471 152.406 160.676C152.406 160.881 152.336 161.054 152.196 161.194C152.056 161.325 151.883 161.39 151.678 161.39C151.472 161.39 151.3 161.325 151.16 161.194C151.029 161.054 150.964 160.881 150.964 160.676C150.964 160.471 151.029 160.298 151.16 160.158C151.3 160.018 151.472 159.948 151.678 159.948C151.883 159.948 152.056 160.018 152.196 160.158ZM155.505 170H154.399V160.102H155.505V170ZM159.781 169.146C160.285 169.146 160.686 169.006 160.985 168.726C161.284 168.437 161.433 168.073 161.433 167.634V166.724H160.201C159.604 166.724 159.156 166.841 158.857 167.074C158.558 167.307 158.409 167.601 158.409 167.956C158.409 168.311 158.526 168.6 158.759 168.824C158.992 169.039 159.333 169.146 159.781 169.146ZM161.447 169.16C161.083 169.767 160.42 170.07 159.459 170.07C158.796 170.07 158.26 169.874 157.849 169.482C157.448 169.09 157.247 168.595 157.247 167.998C157.247 167.317 157.504 166.789 158.017 166.416C158.54 166.033 159.249 165.842 160.145 165.842H161.433V165.478C161.433 164.918 161.307 164.498 161.055 164.218C160.803 163.929 160.378 163.784 159.781 163.784C159.025 163.784 158.353 163.985 157.765 164.386V163.28C158.297 162.953 158.997 162.79 159.865 162.79C161.648 162.79 162.539 163.695 162.539 165.506V170H161.447V169.16ZM165.229 166.528C165.229 167.293 165.416 167.914 165.789 168.39C166.163 168.866 166.634 169.104 167.203 169.104C167.782 169.104 168.272 168.889 168.673 168.46C169.084 168.031 169.289 167.345 169.289 166.402C169.289 165.506 169.079 164.848 168.659 164.428C168.239 164.008 167.777 163.798 167.273 163.798C166.685 163.798 166.195 164.036 165.803 164.512C165.421 164.979 165.229 165.651 165.229 166.528ZM170.395 170H169.289V168.95C168.785 169.725 168.057 170.112 167.105 170.112C166.163 170.112 165.421 169.762 164.879 169.062C164.347 168.362 164.081 167.513 164.081 166.514C164.081 165.403 164.366 164.507 164.935 163.826C165.505 163.135 166.237 162.79 167.133 162.79C168.057 162.79 168.776 163.187 169.289 163.98V160.102H170.395V170ZM173.607 170H172.501V162.902H173.607V170ZM173.565 160.158C173.705 160.298 173.775 160.471 173.775 160.676C173.775 160.881 173.705 161.054 173.565 161.194C173.425 161.325 173.252 161.39 173.047 161.39C172.842 161.39 172.669 161.325 172.529 161.194C172.398 161.054 172.333 160.881 172.333 160.676C172.333 160.471 172.398 160.298 172.529 160.158C172.669 160.018 172.842 159.948 173.047 159.948C173.252 159.948 173.425 160.018 173.565 160.158Z" fill="black"/>
<g clip-path="url(#clip0_1_328)">
<path d="M138.574 63.3717H115.543C115.028 63.3717 114.61 62.9537 114.61 62.4381V51.6801C114.61 51.1645 115.028 50.7465 115.543 50.7465H138.574C139.09 50.7465 139.508 51.1645 139.508 51.6801V62.4381C139.508 62.9536 139.09 63.3717 138.574 63.3717Z" fill="url(#paint0_linear_1_328)"/>
<path d="M114.635 62.0498L115.957 63.3716H138.574C139.09 63.3716 139.508 62.9537 139.508 62.438V51.68C139.508 51.1644 139.09 50.7463 138.574 50.7463H115.543C115.028 50.7463 114.61 51.1643 114.61 51.68V61.9955L114.635 62.0498Z" fill="url(#paint1_linear_1_328)"/>
<path d="M137.172 61.9714H114.141C113.625 61.9714 113.207 61.5534 113.207 61.0378V50.2797C113.207 49.7641 113.625 49.3461 114.141 49.3461H137.172C137.687 49.3461 138.105 49.7641 138.105 50.2797V61.0377C138.105 61.5534 137.687 61.9714 137.172 61.9714Z" fill="url(#paint2_linear_1_328)"/>
<path d="M113.232 60.6496L114.554 61.9714H137.172C137.687 61.9714 138.105 61.5534 138.105 61.0377V50.2797C138.105 49.764 137.687 49.3459 137.172 49.3459H114.141C113.625 49.3459 113.207 49.7639 113.207 50.2797V60.5952L113.232 60.6496Z" fill="url(#paint3_linear_1_328)"/>
<path d="M135.774 60.5709H112.743C112.227 60.5709 111.809 60.1529 111.809 59.6373V48.8793C111.809 48.3637 112.227 47.9457 112.743 47.9457H135.774C136.289 47.9457 136.707 48.3637 136.707 48.8793V59.6373C136.707 60.1529 136.289 60.5709 135.774 60.5709Z" fill="url(#paint4_linear_1_328)"/>
<path d="M111.834 59.2491L113.156 60.5709H135.774C136.289 60.5709 136.707 60.1529 136.707 59.6373V48.8793C136.707 48.3637 136.289 47.9457 135.774 47.9457H112.743C112.227 47.9457 111.809 48.3637 111.809 48.8793V59.1948L111.834 59.2491Z" fill="url(#paint5_linear_1_328)"/>
<path d="M134.457 59.2535H111.426C110.911 59.2535 110.493 58.8355 110.493 58.3199V47.5619C110.493 47.0463 110.911 46.6283 111.426 46.6283H134.457C134.973 46.6283 135.391 47.0463 135.391 47.5619V58.3198C135.391 58.8354 134.973 59.2535 134.457 59.2535Z" fill="url(#paint6_linear_1_328)"/>
<path d="M133.983 49.2974C133.307 49.2623 132.755 48.7088 132.72 48.0333C132.712 47.8839 132.73 47.7398 132.768 47.604H113.112C113.15 47.7396 113.168 47.8838 113.16 48.0333C113.125 48.7088 112.573 49.2623 111.897 49.2973C111.666 49.3093 111.447 49.2623 111.254 49.1704V56.7111C111.448 56.6191 111.667 56.5721 111.898 56.5841C112.573 56.6194 113.125 57.1731 113.16 57.8487C113.168 57.998 113.15 58.1419 113.112 58.2775H132.767C132.73 58.142 132.712 57.998 132.72 57.8487C132.755 57.1731 133.307 56.6194 133.982 56.5841C134.213 56.572 134.432 56.619 134.626 56.7111V49.1704C134.433 49.2624 134.214 49.3093 133.983 49.2974Z" fill="url(#paint7_linear_1_328)"/>
<path d="M122.94 56.1736C124.725 56.1736 126.173 54.7261 126.173 52.9406C126.173 51.1551 124.725 49.7076 122.94 49.7076C121.154 49.7076 119.707 51.1551 119.707 52.9406C119.707 54.7261 121.154 56.1736 122.94 56.1736Z" fill="url(#paint8_linear_1_328)"/>
<path d="M118.496 48.7917H113.531V50.2201H118.496V48.7917Z" fill="url(#paint9_linear_1_328)"/>
<path d="M132.348 55.6616H127.383V57.09H132.348V55.6616Z" fill="url(#paint10_linear_1_328)"/>
<path d="M145.732 42.9724C144.842 42.6468 143.868 43.0185 143.405 43.8083C141.945 41.3988 140.018 39.2906 137.697 37.5873C133.977 34.8581 129.566 33.4155 124.94 33.4155C120.314 33.4155 115.903 34.8581 112.183 37.5873C108.54 40.2603 105.866 43.9294 104.45 48.1978C104.115 49.2099 104.663 50.3026 105.675 50.6383C106.687 50.9742 107.78 50.4258 108.115 49.4137C109.278 45.91 111.475 42.897 114.468 40.7006C117.52 38.4608 121.142 37.2769 124.94 37.2769C128.739 37.2769 132.36 38.4608 135.412 40.7007C137.195 42.0087 138.695 43.6064 139.862 45.4248C138.974 45.2914 138.085 45.795 137.764 46.6714C137.398 47.6728 137.912 48.7816 138.914 49.1481L142.934 50.6191C142.944 50.6226 142.953 50.6249 142.963 50.6283C142.997 50.64 143.031 50.6507 143.065 50.6606C143.084 50.6658 143.102 50.6712 143.12 50.676C143.155 50.6849 143.19 50.6924 143.225 50.6993C143.243 50.7029 143.261 50.707 143.279 50.71C143.316 50.7163 143.354 50.7206 143.392 50.7249C143.407 50.7265 143.423 50.7291 143.438 50.7303C143.491 50.7347 143.544 50.7371 143.597 50.7371C143.597 50.7371 143.597 50.7371 143.597 50.7371H143.597C143.647 50.7371 143.697 50.7351 143.747 50.7312C143.759 50.7303 143.77 50.7283 143.782 50.7272C143.821 50.7235 143.859 50.7195 143.896 50.7135C143.911 50.7112 143.925 50.7078 143.94 50.7051C143.975 50.6987 144.01 50.6921 144.045 50.6839C144.061 50.68 144.077 50.675 144.093 50.6706C144.126 50.6619 144.159 50.653 144.191 50.6426C144.196 50.6411 144.201 50.64 144.206 50.6385C144.215 50.6353 144.224 50.6309 144.234 50.6277C144.276 50.6127 144.318 50.5966 144.36 50.5788C144.377 50.5712 144.395 50.5636 144.412 50.5555C144.453 50.5367 144.492 50.5163 144.531 50.4947C144.544 50.4879 144.557 50.4818 144.569 50.4748C144.616 50.4475 144.661 50.4177 144.706 50.3865C144.723 50.3743 144.74 50.3613 144.757 50.3486C144.787 50.3263 144.816 50.3032 144.844 50.2792C144.86 50.2659 144.875 50.2527 144.891 50.239C144.923 50.2097 144.955 50.1791 144.985 50.1475C144.993 50.1388 145.003 50.1304 145.011 50.1215C145.051 50.0788 145.089 50.0341 145.125 49.9875C145.127 49.9842 145.129 49.9808 145.132 49.9775C145.164 49.9354 145.194 49.8916 145.223 49.8465C145.231 49.8344 145.238 49.8221 145.246 49.8098C145.268 49.7732 145.289 49.7358 145.309 49.6974C145.317 49.6816 145.325 49.6658 145.333 49.6498C145.35 49.6138 145.367 49.577 145.382 49.5395C145.389 49.5222 145.397 49.5051 145.403 49.4875C145.406 49.4815 145.408 49.4758 145.411 49.4697L146.882 45.4494C147.248 44.4478 146.733 43.3389 145.732 42.9724Z" fill="url(#paint11_linear_1_328)"/>
<path d="M104.268 67.0273C105.158 67.3529 106.132 66.9813 106.595 66.1915C108.055 68.601 109.982 70.7091 112.303 72.4125C116.023 75.1417 120.434 76.5844 125.06 76.5844C129.686 76.5844 134.097 75.1418 137.817 72.4125C141.46 69.7395 144.134 66.0704 145.55 61.802C145.886 60.7899 145.337 59.6972 144.325 59.3615C143.313 59.0256 142.22 59.574 141.885 60.5861C140.722 64.0898 138.526 67.1028 135.532 69.2992C132.48 71.5389 128.859 72.7229 125.06 72.7229C121.261 72.7229 117.64 71.539 114.588 69.2992C112.805 67.9912 111.305 66.3934 110.138 64.575C111.026 64.7085 111.915 64.2049 112.236 63.3285C112.603 62.3272 112.088 61.2182 111.086 60.8518L107.066 59.3808C107.056 59.3773 107.047 59.375 107.037 59.3716C107.003 59.3598 106.969 59.3492 106.935 59.3393C106.917 59.334 106.898 59.3286 106.88 59.3238C106.845 59.315 106.81 59.3075 106.775 59.3005C106.757 59.297 106.739 59.2929 106.721 59.2899C106.684 59.2836 106.646 59.2792 106.608 59.275C106.593 59.2734 106.577 59.2708 106.562 59.2696C106.509 59.2652 106.456 59.2627 106.403 59.2627C106.403 59.2627 106.403 59.2627 106.403 59.2627H106.403C106.353 59.2627 106.303 59.2648 106.253 59.2686C106.241 59.2696 106.23 59.2716 106.218 59.2727C106.18 59.2764 106.142 59.2803 106.104 59.2863C106.089 59.2887 106.075 59.2921 106.06 59.2948C106.025 59.3011 105.99 59.3077 105.955 59.316C105.939 59.3199 105.923 59.3249 105.907 59.3292C105.874 59.3379 105.841 59.3469 105.809 59.3572C105.804 59.3588 105.8 59.3598 105.795 59.3614C105.785 59.3646 105.776 59.3689 105.767 59.3722C105.724 59.3872 105.682 59.4033 105.641 59.4211C105.623 59.4287 105.605 59.4363 105.588 59.4444C105.547 59.4632 105.508 59.4836 105.469 59.5051C105.456 59.5119 105.444 59.518 105.431 59.5251C105.384 59.5523 105.339 59.5821 105.294 59.6133C105.277 59.6255 105.26 59.6385 105.243 59.6512C105.214 59.6736 105.184 59.6966 105.156 59.7207C105.14 59.7339 105.125 59.7471 105.11 59.7609C105.077 59.7902 105.046 59.8208 105.015 59.8523C105.007 59.8611 104.998 59.8694 104.989 59.8784C104.95 59.9211 104.911 59.9658 104.875 60.0123C104.873 60.0156 104.871 60.0191 104.868 60.0223C104.836 60.0644 104.806 60.1083 104.777 60.1534C104.769 60.1655 104.762 60.1778 104.755 60.1901C104.732 60.2267 104.711 60.2641 104.691 60.3025C104.683 60.3183 104.675 60.334 104.667 60.3501C104.65 60.3861 104.634 60.4229 104.618 60.4603C104.611 60.4777 104.604 60.4948 104.597 60.5123C104.595 60.5183 104.592 60.5241 104.59 60.5302L103.118 64.5506C102.752 65.552 103.267 66.661 104.268 67.0273Z" fill="url(#paint12_radial_1_328)"/>
</g>
<defs>
<linearGradient id="paint0_linear_1_328" x1="114.609" y1="57.0595" x2="139.507" y2="57.0595" gradientUnits="userSpaceOnUse">
<stop stop-color="#61DB99"/>
<stop offset="1" stop-color="#009E74"/>
</linearGradient>
<linearGradient id="paint1_linear_1_328" x1="128.184" y1="60.8651" x2="126.878" y2="56.1176" gradientUnits="userSpaceOnUse">
<stop stop-color="#009E74" stop-opacity="0"/>
<stop offset="1" stop-color="#009E74"/>
</linearGradient>
<linearGradient id="paint2_linear_1_328" x1="113.207" y1="55.6592" x2="138.105" y2="55.6592" gradientUnits="userSpaceOnUse">
<stop stop-color="#61DB99"/>
<stop offset="1" stop-color="#009E74"/>
</linearGradient>
<linearGradient id="paint3_linear_1_328" x1="126.626" y1="60.0378" x2="125.765" y2="55.9139" gradientUnits="userSpaceOnUse">
<stop stop-color="#009E74" stop-opacity="0"/>
<stop offset="1" stop-color="#009E74"/>
</linearGradient>
<linearGradient id="paint4_linear_1_328" x1="111.809" y1="54.2588" x2="136.707" y2="54.2588" gradientUnits="userSpaceOnUse">
<stop stop-color="#61DB99"/>
<stop offset="1" stop-color="#009E74"/>
</linearGradient>
<linearGradient id="paint5_linear_1_328" x1="126.131" y1="61.3975" x2="122.127" y2="45.5432" gradientUnits="userSpaceOnUse">
<stop stop-color="#009E74" stop-opacity="0"/>
<stop offset="1" stop-color="#009E74"/>
</linearGradient>
<linearGradient id="paint6_linear_1_328" x1="110.492" y1="52.9414" x2="135.39" y2="52.9414" gradientUnits="userSpaceOnUse">
<stop stop-color="#A7F3CE"/>
<stop offset="1" stop-color="#61DB99"/>
</linearGradient>
<linearGradient id="paint7_linear_1_328" x1="116.436" y1="46.4378" x2="132.279" y2="62.2809" gradientUnits="userSpaceOnUse">
<stop stop-color="#61DB99"/>
<stop offset="1" stop-color="#009E74"/>
</linearGradient>
<linearGradient id="paint8_linear_1_328" x1="121.016" y1="51.0173" x2="125.703" y2="55.7045" gradientUnits="userSpaceOnUse">
<stop stop-color="#A7F3CE"/>
<stop offset="1" stop-color="#61DB99"/>
</linearGradient>
<linearGradient id="paint9_linear_1_328" x1="114.669" y1="48.1618" x2="117.945" y2="51.4384" gradientUnits="userSpaceOnUse">
<stop stop-color="#A7F3CE"/>
<stop offset="1" stop-color="#61DB99"/>
</linearGradient>
<linearGradient id="paint10_linear_1_328" x1="128.52" y1="55.0311" x2="131.796" y2="58.3078" gradientUnits="userSpaceOnUse">
<stop stop-color="#A7F3CE"/>
<stop offset="1" stop-color="#61DB99"/>
</linearGradient>
<linearGradient id="paint11_linear_1_328" x1="104.352" y1="42.0771" x2="146.999" y2="42.0771" gradientUnits="userSpaceOnUse">
<stop stop-color="#FFB92D"/>
<stop offset="1" stop-color="#F59500"/>
</linearGradient>
<radialGradient id="paint12_radial_1_328" cx="0" cy="0" r="1" gradientUnits="userSpaceOnUse" gradientTransform="translate(125.284 55.1382) rotate(180) scale(21.8589 21.8588)">
<stop stop-color="#BE3F45"/>
<stop offset="0.317" stop-color="#C14046"/>
<stop offset="0.538" stop-color="#CA4148"/>
<stop offset="0.729" stop-color="#D9444B"/>
<stop offset="0.902" stop-color="#EF4950"/>
<stop offset="1" stop-color="#FF4C54"/>
</radialGradient>
<clipPath id="clip0_1_328">
<rect width="44" height="44" fill="white" transform="translate(103 33)"/>
</clipPath>
</defs>
</svg>
