<svg width="25" height="24" viewBox="0 0 25 24" fill="none" xmlns="http://www.w3.org/2000/svg">
<path d="M5.29375 5.89393C3.70005 7.3621 2.72437 9.27249 2.53071 11.304C2.33705 13.3355 2.93721 15.3642 4.23032 17.0492C5.52343 18.7342 7.43064 19.9727 9.63139 20.5565C11.8321 21.1403 14.1922 21.0339 16.315 20.2552C16.4587 19.423 16.1438 18.6242 16.015 18.3446C15.7275 17.7233 14.78 16.6615 13.1987 15.1892C12.7762 14.7954 12.8038 14.4925 12.955 13.5949L12.9712 13.4939C13.0737 12.8793 13.2463 12.5154 15.5775 12.1869C16.7625 12.0205 17.0737 12.4399 17.505 13.0224L17.65 13.2132C18.06 13.7458 18.3638 13.8678 18.8225 14.052C19.0288 14.1352 19.285 14.2406 19.6287 14.4126C20.4437 14.8264 20.4437 15.2935 20.4437 16.3165V16.433C20.4437 16.8668 20.3962 17.2484 20.3213 17.5802C21.2805 16.5116 21.9489 15.261 22.2745 13.9257C22.6001 12.5904 22.5741 11.2064 22.1985 9.88147C21.8229 8.55652 21.1079 7.32639 20.1091 6.28684C19.1103 5.24728 17.8547 4.42636 16.44 3.88797C15.7488 4.30181 14.8 4.88873 14.4688 5.29147C14.3 5.49673 14.06 6.54741 13.2812 6.63395C13.0787 6.65614 12.805 6.64061 12.515 6.62397C11.7375 6.57959 10.675 6.51857 10.335 7.33848C10.1187 7.85772 10.0812 9.26899 10.78 10.0013C10.8925 10.1178 10.9137 10.3341 10.8375 10.5771C10.7375 10.8955 10.5363 11.0897 10.4725 11.1296C10.3525 11.0675 10.1125 10.8201 9.94875 10.6525C9.5575 10.2476 9.0675 9.74274 8.435 9.58741C8.205 9.53083 7.9525 9.48423 7.70625 9.43763C7.02 9.31004 6.24375 9.1647 6.0625 8.82298C5.93 8.57223 5.93125 8.22718 5.93125 7.86327C5.93125 7.40061 5.93125 6.87804 5.67625 6.37101C5.5876 6.19006 5.45731 6.02755 5.29375 5.89393ZM12.5 23.1432C5.59625 23.1432 0 18.176 0 12.0483C0 5.92055 5.59625 0.953369 12.5 0.953369C19.4037 0.953369 25 5.92055 25 12.0483C25 18.176 19.4037 23.1432 12.5 23.1432Z" fill="#D23166"/>
</svg>
